<svg width="40" height="40" viewBox="0 0 40 40" fill="none" xmlns="http://www.w3.org/2000/svg">
<path d="M25.2662 14.1176C24.8081 16.0969 23.2189 17.655 21.2 18.1041V18.8235C21.2 19.4733 20.6627 20 20 20C19.3373 20 18.8 19.4733 18.8 18.8235V18.1041C16.7811 17.655 15.1919 16.0969 14.7338 14.1176H14C13.3373 14.1176 12.8 13.5909 12.8 12.9412C12.8 12.2914 13.3373 11.7647 14 11.7647H14.7338C15.1919 9.78544 16.7811 8.22737 18.8 7.77825V7.05882C18.8 6.40908 19.3373 5.88235 20 5.88235C20.6627 5.88235 21.2 6.40908 21.2 7.05882V7.77825C23.2189 8.22737 24.8081 9.78544 25.2662 11.7647H26C26.6627 11.7647 27.2 12.2914 27.2 12.9412C27.2 13.5909 26.6627 14.1176 26 14.1176H25.2662ZM20 15.8824C21.6569 15.8824 23 14.5655 23 12.9412C23 11.3168 21.6569 10 20 10C18.3431 10 17 11.3168 17 12.9412C17 14.5655 18.3431 15.8824 20 15.8824ZM10.4 27.0588C9.73726 27.0588 9.2 26.5321 9.2 25.8824C9.2 25.2326 9.73726 24.7059 10.4 24.7059H29.6C30.2627 24.7059 30.8 25.2326 30.8 25.8824C30.8 26.5321 30.2627 27.0588 29.6 27.0588H10.4ZM4.4 2.35294V38.8235C4.4 39.4733 3.86274 40 3.2 40C2.53726 40 2 39.4733 2 38.8235V1.17647C2 0.526724 2.53726 0 3.2 0H36.8C37.4627 0 38 0.526724 38 1.17647V38.8235C38 39.4733 37.4627 40 36.8 40C36.1373 40 35.6 39.4733 35.6 38.8235V2.35294H4.4ZM10.4 33.5294C9.73726 33.5294 9.2 33.0027 9.2 32.3529C9.2 31.7032 9.73726 31.1765 10.4 31.1765H29.6C30.2627 31.1765 30.8 31.7032 30.8 32.3529C30.8 33.0027 30.2627 33.5294 29.6 33.5294H10.4ZM10.4 40C9.73726 40 9.2 39.4733 9.2 38.8235C9.2 38.1738 9.73726 37.6471 10.4 37.6471H20C20.6627 37.6471 21.2 38.1738 21.2 38.8235C21.2 39.4733 20.6627 40 20 40H10.4ZM20 14.1176C19.3373 14.1176 18.8 13.5909 18.8 12.9412C18.8 12.2914 19.3373 11.7647 20 11.7647C20.6627 11.7647 21.2 12.2914 21.2 12.9412C21.2 13.5909 20.6627 14.1176 20 14.1176Z" fill="#165840"/>
</svg>
