<svg width="40" height="40" viewBox="0 0 40 40" fill="none" xmlns="http://www.w3.org/2000/svg">
<g clip-path="url(#clip0_2405_704)">
<path fill-rule="evenodd" clip-rule="evenodd" d="M33.5146 0.223216C33.9287 -0.0396391 34.4443 -0.0724957 34.887 0.136074C37.6247 1.42321 39.3955 3.64604 39.8753 6.39602C40.4209 9.51742 39.1156 12.6002 37.1362 14.2445V34.2858C37.1362 37.4372 34.5742 40 31.4239 40C28.2735 40 25.7115 37.4372 25.7115 34.2858V30.0001H14.281V34.2858C14.281 35.8615 13 37.1429 11.4248 37.1429H5.71239C4.1372 37.1429 2.8562 35.8615 2.8562 34.2858V29.2058C1.15676 28.2144 0 26.3916 0 24.2859V21.4287C0 19.2459 1.24387 17.3673 3.04756 16.4059L6.14368 9.17742C7.04481 7.07458 9.10555 5.7146 11.3934 5.7146H23.1437C23.7892 3.30176 25.503 1.29178 27.9607 0.136074C28.4006 -0.0724957 28.9204 -0.0396391 29.3331 0.223216C29.7458 0.484642 29.9958 0.940352 29.9958 1.42892V7.68886L31.4239 8.40314L32.852 7.68886V1.42892C32.852 0.940352 33.1019 0.484642 33.5146 0.223216ZM11.3934 8.57171C10.2495 8.57171 9.2198 9.25171 8.76852 10.3031L6.45072 15.7145H25.71V14.2445C24.2819 13.0488 23.0723 10.8674 22.8824 8.57171H11.3934ZM5.71239 34.2858H11.4262L11.4248 30.0001H5.71239V34.2858ZM2.8562 24.2859C2.8562 25.8616 4.1372 27.143 5.71239 27.143H25.7115V18.5716H5.71239C4.1372 18.5716 2.8562 19.853 2.8562 21.4287V24.2859ZM34.2801 13.5431C34.2801 13.0945 34.4914 12.6731 34.8484 12.4031C36.7207 11.0003 37.3947 8.79457 37.062 6.88744C36.882 5.86317 36.4179 4.94317 35.7082 4.17889V8.57171C35.7082 9.11314 35.4025 9.60742 34.9198 9.85027L32.0636 11.2788C31.6609 11.4803 31.1868 11.4803 30.7855 11.2788L27.9293 9.85027C27.4452 9.60742 27.1396 9.11314 27.1396 8.57171V4.18461C26.3584 5.03317 25.8757 6.04459 25.7457 7.28887C25.5544 9.14599 26.3127 11.136 27.885 12.3174C28.2206 12.4845 28.5677 12.986 28.5677 13.5431V34.2858C28.5677 35.8615 29.8487 37.1429 31.4239 37.1429C32.9991 37.1429 34.2801 35.8615 34.2801 34.2858V13.5431ZM11.2641 22.534C11.2641 23.7791 10.256 24.7875 9.01132 24.7875C7.76667 24.7875 6.75856 23.7791 6.75856 22.534C6.75856 21.289 7.76667 20.2805 9.01132 20.2805C10.256 20.2805 11.2641 21.289 11.2641 22.534ZM22.8486 22.8575C22.8486 23.6475 22.2089 24.2861 21.4205 24.2861H15.7082C14.9198 24.2861 14.2801 23.6475 14.2801 22.8575C14.2801 22.0675 14.9198 21.429 15.7082 21.429H21.4205C22.2089 21.429 22.8486 22.0675 22.8486 22.8575Z" fill="#165840"/>
</g>
<defs>
<clipPath id="clip0_2405_704">
<rect width="40" height="40" fill="white"/>
</clipPath>
</defs>
</svg>
