<svg width="40" height="40" viewBox="0 0 40 40" fill="none" xmlns="http://www.w3.org/2000/svg">
<g clip-path="url(#clip0_2405_694)">
<path d="M24.5172 29.2202C24.0923 29.2198 23.7482 28.875 23.7486 28.4501L23.7569 10.7775C23.7572 10.3529 24.1016 10.0088 24.5262 10.0089H27.7622L19.9806 1.50595L12.2574 10.0683L15.4965 10.0089C15.9215 10.0095 16.2658 10.3541 16.2659 10.7791L16.2591 28.4516C16.2587 28.8762 15.9143 29.2203 15.4897 29.2202C15.0648 29.2198 14.7199 28.875 14.7203 28.4501L14.7263 11.5477H12.2379C11.4072 11.5507 10.7313 10.8797 10.7283 10.049C10.727 9.67425 10.8655 9.31245 11.1169 9.03451L18.8791 0.472191C19.4831 -0.146678 20.4744 -0.158795 21.0933 0.445167C21.1024 0.454111 21.1115 0.463055 21.1203 0.472191L28.8832 9.03451C29.4406 9.65059 29.3929 10.6017 28.7769 11.1591C28.4989 11.4104 28.1371 11.5491 27.7622 11.5478H25.2949L25.2873 28.4517C25.287 28.8763 24.9418 29.2203 24.5172 29.2202Z" fill="#165840"/>
<path d="M32.8086 31.7264H27.423C26.9981 31.7264 26.6536 32.0709 26.6536 32.4958C26.6536 32.9207 26.9981 33.2652 27.423 33.2652H29.3464V38.6508C29.3464 39.0757 29.6909 39.4202 30.1158 39.4202C30.5407 39.4202 30.8852 39.0757 30.8852 38.6508V33.2652H32.8086C33.2335 33.2652 33.578 32.9207 33.578 32.4958C33.578 32.0709 33.2336 31.7264 32.8086 31.7264Z" fill="#165840"/>
<path d="M36.7101 28.8557C37.1348 28.8558 37.4792 28.5117 37.4795 28.0871L37.4841 21.207H38.7651C39.0759 21.2101 39.3762 21.0946 39.605 20.8841C40.1022 20.4267 40.1345 19.653 39.6772 19.1558L34.7611 13.8641C34.2572 13.3608 33.4408 13.3608 32.9368 13.8641L28.02 19.1558C27.81 19.3845 27.6948 19.6846 27.6978 19.995C27.7041 20.6707 28.2571 21.2134 28.9329 21.207H30.2267L30.2229 28.0855C30.2226 28.5104 30.5667 28.8552 30.9916 28.8557C31.4162 28.8558 31.7613 28.5117 31.7617 28.0871L31.7662 20.4384C31.7661 20.0134 31.4218 19.6688 30.9968 19.6682H29.6451L33.8489 15.1428L38.0527 19.6682H36.7154C36.2907 19.6681 35.9464 20.0122 35.946 20.4368L35.9407 28.0855C35.9403 28.5104 36.2852 28.8552 36.7101 28.8557Z" fill="#165840"/>
<path d="M9.0116 28.8557C8.58671 28.8552 8.2426 28.5104 8.24299 28.0855L8.24828 20.4368C8.24866 20.0122 8.59305 19.6681 9.01766 19.6682H10.355L6.15124 15.1428L1.94745 19.6682H3.29915C3.72414 19.6688 4.06844 20.0134 4.06853 20.4384L4.06401 28.0871C4.06363 28.5117 3.71923 28.8558 3.29463 28.8557C2.86974 28.8552 2.52487 28.5104 2.52525 28.0855L2.529 21.207H1.2352C0.559395 21.2134 0.00640382 20.6707 5.64475e-05 19.995C-0.00292489 19.6846 0.11229 19.3845 0.32233 19.1558L5.23914 13.8641C5.74308 13.3608 6.55949 13.3608 7.06343 13.8641L11.9795 19.1558C12.4368 19.653 12.4045 20.4267 11.9073 20.8841C11.6786 21.0946 11.3782 21.2101 11.0674 21.207H9.78636L9.78184 28.0871C9.78146 28.5117 9.43629 28.8558 9.0116 28.8557Z" fill="#165840"/>
<path fill-rule="evenodd" clip-rule="evenodd" d="M16.3507 39.4203H16.3552C18.1557 39.4185 19.6149 37.9594 19.6168 36.1588V34.9889C19.614 33.1901 18.1565 31.7326 16.3577 31.7298C14.5549 31.7269 13.0911 33.1862 13.0883 34.9889V36.1588C13.0905 37.9595 14.5499 39.4185 16.3507 39.4203ZM14.6271 34.9889C14.6286 34.0358 15.4021 33.2643 16.3552 33.2653C17.3064 33.2667 18.0771 34.0377 18.078 34.9889V36.1588C18.0768 37.1097 17.3062 37.8803 16.3552 37.8816H16.3507C15.3994 37.8806 14.6284 37.11 14.6271 36.1588V34.9889Z" fill="#165840"/>
<path d="M6.42187 36.1587V34.9889C6.42899 33.1832 7.8984 31.7253 9.70404 31.7323C10.5626 31.7356 11.3853 32.0766 11.9947 32.6815C12.2928 32.9843 12.2891 33.4714 11.9863 33.7695C11.6874 34.0638 11.2079 34.0645 10.9082 33.7709C10.2312 33.0978 9.13662 33.1009 8.46351 33.778C8.14345 34.0999 7.96284 34.5348 7.96072 34.9889V36.1587C7.96563 37.1136 8.74376 37.8837 9.69866 37.8787C10.1666 37.8763 10.6136 37.6843 10.9375 37.3466C11.2318 37.04 11.7189 37.03 12.0256 37.3243C12.331 37.6174 12.3423 38.1021 12.0511 38.4091C10.8005 39.7121 8.73049 39.7545 7.42755 38.5039C6.78858 37.8905 6.42572 37.0444 6.42187 36.1587Z" fill="#165840"/>
<path d="M20.7693 38.2182C21.3053 38.9912 22.1949 39.4419 23.1353 39.4166C25.9002 39.4166 26.9036 36.2376 24.3645 35.0597C23.745 34.891 23.1168 34.7568 22.4824 34.6577C21.4949 34.1759 22.1094 33.2691 23.1353 33.2691C23.5438 33.2488 23.9375 33.4246 24.1947 33.7425C24.4309 34.0889 24.9011 34.1823 25.2519 33.9524C25.6072 33.7195 25.7065 33.2427 25.4736 32.8874C24.9318 32.1409 24.0576 31.7083 23.1354 31.7304C20.3821 31.7304 19.4119 34.8731 21.8078 36.0401C22.4333 36.2255 23.0716 36.3644 23.7176 36.4555C24.8362 36.9742 24.1333 37.8778 23.1353 37.8778C22.7213 37.9003 22.3225 37.7187 22.0676 37.3917C21.839 37.0401 21.371 36.9361 21.0152 37.158C20.6545 37.3828 20.5444 37.8575 20.7693 38.2182Z" fill="#165840"/>
<path d="M24.5172 29.2202C24.0923 29.2198 23.7482 28.875 23.7486 28.4501L23.7569 10.7775C23.7572 10.3529 24.1016 10.0088 24.5262 10.0089H27.7622L19.9806 1.50595L12.2574 10.0683L15.4965 10.0089C15.9215 10.0095 16.2658 10.3541 16.2659 10.7791L16.2591 28.4516C16.2587 28.8762 15.9143 29.2203 15.4897 29.2202C15.0648 29.2198 14.7199 28.875 14.7203 28.4501L14.7263 11.5477H12.2379C11.4072 11.5507 10.7313 10.8797 10.7283 10.049C10.727 9.67425 10.8655 9.31245 11.1169 9.03451L18.8791 0.472191C19.4831 -0.146678 20.4744 -0.158795 21.0933 0.445167C21.1024 0.454111 21.1115 0.463055 21.1203 0.472191L28.8832 9.03451C29.4406 9.65059 29.3929 10.6017 28.7769 11.1591C28.4989 11.4104 28.1371 11.5491 27.7622 11.5478H25.2949L25.2873 28.4517C25.287 28.8763 24.9418 29.2203 24.5172 29.2202Z" stroke="#165840" stroke-width="0.5"/>
<path d="M32.8086 31.7264H27.423C26.9981 31.7264 26.6536 32.0709 26.6536 32.4958C26.6536 32.9207 26.9981 33.2652 27.423 33.2652H29.3464V38.6508C29.3464 39.0757 29.6909 39.4202 30.1158 39.4202C30.5407 39.4202 30.8852 39.0757 30.8852 38.6508V33.2652H32.8086C33.2335 33.2652 33.578 32.9207 33.578 32.4958C33.578 32.0709 33.2336 31.7264 32.8086 31.7264Z" stroke="#165840" stroke-width="0.5"/>
<path d="M36.7101 28.8557C37.1348 28.8558 37.4792 28.5117 37.4795 28.0871L37.4841 21.207H38.7651C39.0759 21.2101 39.3762 21.0946 39.605 20.8841C40.1022 20.4267 40.1345 19.653 39.6772 19.1558L34.7611 13.8641C34.2572 13.3608 33.4408 13.3608 32.9368 13.8641L28.02 19.1558C27.81 19.3845 27.6948 19.6846 27.6978 19.995C27.7041 20.6707 28.2571 21.2134 28.9329 21.207H30.2267L30.2229 28.0855C30.2226 28.5104 30.5667 28.8552 30.9916 28.8557C31.4162 28.8558 31.7613 28.5117 31.7617 28.0871L31.7662 20.4384C31.7661 20.0134 31.4218 19.6688 30.9968 19.6682H29.6451L33.8489 15.1428L38.0527 19.6682H36.7154C36.2907 19.6681 35.9464 20.0122 35.946 20.4368L35.9407 28.0855C35.9403 28.5104 36.2852 28.8552 36.7101 28.8557Z" stroke="#165840" stroke-width="0.5"/>
<path d="M9.0116 28.8557C8.58671 28.8552 8.2426 28.5104 8.24299 28.0855L8.24828 20.4368C8.24866 20.0122 8.59305 19.6681 9.01766 19.6682H10.355L6.15124 15.1428L1.94745 19.6682H3.29915C3.72414 19.6688 4.06844 20.0134 4.06853 20.4384L4.06401 28.0871C4.06363 28.5117 3.71923 28.8558 3.29463 28.8557C2.86974 28.8552 2.52487 28.5104 2.52525 28.0855L2.529 21.207H1.2352C0.559395 21.2134 0.00640382 20.6707 5.64475e-05 19.995C-0.00292489 19.6846 0.11229 19.3845 0.32233 19.1558L5.23914 13.8641C5.74308 13.3608 6.55949 13.3608 7.06343 13.8641L11.9795 19.1558C12.4368 19.653 12.4045 20.4267 11.9073 20.8841C11.6786 21.0946 11.3782 21.2101 11.0674 21.207H9.78636L9.78184 28.0871C9.78146 28.5117 9.43629 28.8558 9.0116 28.8557Z" stroke="#165840" stroke-width="0.5"/>
<path fill-rule="evenodd" clip-rule="evenodd" d="M16.3507 39.4203H16.3552C18.1557 39.4185 19.6149 37.9594 19.6168 36.1588V34.9889C19.614 33.1901 18.1565 31.7326 16.3577 31.7298C14.5549 31.7269 13.0911 33.1862 13.0883 34.9889V36.1588C13.0905 37.9595 14.5499 39.4185 16.3507 39.4203ZM14.6271 34.9889C14.6286 34.0358 15.4021 33.2643 16.3552 33.2653C17.3064 33.2667 18.0771 34.0377 18.078 34.9889V36.1588C18.0768 37.1097 17.3062 37.8803 16.3552 37.8816H16.3507C15.3994 37.8806 14.6284 37.11 14.6271 36.1588V34.9889Z" stroke="#165840" stroke-width="0.5"/>
<path d="M6.42187 36.1587V34.9889C6.42899 33.1832 7.8984 31.7253 9.70404 31.7323C10.5626 31.7356 11.3853 32.0766 11.9947 32.6815C12.2928 32.9843 12.2891 33.4714 11.9863 33.7695C11.6874 34.0638 11.2079 34.0645 10.9082 33.7709C10.2312 33.0978 9.13662 33.1009 8.46351 33.778C8.14345 34.0999 7.96284 34.5348 7.96072 34.9889V36.1587C7.96563 37.1136 8.74376 37.8837 9.69866 37.8787C10.1666 37.8763 10.6136 37.6843 10.9375 37.3466C11.2318 37.04 11.7189 37.03 12.0256 37.3243C12.331 37.6174 12.3423 38.1021 12.0511 38.4091C10.8005 39.7121 8.73049 39.7545 7.42755 38.5039C6.78858 37.8905 6.42572 37.0444 6.42187 36.1587Z" stroke="#165840" stroke-width="0.5"/>
<path d="M20.7693 38.2182C21.3053 38.9912 22.1949 39.4419 23.1353 39.4166C25.9002 39.4166 26.9036 36.2376 24.3645 35.0597C23.745 34.891 23.1168 34.7568 22.4824 34.6577C21.4949 34.1759 22.1094 33.2691 23.1353 33.2691C23.5438 33.2488 23.9375 33.4246 24.1947 33.7425C24.4309 34.0889 24.9011 34.1823 25.2519 33.9524C25.6072 33.7195 25.7065 33.2427 25.4736 32.8874C24.9318 32.1409 24.0576 31.7083 23.1354 31.7304C20.3821 31.7304 19.4119 34.8731 21.8078 36.0401C22.4333 36.2255 23.0716 36.3644 23.7176 36.4555C24.8362 36.9742 24.1333 37.8778 23.1353 37.8778C22.7213 37.9003 22.3225 37.7187 22.0676 37.3917C21.839 37.0401 21.371 36.9361 21.0152 37.158C20.6545 37.3828 20.5444 37.8575 20.7693 38.2182Z" stroke="#165840" stroke-width="0.5"/>
</g>
<defs>
<clipPath id="clip0_2405_694">
<rect width="40" height="40" fill="white"/>
</clipPath>
</defs>
</svg>
