<svg width="48" height="48" viewBox="0 0 48 48" fill="none" xmlns="http://www.w3.org/2000/svg">
<g clip-path="url(#clip0_2428_1810)">
<path fill-rule="evenodd" clip-rule="evenodd" d="M24.5439 0.115782C25.9273 1.91066 28.6702 6.349 28.6702 8.55017C28.6702 9.84914 28.1542 11.0949 27.2357 12.0134C26.3172 12.9319 25.0714 13.4479 23.7724 13.4479C22.4735 13.4479 21.2277 12.9319 20.3092 12.0134C19.3907 11.0949 18.8747 9.84914 18.8747 8.55017C18.8747 6.349 21.6296 1.91066 23.001 0.115782C23.0915 -0.00291124 23.2083 -0.0991096 23.3421 -0.165326C23.4759 -0.231543 23.6231 -0.265991 23.7724 -0.265991C23.9217 -0.265991 24.069 -0.231543 24.2028 -0.165326C24.3366 -0.0991096 24.4533 -0.00291124 24.5439 0.115782ZM42.6292 28.8766H40.9149L43.315 32.0772C43.981 32.9683 44.3417 34.0505 44.3435 35.163V39.1624C44.3417 39.7616 44.1824 40.3498 43.8815 40.8679C43.5806 41.386 43.1487 41.8159 42.6292 42.1145V44.3054C42.6292 45.2147 42.268 46.0868 41.625 46.7298C40.982 47.3727 40.11 47.734 39.2006 47.734H35.772C34.8627 47.734 33.9906 47.3727 33.3476 46.7298C32.7046 46.0868 32.3434 45.2147 32.3434 44.3054V42.5911H15.2003V44.3054C15.2003 45.2147 14.8391 46.0868 14.1961 46.7298C13.5531 47.3727 12.6811 47.734 11.7717 47.734H8.34311C7.43379 47.734 6.56171 47.3727 5.91872 46.7298C5.27573 46.0868 4.9145 45.2147 4.9145 44.3054V42.1145C4.395 41.8159 3.96313 41.386 3.66224 40.8679C3.36135 40.3498 3.202 39.7616 3.2002 39.1624V35.1612C3.20265 34.0489 3.56332 32.9669 4.22878 32.0755L6.62881 28.8766H4.9145C4.45984 28.8766 4.0238 28.696 3.7023 28.3745C3.38081 28.053 3.2002 27.617 3.2002 27.1623C3.2002 26.7076 3.38081 26.2716 3.7023 25.9501C4.0238 25.6286 4.45984 25.448 4.9145 25.448H8.99798L11.0054 21.4331C11.4299 20.5769 12.0858 19.8567 12.8988 19.3543C13.7118 18.852 14.6493 18.5874 15.6049 18.5908H31.9388C32.8945 18.5874 33.832 18.852 34.6449 19.3543C35.4579 19.8567 36.1138 20.5769 36.5383 21.4331L38.5458 25.448H42.6292C43.0839 25.448 43.5199 25.6286 43.8414 25.9501C44.1629 26.2716 44.3435 26.7076 44.3435 27.1623C44.3435 27.617 44.1629 28.053 43.8414 28.3745C43.5199 28.696 43.0839 28.8766 42.6292 28.8766ZM38.9149 34.4529C38.4921 34.1703 37.9949 34.0195 37.4863 34.0195C36.8043 34.0195 36.1503 34.2904 35.668 34.7727C35.1858 35.2549 34.9149 35.909 34.9149 36.591C34.9149 37.0996 35.0657 37.5967 35.3482 38.0196C35.6308 38.4425 36.0324 38.7721 36.5023 38.9667C36.9721 39.1613 37.4892 39.2122 37.988 39.113C38.4868 39.0138 38.945 38.7689 39.3046 38.4093C39.6642 38.0496 39.9091 37.5915 40.0084 37.0926C40.1076 36.5938 40.0567 36.0768 39.862 35.6069C39.6674 35.1371 39.3378 34.7354 38.9149 34.4529ZM11.5917 27.9286C11.5448 28.0204 11.4903 28.1081 11.4289 28.1909L11.3723 28.2646L11.8592 28.5886C12.1401 28.7767 12.4707 28.877 12.8089 28.8766H34.7434C35.0786 28.8753 35.406 28.7751 35.6846 28.5886L36.1714 28.2646L36.1149 28.1909C36.0534 28.1081 35.999 28.0204 35.952 27.9286L33.4714 22.9674C33.3291 22.6827 33.1104 22.4432 32.8397 22.2758C32.5691 22.1083 32.2571 22.0195 31.9388 22.0194H15.6049C15.2866 22.0195 14.9747 22.1083 14.704 22.2758C14.4333 22.4432 14.2146 22.6827 14.0723 22.9674L11.5917 27.9286ZM11.486 34.4529C11.0632 34.1703 10.566 34.0195 10.0574 34.0195C9.37543 34.0195 8.72137 34.2904 8.23912 34.7727C7.75688 35.2549 7.48596 35.909 7.48596 36.591C7.48596 37.0996 7.63677 37.5967 7.91933 38.0196C8.20189 38.4425 8.60349 38.7721 9.07337 38.9667C9.54324 39.1613 10.0603 39.2122 10.5591 39.113C11.0579 39.0138 11.5161 38.7689 11.8757 38.4093C12.2353 38.0496 12.4802 37.5915 12.5795 37.0926C12.6787 36.5938 12.6278 36.0768 12.4331 35.6069C12.2385 35.1371 11.9089 34.7354 11.486 34.4529ZM44.3431 10.2643C44.3431 8.06318 41.6002 3.62484 40.2168 1.82996C40.1262 1.71127 40.0095 1.61507 39.8757 1.54885C39.7419 1.48263 39.5946 1.44819 39.4454 1.44819C39.2961 1.44819 39.1488 1.48263 39.015 1.54885C38.8812 1.61507 38.7645 1.71127 38.6739 1.82996C37.3025 3.62484 34.5476 8.06318 34.5476 10.2643C34.5476 11.5633 35.0636 12.8091 35.9821 13.7276C36.9006 14.6461 38.1464 15.1621 39.4454 15.1621C40.7443 15.1621 41.9901 14.6461 42.9086 13.7276C43.8271 12.8091 44.3431 11.5633 44.3431 10.2643ZM8.86941 1.82996C10.2529 3.62484 12.9957 8.06318 12.9957 10.2643C12.9957 11.5633 12.4797 12.8091 11.5612 13.7276C10.6427 14.6461 9.39694 15.1621 8.09797 15.1621C6.799 15.1621 5.55323 14.6461 4.63472 13.7276C3.71621 12.8091 3.2002 11.5633 3.2002 10.2643C3.2002 8.06318 5.94309 3.62484 7.32653 1.82996C7.41708 1.71127 7.5338 1.61507 7.6676 1.54885C7.8014 1.48263 7.94868 1.44819 8.09797 1.44819C8.24726 1.44819 8.39454 1.48263 8.52834 1.54885C8.66214 1.61507 8.77886 1.71127 8.86941 1.82996Z" fill="#03164E"/>
</g>
<defs>
<clipPath id="clip0_2428_1810">
<rect width="48" height="48" fill="white"/>
</clipPath>
</defs>
</svg>
