<svg width="60" height="60" viewBox="0 0 60 60" fill="none" xmlns="http://www.w3.org/2000/svg">
<circle cx="30" cy="30" r="30" fill="#B37ECC"/>
<path d="M42.1232 27.2628L41.4161 26.5662C41.2251 26.5943 40.5757 26.6965 40.1947 26.739C36.8098 27.1177 33.4056 27.2926 30 27.2628C23.9882 27.2148 21.7406 27.008 18.584 26.5663C17.9161 27.2811 16.8293 27.9865 16.8858 29.0934L16.8857 35.4652C16.8865 35.7369 16.9406 36.0059 17.0448 36.2565C17.149 36.5072 17.3012 36.7346 17.4929 36.9258C17.6845 37.1169 17.9117 37.2681 18.1615 37.3705C18.4112 37.4729 18.6786 37.5245 18.9482 37.5225C19.8321 37.6089 20.9679 37.7061 22.2429 37.7979C27.0479 38.2016 31.8768 38.2268 36.6857 37.8735C38.1076 37.7806 39.9318 37.6333 41.0518 37.5225C41.4239 37.5159 41.7885 37.4156 42.1125 37.2309C42.4192 37.0519 42.6735 36.7943 42.8495 36.4841C43.0254 36.174 43.1168 35.8224 43.1143 35.4652V29.0934C43.0958 28.7329 42.9971 28.3812 42.8256 28.0643C42.654 27.7474 42.414 27.4735 42.1232 27.2628ZM22.9071 35.5192H19.5804C19.4399 35.5166 19.3061 35.4586 19.2077 35.3576C19.1093 35.2566 19.0542 35.1207 19.0542 34.9792C19.0542 34.8376 19.1093 34.7017 19.2077 34.6007C19.3061 34.4997 19.44 34.4417 19.5804 34.4392H22.9072C23.0481 34.4409 23.1827 34.4986 23.2818 34.5997C23.3808 34.7008 23.4364 34.8371 23.4364 34.9792C23.4364 35.1213 23.3808 35.2576 23.2817 35.3587C23.1827 35.4598 23.0481 35.5174 22.9071 35.5192ZM23.6036 32.4196C23.6025 32.6957 23.4932 32.9601 23.2996 33.1554C23.1059 33.3506 22.8435 33.4607 22.5696 33.4618H19.9179C19.6437 33.4616 19.3808 33.3518 19.1869 33.1564C18.9931 32.961 18.8841 32.696 18.8839 32.4196V31.3397C18.8841 31.0633 18.9931 30.7983 19.1869 30.6029C19.3808 30.4075 19.6437 30.2977 19.9179 30.2975H22.5696C22.8435 30.2986 23.1059 30.4087 23.2996 30.6039C23.4932 30.7992 23.6025 31.0636 23.6036 31.3397V32.4196ZM34.7464 31.6636L34.2964 34.3744C34.2246 34.8172 33.9986 35.2197 33.6589 35.5097C33.3192 35.7997 32.888 35.9581 32.4429 35.9565H27.5571C27.112 35.9581 26.6808 35.7997 26.3411 35.5097C26.0014 35.2197 25.7754 34.8172 25.7036 34.3744L25.2536 31.669C25.2111 31.3979 25.2271 31.1207 25.3005 30.8563C25.3739 30.592 25.5029 30.3467 25.6788 30.1371C25.8547 29.9275 26.0733 29.7586 26.3198 29.6419C26.5663 29.5251 26.8348 29.4632 27.1071 29.4605H32.8929C33.1647 29.4632 33.4328 29.5249 33.6789 29.6413C33.925 29.7577 34.1434 29.9261 34.3192 30.1351C34.4951 30.3441 34.6242 30.5887 34.6979 30.8525C34.7716 31.1163 34.7882 31.3929 34.7464 31.6636ZM40.4196 35.5191H37.0929C36.9522 35.517 36.8179 35.4592 36.7192 35.3582C36.6204 35.2571 36.565 35.121 36.565 34.9791C36.565 34.8373 36.6204 34.7011 36.7192 34.6001C36.8179 34.4991 36.9522 34.4413 37.0929 34.4392H40.4197C40.5604 34.4413 40.6946 34.4991 40.7934 34.6001C40.8922 34.7012 40.9475 34.8373 40.9475 34.9792C40.9475 35.121 40.8921 35.2572 40.7934 35.3582C40.6946 35.4593 40.5604 35.517 40.4196 35.5191ZM41.1161 32.4196C41.1159 32.6959 41.0069 32.9609 40.8131 33.1563C40.6192 33.3518 40.3563 33.4616 40.0821 33.4618H37.4304C37.1565 33.4607 36.8941 33.3506 36.7005 33.1554C36.5068 32.9601 36.3975 32.6957 36.3964 32.4196V31.3397C36.3975 31.0636 36.5068 30.7992 36.7004 30.6039C36.8941 30.4087 37.1565 30.2986 37.4304 30.2975H40.0821C40.3563 30.2977 40.6192 30.4075 40.8131 30.6029C41.0069 30.7983 41.1159 31.0633 41.1161 31.3397V32.4196ZM33.6857 31.4908L33.2411 34.1961C33.2099 34.3866 33.1125 34.5597 32.9662 34.6844C32.8199 34.8091 32.6344 34.8772 32.4429 34.8765H31.7625L31.9982 30.5404H32.8929C33.01 30.5412 33.1256 30.5677 33.2316 30.6179C33.3376 30.6681 33.4315 30.7409 33.5069 30.8312C33.5823 30.9216 33.6373 31.0274 33.6682 31.1413C33.6991 31.2552 33.705 31.3744 33.6857 31.4908ZM29.0732 30.5404H30.9268L30.6857 34.8765H29.3143L29.0732 30.5404ZM28.0018 30.5404L28.2375 34.8765H27.5571C27.3656 34.8772 27.1801 34.8091 27.0338 34.6844C26.8875 34.5597 26.7901 34.3866 26.7589 34.1961L26.3143 31.4908C26.295 31.3744 26.301 31.2551 26.3318 31.1412C26.3627 31.0273 26.4177 30.9215 26.4931 30.8312C26.5685 30.7408 26.6624 30.668 26.7685 30.6178C26.8745 30.5676 26.99 30.5412 27.1071 30.5404H28.0018ZM19.4411 25.5996L20.0143 24.552L20.9464 22.8619C21.4246 21.9943 22.1244 21.2714 22.9731 20.7682C23.8218 20.265 24.7886 19.9998 25.7732 20H34.2268C35.2114 19.9998 36.1782 20.265 37.0269 20.7682C37.8756 21.2715 38.5754 21.9943 39.0536 22.8619L39.9857 24.5575L40.5589 25.5997C40.265 25.6412 39.8621 25.6815 39.4125 25.7401C36.2849 26.0543 33.143 26.2021 30 26.1828C26.857 26.2021 23.7151 26.0543 20.5875 25.7401C20.1379 25.6815 19.7344 25.6412 19.4411 25.5996ZM22.5321 31.3397L22.5696 32.3819L19.9554 32.4196V31.3775L22.5321 31.3397ZM40.05 31.3775L40.0821 32.3819L37.4679 32.4196L37.4304 31.3775L40.05 31.3775ZM45 24.5845V26.0262C44.9982 26.2052 44.9593 26.3818 44.8857 26.5448C44.8122 26.7077 44.7057 26.8533 44.573 26.9723C44.4403 27.0913 44.2844 27.181 44.1153 27.2357C43.9462 27.2904 43.7677 27.3088 43.5911 27.2898C43.3978 26.977 41.8528 25.5386 41.5768 25.2433L40.6821 23.6179C40.9073 23.4273 41.1917 23.3222 41.4857 23.3209H43.7464C44.0788 23.3214 44.3974 23.4546 44.6324 23.6915C44.8674 23.9284 44.9996 24.2495 45 24.5845ZM16.4089 27.2898C16.2323 27.3088 16.0538 27.2904 15.8847 27.2357C15.7156 27.181 15.5597 27.0913 15.427 26.9723C15.2943 26.8533 15.1878 26.7077 15.1143 26.5448C15.0407 26.3818 15.0018 26.2052 15 26.0262V24.5845C15.0004 24.2495 15.1326 23.9283 15.3676 23.6915C15.6026 23.4546 15.9212 23.3213 16.2536 23.3209H18.5143C18.8087 23.3203 19.0936 23.4256 19.3179 23.6179C19.1402 23.9506 18.6431 24.8248 18.4714 25.1731C18.1932 25.5327 16.6328 26.9246 16.4089 27.2898ZM23.3143 38.9859V39.5798C23.3126 39.9569 23.1629 40.318 22.8979 40.5841C22.6329 40.8502 22.2741 40.9997 21.9 41H19.2964C18.9215 41.0009 18.5615 40.8519 18.2954 40.5856C18.0293 40.3194 17.8788 39.9577 17.8768 39.5798V38.4352C19.2545 38.797 20.5724 38.7293 22.1625 38.8995C22.5407 38.9348 22.9315 38.9611 23.3143 38.9859ZM42.1232 38.4351V39.5798C42.1212 39.9577 41.9707 40.3194 41.7046 40.5856C41.4385 40.8519 41.0785 41.0009 40.7036 41H38.1C37.7259 40.9997 37.3671 40.8502 37.1021 40.5841C36.8371 40.318 36.6874 39.9569 36.6857 39.5798V38.9859C38.1325 38.8825 39.875 38.7504 41.1214 38.6295C41.4629 38.6137 41.8003 38.5482 42.1232 38.4351Z" fill="white"/>
</svg>
