<svg width="60" height="60" viewBox="0 0 60 60" fill="none" xmlns="http://www.w3.org/2000/svg">
<circle cx="30" cy="30" r="30" fill="#D57486"/>
<path fill-rule="evenodd" clip-rule="evenodd" d="M20.2441 15H21.3071C22.5465 15 23.5512 16.0047 23.5512 17.2441V22.9134C23.5512 24.1528 22.5465 25.1575 21.3071 25.1575H20.2441C19.0047 25.1575 18 24.1528 18 22.9134V17.2441C18 16.0047 19.0047 15 20.2441 15ZM40.0866 15H39.0236C37.7842 15 36.7795 16.0047 36.7795 17.2441V22.9134C36.7795 24.1528 37.7842 25.1575 39.0236 25.1575H40.0866C41.326 25.1575 42.3307 24.1528 42.3307 22.9134V17.2441C42.3307 16.0047 41.326 15 40.0866 15ZM30.1654 24.3307C29.0441 24.3307 27.948 24.6632 27.0157 25.2862C26.0834 25.9091 25.3567 26.7945 24.9276 27.8305C24.4985 28.8664 24.3862 30.0063 24.605 31.106C24.8238 32.2058 25.3637 33.2159 26.1566 34.0088C26.9494 34.8017 27.9596 35.3416 29.0593 35.5604C30.1591 35.7791 31.299 35.6668 32.3349 35.2377C33.3708 34.8086 34.2563 34.082 34.8792 33.1497C35.5021 32.2174 35.8346 31.1213 35.8346 30C35.8346 28.4964 35.2374 27.0544 34.1742 25.9912C33.111 24.928 31.6689 24.3307 30.1654 24.3307ZM32.0476 30.438L30.5712 32.8002C30.5137 32.8923 30.4386 32.9721 30.3503 33.0352C30.2619 33.0983 30.162 33.1433 30.0562 33.1678C29.9504 33.1922 29.8408 33.1956 29.7338 33.1776C29.6267 33.1597 29.5242 33.1209 29.4321 33.0633C29.34 33.0058 29.2601 32.9307 29.197 32.8423C29.134 32.7539 29.0889 32.6539 29.0645 32.5481C29.04 32.4422 29.0367 32.3326 29.0546 32.2255C29.0725 32.1184 29.1114 32.0159 29.169 31.9238L29.855 30.8268H28.9843C28.8367 30.8267 28.6919 30.7872 28.5647 30.7123C28.4376 30.6374 28.3328 30.5299 28.2613 30.4009C28.1898 30.2718 28.1541 30.126 28.1579 29.9785C28.1618 29.831 28.205 29.6872 28.2832 29.562L29.7595 27.1998C29.8757 27.0139 30.0611 26.8817 30.2747 26.8324C30.4884 26.7831 30.7129 26.8207 30.8988 26.9369C31.0848 27.0531 31.2169 27.2385 31.2662 27.4521C31.3155 27.6658 31.278 27.8903 31.1617 28.0762L30.4758 29.1732H31.3465C31.494 29.1733 31.6389 29.2128 31.766 29.2877C31.8931 29.3626 31.9979 29.4701 32.0694 29.5991C32.1409 29.7282 32.1766 29.874 32.1728 30.0215C32.169 30.169 32.1257 30.3128 32.0476 30.438ZM40.0866 34.8425H39.0236C37.7842 34.8425 36.7795 35.8472 36.7795 37.0866V42.7559C36.7795 43.9953 37.7842 45 39.0236 45H40.0866C41.326 45 42.3307 43.9953 42.3307 42.7559V37.0866C42.3307 35.8472 41.326 34.8425 40.0866 34.8425ZM30.9921 22.7272C30.443 22.6605 29.8877 22.6605 29.3386 22.7272V20.9055H25.2047V19.252H35.126V20.9055H30.9921V22.7272ZM30.9921 37.2728C30.443 37.3395 29.8877 37.3395 29.3386 37.2728V39.0945H25.2047V40.7481H35.126V39.0945H30.9921V37.2728ZM20.2441 34.8425H21.3071C22.5465 34.8425 23.5512 35.8472 23.5512 37.0866V42.7559C23.5512 43.9953 22.5465 45 21.3071 45H20.2441C19.0047 45 18 43.9953 18 42.7559V37.0866C18 35.8472 19.0047 34.8425 20.2441 34.8425Z" fill="white"/>
</svg>
