<svg width="60" height="60" viewBox="0 0 60 60" fill="none" xmlns="http://www.w3.org/2000/svg">
<circle cx="30" cy="30" r="30" fill="#A2D07D"/>
<path d="M44.8169 20.4604L43.0432 18.6837C42.926 18.5659 42.7673 18.5 42.6013 18.5C42.4353 18.5 42.2765 18.5659 42.1593 18.6831L38.3947 22.4514C38.1188 22.7273 37.5646 22.7267 37.2887 22.452C36.4684 21.6287 35.2978 21.1569 34.0771 21.1569C34.0771 21.1569 34.0771 21.1569 34.0758 21.1569C32.9111 21.1569 31.7999 21.5978 30.9869 22.3532L30.4418 21.8081C30.1977 21.564 29.8022 21.564 29.5581 21.8081L28.9941 22.3715C28.0383 21.5573 26.5014 21.6134 25.6079 22.5089L17.7588 30.3573C17.2863 30.8297 17.0264 31.4572 17.0264 32.1249C17.0264 32.7255 17.2363 33.2931 17.6221 33.7441L17.0581 34.3081C16.814 34.5523 16.814 34.9478 17.0581 35.1919L17.6013 35.7351L15.1831 38.1564C14.939 38.4005 14.939 38.796 15.1831 39.0395L16.9568 40.8163C17.074 40.934 17.2327 41 17.3987 41C17.5648 41 17.7234 40.934 17.8406 40.8169L20.2604 38.3941L20.8082 38.9419C20.9302 39.0639 21.0902 39.125 21.2501 39.125C21.41 39.125 21.5699 39.0639 21.692 38.9419L22.256 38.3785C23.2106 39.1921 24.7474 39.1347 25.6422 38.2411L33.4913 30.3926C33.9637 29.9202 34.2237 29.2928 34.2237 28.625C34.2237 28.0245 34.0138 27.4568 33.628 27.0058L34.192 26.4418C34.4361 26.1977 34.4361 25.8022 34.192 25.5581L33.6592 25.0253C33.9577 24.8407 34.3793 24.8594 34.6302 25.1113C35.4505 25.9347 36.6212 26.4071 37.8419 26.4071C39.0626 26.4071 40.2333 25.9347 41.0524 25.1119L44.817 21.3436C45.061 21.0995 45.061 20.704 44.8169 20.4604ZM27.8235 25.5966L23.8855 29.5339C23.7635 29.656 23.6035 29.7171 23.4436 29.7171C23.2837 29.7171 23.1238 29.656 23.0017 29.5339C22.7575 29.2898 22.7575 28.8943 23.0017 28.6502L26.9396 24.7128C27.1838 24.4686 27.5793 24.4686 27.8234 24.7128C28.0676 24.9569 28.0676 25.3524 27.8235 25.5966Z" fill="white"/>
</svg>
