<svg width="60" height="60" viewBox="0 0 60 60" fill="none" xmlns="http://www.w3.org/2000/svg">
<circle cx="29.9995" cy="30" r="30" fill="#87CCE1"/>
<g clip-path="url(#clip0_2702_302)">
<path fill-rule="evenodd" clip-rule="evenodd" d="M31.7889 15.0063C38.551 15.8422 44.1415 21.4468 44.993 28.2087C45.0581 28.7254 44.6307 29.1797 44.11 29.1797H39.5737C39.1519 24.5567 35.4429 20.8477 30.8198 20.4257V15.8895C30.8198 15.3696 31.2728 14.9425 31.7889 15.0063ZM23.7886 30.9375C23.7886 28.0296 26.1541 25.6641 29.062 25.6641C31.97 25.6641 34.3355 28.0296 34.3355 30.9375C34.3355 33.8455 31.97 36.211 29.062 36.211C26.1541 36.211 23.7886 33.8455 23.7886 30.9375ZM25.5464 30.9375C25.5464 32.8764 27.1231 34.4531 29.062 34.4531C31.0009 34.4531 32.5776 32.8764 32.5776 30.9375C32.5776 28.9986 31.0009 27.4219 29.062 27.4219C27.1231 27.4219 25.5464 28.9986 25.5464 30.9375ZM29.062 29.1797C28.093 29.1797 27.3042 29.9685 27.3042 30.9375C27.3042 31.9065 28.093 32.6953 29.062 32.6953C30.031 32.6953 30.8198 31.9065 30.8198 30.9375C30.8198 29.9685 30.031 29.1797 29.062 29.1797ZM37.8511 30.0586C37.8511 30.5444 38.2442 30.9375 38.73 30.9375H43.1245C43.1245 38.704 36.8285 45 29.062 45C21.2955 45 14.9995 38.704 14.9995 30.9375C14.9995 23.171 21.2955 16.875 29.062 16.875V21.2695C29.062 21.7553 29.4551 22.1484 29.9409 22.1484C34.3028 22.1484 37.8511 25.6967 37.8511 30.0586ZM22.8473 23.4797C22.504 23.1365 21.9476 23.1365 21.6043 23.4797C21.261 23.8229 21.261 24.3794 21.6043 24.7228C21.9476 25.066 22.504 25.066 22.8473 24.7228C23.1905 24.3794 23.1905 23.8229 22.8473 23.4797ZM18.5151 30.9375C18.5151 31.4229 18.9087 31.8164 19.394 31.8164C19.8794 31.8164 20.273 31.4229 20.273 30.9375C20.273 30.452 19.8794 30.0586 19.394 30.0586C18.9087 30.0586 18.5151 30.452 18.5151 30.9375ZM21.6043 38.3952C21.9475 38.7385 22.504 38.7385 22.8472 38.3952C23.1905 38.052 23.1905 37.4955 22.8472 37.1523C22.504 36.809 21.9475 36.809 21.6043 37.1523C21.261 37.4955 21.261 38.052 21.6043 38.3952ZM28.1831 40.6055C28.1831 41.0909 28.5766 41.4844 29.062 41.4844C29.5474 41.4844 29.9409 41.0909 29.9409 40.6055C29.9409 40.12 29.5474 39.7266 29.062 39.7266C28.5766 39.7266 28.1831 40.12 28.1831 40.6055ZM22.0308 30.9375C22.0308 34.8145 25.185 37.9688 29.062 37.9688C32.939 37.9688 36.0933 34.8145 36.0933 30.9375C36.0933 27.0605 32.939 23.9063 29.062 23.9063C25.185 23.9063 22.0308 27.0605 22.0308 30.9375ZM35.2768 38.3952C35.62 38.7385 36.1765 38.7385 36.5197 38.3952C36.8631 38.052 36.8631 37.4955 36.5197 37.1523C36.1765 36.809 35.62 36.809 35.2768 37.1523C34.9335 37.4955 34.9335 38.052 35.2768 38.3952Z" fill="white"/>
</g>
<defs>
<clipPath id="clip0_2702_302">
<rect width="30" height="30" fill="white" transform="translate(14.9995 15)"/>
</clipPath>
</defs>
</svg>
