<svg width="60" height="60" viewBox="0 0 60 60" fill="none" xmlns="http://www.w3.org/2000/svg">
<circle cx="30" cy="30" r="30" fill="#9A97E8"/>
<g clip-path="url(#clip0_2703_310)">
<path fill-rule="evenodd" clip-rule="evenodd" d="M17.5424 20C17.5424 18.6195 16.4039 17.5 15 17.5C16.4039 17.5 17.5424 16.3805 17.5424 15C17.5424 16.3805 18.6808 17.5 20.0847 17.5C18.6808 17.5 17.5424 18.6195 17.5424 20ZM15 39C16.4039 39 17.5424 40.1195 17.5424 41.5C17.5424 40.1195 18.6808 39 20.0847 39C18.6808 39 17.5424 37.8805 17.5424 36.5C17.5424 37.8805 16.4039 39 15 39ZM21.1017 42.5C22.5056 42.5 23.6441 43.6195 23.6441 45C23.6441 43.6195 24.7825 42.5 26.1864 42.5C24.7825 42.5 23.6441 41.3805 23.6441 40C23.6441 41.3805 22.5056 42.5 21.1017 42.5ZM41.4407 36.5C41.4407 36.2245 41.2129 36 40.9322 36C40.6515 36 40.4237 36.2245 40.4237 36.5V38H39.4068V36.5V34.5C39.4068 34.2245 39.179 34 38.8983 34C38.6176 34 38.3898 34.2245 38.3898 34.5V35.5V38H37.3729V35.5V34.5V33.5C37.3729 33.2245 37.1451 33 36.8644 33C36.5837 33 36.3559 33.2245 36.3559 33.5V34.5V35.5V38H35.339V35.5V34.5C35.339 34.2245 35.1112 34 34.8305 34C34.5498 34 34.322 34.2245 34.322 34.5V39.5V41H33.3051V39.5C33.3051 39.2245 33.0773 39 32.7966 39C32.5159 39 32.2881 39.2245 32.2881 39.5V41.2325L35.1127 43.084C35.2541 43.177 35.339 43.333 35.339 43.5V44.5H40.4237V43C40.4237 42.8675 40.4771 42.74 40.5727 42.6465L41.4407 41.793V36.5ZM45 30.8025C45 31.1595 44.8937 31.5055 44.6924 31.8025L44.3207 32.3505C43.4344 33.6575 42.9661 35.1785 42.9661 36.75C42.9661 38.3215 43.4344 39.8425 44.3212 41.1495L44.6924 41.6975C44.8937 41.9945 45 42.3405 45 42.6975C45 43.6915 44.1778 44.5 43.167 44.4995C42.8039 44.4995 42.4525 44.395 42.15 44.197L41.8042 43.9705C41.7165 43.9131 41.6259 43.8606 41.5355 43.8082C41.5038 43.7899 41.4722 43.7715 41.4407 43.753V43.207L42.3086 42.3535C42.4042 42.26 42.4576 42.1325 42.4576 42V36.5C42.4576 35.673 41.7732 35 40.9322 35C40.7532 35 40.5834 35.036 40.4237 35.092V34.5C40.4237 33.673 39.7393 33 38.8983 33C38.6975 33 38.5068 33.0405 38.3308 33.11C38.1554 32.4725 37.5676 32 36.8644 32C36.1612 32 35.5739 32.4725 35.398 33.11C35.222 33.0405 35.0314 33 34.8305 33C33.9895 33 33.3051 33.673 33.3051 34.5V38.092C33.1454 38.036 32.9756 38 32.7966 38C31.9556 38 31.2712 38.673 31.2712 39.5V41.5C31.2712 41.667 31.3561 41.823 31.4975 41.9165L33.4312 43.184C32.9064 43.4 32.4005 43.659 31.9246 43.971L31.5788 44.1975C31.2763 44.3955 30.9249 44.5 30.5619 44.5C29.551 44.5 28.7288 43.6915 28.7293 42.6975C28.7293 42.3405 28.8356 41.9945 29.0369 41.6975L29.4081 41.1495C30.2944 39.8425 30.7627 38.3215 30.7627 36.75C30.7627 35.1785 30.2944 33.6575 29.4076 32.3505L29.0364 31.8025C28.8351 31.5055 28.7288 31.1595 28.7288 30.8025C28.7288 29.8085 29.551 29 30.5619 29.0005C30.9249 29.0005 31.2763 29.105 31.5788 29.303L31.9246 29.5295C33.3925 30.4915 35.1005 31 36.8644 31C38.6283 31 40.3363 30.4915 41.8042 29.529L42.15 29.3025C42.4525 29.1045 42.8039 29 43.167 29C44.1778 29 45 29.8085 45 30.8025ZM22.1186 28.5C20.1564 28.5 18.5593 30.07 18.5593 32C18.5593 33.93 20.1564 35.5 22.1186 35.5C24.0808 35.5 25.678 33.93 25.678 32C25.678 30.07 24.0808 28.5 22.1186 28.5ZM22.1186 34.5C20.7168 34.5 19.5763 33.3785 19.5763 32C19.5763 30.6215 20.7168 29.5 22.1186 29.5C23.5205 29.5 24.661 30.6215 24.661 32C24.661 33.3785 23.5205 34.5 22.1186 34.5ZM23.6441 32C23.6441 32.8284 22.9611 33.5 22.1186 33.5C21.2762 33.5 20.5932 32.8284 20.5932 32C20.5932 31.1716 21.2762 30.5 22.1186 30.5C22.9611 30.5 23.6441 31.1716 23.6441 32ZM16.5254 25.5916L15.5085 25.8771V27.5001H16.5254V25.5916ZM26.0792 23L29.0746 18.214C29.3543 17.767 29.8404 17.5 30.3738 17.5H33.3051V23H26.0792ZM44.4915 24C44.2856 24 44.0995 23.8775 44.0212 23.6905L41.4992 17.6675C40.948 16.351 39.6559 15.5 38.2083 15.5H29.9253C28.7125 15.5 27.5954 16.0975 26.9369 17.0985L22.5458 23.7715C22.4786 23.873 22.3769 23.9475 22.2585 23.9805L17.5424 25.3055V28C17.5424 28.276 17.3151 28.5 17.0339 28.5H15.5085V31.5H17.5724C17.8261 29.2535 19.7669 27.5 22.1186 27.5C24.4703 27.5 26.4112 29.2535 26.6649 31.5H27.8075C27.7485 31.2735 27.7119 31.0405 27.7119 30.8025C27.7119 29.2575 28.9907 28 30.5619 28C31.1263 28 31.6734 28.163 32.1427 28.4705L32.4885 28.697C33.7886 29.5495 35.3019 30 36.8644 30C38.427 30 39.9402 29.5495 41.2398 28.6975L41.5856 28.471C42.0554 28.163 42.602 28 43.167 28C43.8651 28 44.5042 28.249 45 28.66V24H44.4915ZM34.322 26H32.2881V25H34.322V26ZM25.1695 24C24.9854 24 24.8156 23.902 24.7256 23.744C24.6356 23.586 24.6397 23.3925 24.7363 23.238L28.2086 17.69C28.6754 16.945 29.4844 16.5 30.3737 16.5H38.01C39.0539 16.5 40.0078 17.144 40.3831 18.1025L42.4241 23.3205C42.4841 23.4745 42.4632 23.647 42.3686 23.783C42.2736 23.919 42.1164 24 41.9492 24H25.1695ZM42.4576 26H40.4237V25H42.4576V26ZM34.322 17.5H38.01C38.6359 17.5 39.2085 17.8865 39.4337 18.4615L41.2088 23H34.322V17.5Z" fill="white"/>
</g>
<defs>
<clipPath id="clip0_2703_310">
<rect width="30" height="30" fill="white" transform="translate(15 15)"/>
</clipPath>
</defs>
</svg>
