<svg width="60" height="60" viewBox="0 0 60 60" fill="none" xmlns="http://www.w3.org/2000/svg">
<circle cx="29.9995" cy="30" r="30" fill="#8FBE8A"/>
<g clip-path="url(#clip0_2703_304)">
<path fill-rule="evenodd" clip-rule="evenodd" d="M41.3785 15H43.4475C44.0188 15 44.482 15.4632 44.482 16.0345V20.1724C44.482 20.7437 44.0188 21.2069 43.4475 21.2069H41.3785C40.8072 21.2069 40.344 20.7437 40.344 20.1724V16.0345C40.344 15.4632 40.8072 15 41.3785 15ZM41.8964 22.2414H42.9309V23.2759H41.8964V22.2414ZM44.9993 26.3793V25.8621C44.9993 25.4505 44.8358 25.0558 44.5448 24.7648C44.2538 24.4738 43.8591 24.3104 43.4475 24.3104H41.3786C40.967 24.3104 40.5723 24.4738 40.2813 24.7648C39.9903 25.0558 39.8268 25.4505 39.8268 25.8621V27.3564C40.7817 26.7164 41.906 26.3762 43.0555 26.3793H44.9993ZM30.3023 41.8966L32.2198 43.814C32.3167 43.911 32.4483 43.9655 32.5855 43.9655H43.2727C43.0672 44.2813 42.7866 44.541 42.456 44.7216C42.1255 44.9021 41.7552 44.9978 41.3786 45H28.9648C28.6214 45.0003 28.2866 44.8923 28.0081 44.6915C27.7295 44.4906 27.5213 44.2071 27.413 43.8812L26.7515 41.8966H30.3023ZM39.6916 28.7995L38.9369 29.7414C38.1746 30.6962 37.759 31.8816 37.7581 33.1034V39.3103H40.8616C41.4423 39.3107 42.0143 39.451 42.5294 39.7192C43.0445 39.9874 43.4874 40.3757 43.8207 40.8512L44.954 27.4138H43.0557C42.4314 27.4123 41.8129 27.5339 41.2357 27.7717C40.6584 28.0094 40.1337 28.3587 39.6916 28.7995ZM34.1378 40.3448H40.862C41.5476 40.3456 42.205 40.6183 42.6898 41.1032C43.1746 41.588 43.4474 42.2453 43.4482 42.931H32.8002L30.8828 41.0136C30.7859 40.9166 30.6543 40.8621 30.5171 40.862H26.419C26.3939 40.7589 26.3806 40.6532 26.3792 40.547C26.3797 40.1702 26.5293 39.8089 26.7951 39.5418C27.061 39.2748 27.4217 39.1237 27.7985 39.1215C27.8678 39.1216 27.937 39.127 28.0054 39.1375L34.0375 40.335C34.0705 40.3416 34.1041 40.3449 34.1378 40.3448ZM30.7072 34.3567L30.5169 33.7862L30.3265 34.3552C30.2316 34.6412 30.049 34.8901 29.8046 35.0665C29.5602 35.2429 29.2665 35.3379 28.9651 35.3379C29.2665 35.338 29.5602 35.433 29.8046 35.6094C30.049 35.7858 30.2316 36.0347 30.3265 36.3207L30.5169 36.8897L30.7072 36.3207C30.8022 36.0347 30.9848 35.7858 31.2291 35.6094C31.4735 35.433 31.7672 35.338 32.0686 35.3379C31.7674 35.338 31.4738 35.2432 31.2295 35.0671C30.9852 34.891 30.8024 34.6425 30.7072 34.3567ZM22.2411 21.7242L22.1005 21.1614C21.993 20.7313 21.7449 20.3494 21.3955 20.0765C21.0461 19.8035 20.6155 19.6553 20.1722 19.6552C20.6155 19.6551 21.0461 19.5069 21.3955 19.2339C21.7449 18.961 21.993 18.5791 22.1005 18.149L22.2411 17.5862L22.3813 18.149C22.4887 18.5792 22.7369 18.9612 23.0864 19.2341C23.4359 19.507 23.8667 19.6553 24.3101 19.6552C23.8668 19.6553 23.4361 19.8035 23.0868 20.0765C22.7374 20.3494 22.4892 20.7313 22.3818 21.1614L22.2411 21.7242ZM29.6373 22.0862L30.0868 22.6712L31.2924 21.4655L32.5856 22.7586L35.689 19.6552L34.3959 18.3621L34.6545 18.1034L32.5856 16.0345L30.7752 17.8448L29.4821 16.5517L26.12 19.9138C26.2899 20.0836 26.4246 20.2852 26.5165 20.507C26.6085 20.7289 26.6558 20.9667 26.6558 21.2069C26.6558 21.447 26.6085 21.6849 26.5165 21.9067C26.4246 22.1286 26.2899 22.3302 26.12 22.5L22.2407 26.3793L22.7093 26.8479L22.6576 26.911C21.7111 28.2064 21.2026 29.77 21.2062 31.3743V33.1034C21.2062 33.2406 21.1517 33.3722 21.0547 33.4692C20.9577 33.5662 20.8262 33.6207 20.689 33.6207C20.5518 33.6207 20.4203 33.5662 20.3233 33.4692C20.2263 33.3722 20.1718 33.2406 20.1718 33.1034V26.3793C20.1718 25.9678 20.0083 25.5731 19.7173 25.2821C19.4263 24.9911 19.0316 24.8276 18.62 24.8276C18.2085 24.8276 17.8138 24.9911 17.5228 25.2821C17.2318 25.5731 17.0683 25.9678 17.0683 26.3793V36.7241H16.5511V37.7586H18.62V36.7241H18.1028V26.3793C18.1028 26.2421 18.1573 26.1106 18.2543 26.0136C18.3513 25.9166 18.4829 25.8621 18.62 25.8621C18.7572 25.8621 18.8888 25.9166 18.9858 26.0136C19.0828 26.1106 19.1373 26.2421 19.1373 26.3793V33.1034C19.1373 33.515 19.3008 33.9097 19.5918 34.2007C19.8828 34.4917 20.2775 34.6552 20.689 34.6552C21.1005 34.6552 21.4952 34.4917 21.7862 34.2007C22.0772 33.9097 22.2407 33.515 22.2407 33.1034V31.3743C22.2376 30.0167 22.6599 28.6922 23.4485 27.5871L23.7924 27.931L29.6373 22.0862ZM23.2384 42.4138H22.6695C22.2735 42.4138 21.8814 42.3358 21.5155 42.1842C21.1497 42.0326 20.8173 41.8104 20.5374 41.5303C20.2574 41.2502 20.0354 40.9177 19.884 40.5518C19.7326 40.1859 19.6548 39.7938 19.655 39.3978V38.8288C20.565 38.9452 21.4106 39.3603 22.0591 40.0092C22.7077 40.658 23.1225 41.5038 23.2384 42.4138ZM19.8062 42.2622C19.429 41.8871 19.13 41.4408 18.9264 40.9493C18.7228 40.4578 18.6187 39.9308 18.6202 39.3988V38.7931H16.034C15.7596 38.7931 15.4965 38.9021 15.3025 39.0961C15.1085 39.2901 14.9995 39.5532 14.9995 39.8275V45H15.8043C15.6182 44.6869 15.5189 44.3298 15.5168 43.9655C15.5168 43.4168 15.7347 42.8905 16.1227 42.5025C16.5107 42.1145 17.037 41.8965 17.5857 41.8965C18.1344 41.8965 18.6607 42.1145 19.0487 42.5025C19.4367 42.8905 19.6547 43.4168 19.6547 43.9655C19.6525 44.3298 19.5533 44.6869 19.3671 45H22.7581C22.8953 45 23.0269 44.9455 23.1239 44.8485C23.2209 44.7515 23.2754 44.6199 23.2754 44.4827V43.4482H22.6692C22.1372 43.4498 21.6103 43.3458 21.1188 43.1422C20.6274 42.9386 20.1812 42.6395 19.8062 42.2622ZM18.62 43.9655C18.62 44.5369 18.1569 45 17.5856 45C17.0142 45 16.5511 44.5369 16.5511 43.9655C16.5511 43.3942 17.0142 42.9311 17.5856 42.9311C18.1569 42.9311 18.62 43.3942 18.62 43.9655Z" fill="white"/>
</g>
<defs>
<clipPath id="clip0_2703_304">
<rect width="30" height="30" fill="white" transform="translate(14.9995 15)"/>
</clipPath>
</defs>
</svg>
