<svg width="60" height="60" viewBox="0 0 60 60" fill="none" xmlns="http://www.w3.org/2000/svg">
<circle cx="30" cy="30" r="30" fill="#768B87"/>
<g clip-path="url(#clip0_2703_313)">
<path fill-rule="evenodd" clip-rule="evenodd" d="M42.1169 15.4722L44.5275 17.8828C44.8298 18.186 44.9995 18.5968 44.9993 19.025C44.9991 19.4532 44.829 19.8638 44.5263 20.1668L43.2373 21.4558L38.5427 16.7613L39.8318 15.4722C40.1349 15.1694 40.5459 14.9993 40.9744 14.9993C41.4029 14.9993 41.8138 15.1694 42.1169 15.4722ZM16.3314 37.2287C15.6946 37.8655 15.261 38.6768 15.0853 39.5601C14.9096 40.4433 14.9998 41.3589 15.3444 42.1909C15.6891 43.0229 16.2727 43.734 17.0214 44.2343C17.7702 44.7346 18.6506 45.0017 19.5511 45.0017C20.4517 45.0017 21.332 44.7346 22.0808 44.2343C22.8296 43.734 23.4132 43.0229 23.7578 42.1909C24.1025 41.3589 24.1926 40.4433 24.017 39.5601C23.8413 38.6768 23.4076 37.8655 22.7709 37.2287C21.9164 36.3758 20.7584 35.8967 19.5511 35.8967C18.3438 35.8967 17.1858 36.3758 16.3314 37.2287ZM21.1085 42.0059C20.8005 42.3139 20.4081 42.5237 19.9808 42.6087C19.5536 42.6936 19.1107 42.65 18.7082 42.4833C18.3058 42.3166 17.9618 42.0343 17.7198 41.6721C17.4777 41.3099 17.3486 40.8841 17.3486 40.4484C17.3486 40.0128 17.4777 39.587 17.7198 39.2248C17.9618 38.8626 18.3058 38.5803 18.7082 38.4136C19.1107 38.2469 19.5536 38.2032 19.9808 38.2882C20.4081 38.3732 20.8005 38.583 21.1085 38.891C21.521 39.3044 21.7527 39.8645 21.7527 40.4484C21.7527 41.0324 21.521 41.5925 21.1085 42.0059ZM19.5509 41.772C20.2819 41.772 20.8746 41.1794 20.8746 40.4484C20.8746 39.7174 20.2819 39.1248 19.5509 39.1248C18.8199 39.1248 18.2273 39.7174 18.2273 40.4484C18.2273 41.1794 18.8199 41.772 19.5509 41.772ZM33.1021 22.9518L31.6455 24.4084L30.708 23.4709C30.5579 23.3209 30.3798 23.2019 30.1837 23.1207C29.9877 23.0394 29.7776 22.9977 29.5654 22.9977C29.3532 22.9977 29.1431 23.0394 28.947 23.1207C28.751 23.2019 28.5728 23.3209 28.4228 23.4709C28.2728 23.621 28.1537 23.7991 28.0725 23.9951C27.9913 24.1912 27.9495 24.4013 27.9495 24.6135C27.9495 24.8257 27.9913 25.0358 28.0725 25.2319C28.1537 25.4279 28.2728 25.606 28.4228 25.7561L29.3603 26.6936L28.3197 27.7342L27.3822 26.7967C27.2321 26.6467 27.054 26.5276 26.858 26.4464C26.6619 26.3652 26.4518 26.3234 26.2396 26.3234C26.0274 26.3234 25.8173 26.3652 25.6212 26.4464C25.4252 26.5276 25.2471 26.6467 25.097 26.7967C24.947 26.9467 24.828 27.1249 24.7467 27.3209C24.6655 27.517 24.6237 27.7271 24.6237 27.9393C24.6237 28.1515 24.6655 28.3616 24.7467 28.5576C24.828 28.7537 24.947 28.9318 25.097 29.0819L26.0345 30.0194L24.9933 31.0606L24.0558 30.1231C23.7528 29.82 23.3418 29.6498 22.9132 29.6498C22.4847 29.6498 22.0737 29.82 21.7707 30.1231C21.4676 30.4261 21.2974 30.8371 21.2974 31.2656C21.2974 31.4778 21.3392 31.688 21.4204 31.884C21.5016 32.0801 21.6206 32.2582 21.7707 32.4082L22.7082 33.3457L20.8689 35.185C21.8227 35.423 22.6939 35.916 23.389 36.6112C24.0842 37.3063 24.5771 38.1774 24.8152 39.1313L26.6603 37.2879L27.5978 38.2254C27.7478 38.3755 27.926 38.4945 28.122 38.5757C28.3181 38.6569 28.5282 38.6987 28.7404 38.6987C28.9526 38.6987 29.1627 38.6569 29.3587 38.5757C29.5548 38.4945 29.7329 38.3755 29.883 38.2254C30.033 38.0754 30.152 37.8972 30.2332 37.7012C30.3144 37.5051 30.3562 37.295 30.3562 37.0828C30.3562 36.8706 30.3144 36.6605 30.2332 36.4645C30.152 36.2684 30.033 36.0903 29.883 35.9403L28.9455 35.0028L29.9867 33.9615L30.9242 34.899C31.2272 35.2021 31.6382 35.3723 32.0667 35.3723C32.4953 35.3723 32.9063 35.2021 33.2093 34.899C33.5124 34.596 33.6826 34.185 33.6826 33.7565C33.6826 33.3279 33.5124 32.9169 33.2093 32.6139L32.2718 31.6764L33.3125 30.6358L34.25 31.5733C34.553 31.8763 34.964 32.0465 35.3925 32.0465C35.8211 32.0465 36.2321 31.8763 36.5351 31.5733C36.8381 31.2702 37.0084 30.8592 37.0084 30.4307C37.0084 30.0021 36.8381 29.5911 36.5351 29.2881L35.5976 28.3506L37.0542 26.894L33.1021 22.9518ZM36.2158 16.3499C36.6443 16.3499 37.0552 16.52 37.3584 16.8228L43.1785 22.6394C43.4813 22.9425 43.6514 23.3535 43.6514 23.782C43.6514 24.2105 43.4813 24.6214 43.1785 24.9246L40.2693 27.8338C40.0889 28.0147 39.868 28.1499 39.6248 28.2281L31.7732 20.3765C31.8514 20.1333 31.9866 19.9123 32.1675 19.732L35.0732 16.8228C35.3763 16.52 35.7873 16.3499 36.2158 16.3499Z" fill="white"/>
</g>
<defs>
<clipPath id="clip0_2703_313">
<rect width="30" height="30" fill="white" transform="translate(15 15)"/>
</clipPath>
</defs>
</svg>
