<svg width="60" height="60" viewBox="0 0 60 60" fill="none" xmlns="http://www.w3.org/2000/svg">
<circle cx="30" cy="30" r="30" fill="#7E8ECA"/>
<g clip-path="url(#clip0_2703_305)">
<path fill-rule="evenodd" clip-rule="evenodd" d="M15.8983 44.3201L44.3197 15.8988C44.5254 15.6933 44.5255 15.36 44.3199 15.1543C44.1144 14.9487 43.7811 14.9485 43.5754 15.1541L15.1541 43.5754C14.9486 43.7809 14.9486 44.1141 15.1541 44.3196C15.3624 44.5183 15.6899 44.5185 15.8983 44.3201ZM25.0966 32.145L32.145 25.0965C31.2035 24.0271 29.8461 23.4164 28.4213 23.4212C25.6612 23.4244 23.4244 25.6612 23.4213 28.4213C23.4164 29.846 24.0271 31.2035 25.0966 32.145ZM28.7117 19.8448H28.6917C28.4117 19.8552 28.1727 19.6444 28.148 19.3653L27.8322 15.5732C27.82 15.4263 27.87 15.2808 27.9701 15.1725C28.0701 15.0641 28.211 15.0027 28.3585 15.0032H29.0085C29.156 15.0027 29.2969 15.0642 29.397 15.1725C29.4971 15.2808 29.547 15.4262 29.5348 15.5732L29.219 19.3627C29.1968 19.6289 28.9786 19.8361 28.7117 19.8448ZM15.57 29.5349L19.3447 29.2191C19.6182 29.1964 19.8283 28.9672 19.8274 28.6929V28.6402C19.8282 28.3647 19.6163 28.1352 19.3416 28.114L15.5663 27.8256C15.4199 27.8144 15.2756 27.8649 15.168 27.9648C15.0605 28.0648 14.9995 28.2051 15 28.3519V29.0077C14.9992 29.1553 15.0605 29.2966 15.1689 29.3969C15.2773 29.4971 15.4228 29.5472 15.57 29.5349ZM24.2705 21.0253C24.0325 21.1732 23.7204 21.1086 23.5605 20.8785L21.393 17.7522C21.3092 17.6312 21.2798 17.4807 21.312 17.3371C21.3442 17.1935 21.435 17.0699 21.5625 16.9964L22.1267 16.6706C22.2539 16.5978 22.4057 16.5814 22.5456 16.6252C22.6855 16.669 22.8007 16.7692 22.8636 16.9016L24.4857 20.3432C24.5997 20.585 24.5144 20.8738 24.2873 21.0148L24.2705 21.0253ZM20.9931 33.0765C20.8553 32.8382 20.557 32.7464 20.3089 32.866L16.8947 34.5028C16.7629 34.5663 16.6634 34.6818 16.6202 34.8216C16.5769 34.9614 16.5939 35.1129 16.6669 35.2397L16.9948 35.8076C17.0683 35.9351 17.1919 36.0259 17.3355 36.0581C17.4791 36.0904 17.6296 36.061 17.7506 35.9771L20.8626 33.8192C21.0872 33.663 21.1547 33.3608 21.0179 33.1239L20.9931 33.0765ZM34.8238 16.6238C34.9644 16.5799 35.1168 16.5969 35.2443 16.6706L35.8083 16.9963C35.9359 17.0698 36.0267 17.1934 36.0589 17.337C36.0911 17.4806 36.0617 17.6312 35.9779 17.7521L33.8084 20.8779C33.656 21.0973 33.3634 21.1677 33.1279 21.0416L33.11 21.0321C32.8631 20.8998 32.7631 20.5971 32.8827 20.3437L34.5048 16.9016C34.5676 16.7685 34.6833 16.6677 34.8238 16.6238ZM20.8763 23.5223L17.7516 21.3849C17.6306 21.3021 17.4805 21.2736 17.3375 21.3061C17.1945 21.3387 17.0717 21.4294 16.9984 21.5565L16.6705 22.1244C16.5978 22.2516 16.5813 22.4034 16.6251 22.5433C16.6689 22.6831 16.7691 22.7984 16.9016 22.8613L20.3284 24.476C20.5754 24.593 20.8708 24.5015 21.0084 24.2655L21.0347 24.2197C21.1722 23.9815 21.1032 23.6776 20.8763 23.5223ZM40.7318 27.3581L43.6582 26.5739C44.0258 26.4751 44.4181 26.58 44.6875 26.8492C44.9568 27.1182 45.0621 27.5104 44.9638 27.8781C44.8655 28.2458 44.5785 28.5332 44.2109 28.6319L41.2846 29.4161L43.8214 30.6635C44.3142 30.9047 44.5435 31.4804 44.3518 31.9944C44.1601 32.5085 43.6097 32.7933 43.0793 32.6529C43.0116 32.6362 42.9463 32.6114 42.8845 32.5792L38.1529 30.2529L33.1108 31.6055L36.8003 35.2951L42.0635 35.6477C42.6451 35.6952 43.0803 36.2016 43.0399 36.7836C42.9996 37.3657 42.4987 37.8072 41.9161 37.774L39.0951 37.5845L41.2372 39.7267C41.6543 40.1438 41.6543 40.8201 41.2372 41.2372C40.8201 41.6544 40.1438 41.6544 39.7266 41.2372L37.5845 39.0951L37.774 41.9162C37.8072 42.4987 37.3657 42.9996 36.7836 43.0399C36.2015 43.0803 35.6952 42.6451 35.6477 42.0635L35.295 36.8003L31.6055 33.1108L30.2529 38.1529L32.5792 42.8845C32.8377 43.4122 32.6213 44.0496 32.095 44.3108C31.864 44.4292 31.5962 44.4537 31.3476 44.3793C31.0484 44.3033 30.798 44.0992 30.6634 43.8214L29.416 41.2846L28.6318 44.2109C28.5331 44.5785 28.2458 44.8655 27.8781 44.9638C27.5103 45.0621 27.1181 44.9568 26.8491 44.6875C26.5801 44.4182 26.4752 44.0258 26.5739 43.6582L27.3581 40.7319L25.0055 42.3056C24.7502 42.4763 24.4343 42.5299 24.137 42.453C23.7308 42.3476 23.4245 42.0131 23.3552 41.5992C23.2858 41.1853 23.4663 40.7693 23.8159 40.5372L28.1949 37.6003L29.6949 32.0108L32.016 29.6897L37.6003 28.1949L40.5372 23.816C40.7464 23.4924 41.114 23.307 41.4987 23.3311C41.8832 23.3552 42.2249 23.585 42.3922 23.9321C42.5595 24.2792 42.5263 24.6896 42.3056 25.0054L40.7318 27.3581Z" fill="white"/>
</g>
<defs>
<clipPath id="clip0_2703_305">
<rect width="30" height="30" fill="white" transform="translate(15 15)"/>
</clipPath>
</defs>
</svg>
