<svg width="60" height="60" viewBox="0 0 60 60" fill="none" xmlns="http://www.w3.org/2000/svg">
<circle cx="29.9998" cy="30" r="30" fill="#4C69B1"/>
<g clip-path="url(#clip0_2703_316)">
<path fill-rule="evenodd" clip-rule="evenodd" d="M35.1316 23.7864C37.3756 20.0097 34.4262 14.9125 29.9991 15.0004C24.9254 14.9649 22.2122 21.16 25.6382 24.8581C28.1767 27.8099 33.3164 27.2359 35.1316 23.7864ZM29.8599 16.8754C30.0738 16.8786 30.278 16.9657 30.4281 17.1181C30.5783 17.2705 30.6625 17.4758 30.6625 17.6898C30.6625 17.9037 30.5783 18.1091 30.4281 18.2615C30.2779 18.4138 30.0738 18.501 29.8599 18.5041C29.646 18.501 29.4419 18.4138 29.2917 18.2614C29.1415 18.1091 29.0573 17.9037 29.0573 17.6898C29.0573 17.4758 29.1415 17.2704 29.2917 17.1181C29.4419 16.9657 29.646 16.8785 29.8599 16.8754ZM29.1635 20.3953C29.0228 20.3932 28.8886 20.3358 28.7899 20.2355C28.6911 20.1353 28.6358 20.0002 28.6358 19.8595C28.6358 19.7188 28.6911 19.5838 28.7899 19.4835C28.8886 19.3833 29.0228 19.3259 29.1635 19.3238H29.9992C30.1412 19.3242 30.2772 19.3808 30.3776 19.4812C30.478 19.5816 30.5346 19.7176 30.535 19.8596V23.8402C30.9362 23.8037 31.3519 23.8953 31.3708 24.3759C31.371 24.4463 31.3573 24.5161 31.3305 24.5812C31.3036 24.6463 31.2642 24.7055 31.2144 24.7553C31.1646 24.8051 31.1054 24.8446 31.0403 24.8714C30.9752 24.8982 30.9054 24.9119 30.835 24.9117H29.1635C29.093 24.9119 29.0233 24.8982 28.9581 24.8714C28.893 24.8445 28.8339 24.8051 28.7841 24.7553C28.7343 24.7055 28.6948 24.6463 28.668 24.5812C28.6412 24.5161 28.6275 24.4463 28.6277 24.3759C28.6485 23.8927 29.0607 23.8051 29.4635 23.8402V20.3953H29.1635ZM40.5321 34.7196C40.3301 34.9311 40.1373 35.133 39.9523 35.3036C39.8785 35.3792 39.8285 35.4748 39.8086 35.5785C39.7886 35.6823 39.7996 35.7896 39.8401 35.8872C39.8806 35.9847 39.9489 36.0683 40.0364 36.1274C40.124 36.1865 40.227 36.2186 40.3326 36.2197H44.9987V40.3339C44.9982 40.6095 44.8897 40.8739 44.6963 41.0702C44.503 41.2666 44.2403 41.3792 43.9648 41.3839H36.7327V40.0768C36.7328 39.8706 36.6924 39.6664 36.6135 39.4759C36.5347 39.2854 36.4191 39.1123 36.2733 38.9665C36.1275 38.8207 35.9544 38.7051 35.7639 38.6263C35.5734 38.5475 35.3692 38.507 35.1631 38.5072H24.8346C24.6284 38.507 24.4242 38.5475 24.2337 38.6263C24.0432 38.7051 23.8701 38.8207 23.7243 38.9665C23.5786 39.1123 23.4629 39.2854 23.3841 39.4759C23.3053 39.6664 23.2648 39.8706 23.265 40.0768V41.3839H16.0329C15.7574 41.3792 15.4947 41.2666 15.3014 41.0702C15.108 40.8739 14.9995 40.6095 14.999 40.3339V36.2197L19.665 36.2196C19.7707 36.2185 19.8736 36.1865 19.9612 36.1274C20.0488 36.0683 20.117 35.9847 20.1575 35.8872C20.1981 35.7896 20.209 35.6823 20.1891 35.5786C20.1691 35.4748 20.1192 35.3792 20.0454 35.3037C19.8568 35.1299 19.6613 34.9253 19.4573 34.7116L19.4573 34.7116C18.7009 33.9197 17.8266 33.0042 16.7454 33.0804C16.746 33.0768 16.5091 33.0784 16.2096 33.0805C15.6907 33.084 14.9839 33.0889 14.999 33.0697C15.003 32.5703 15.1261 32.0791 15.3582 31.6368C15.5902 31.1946 15.9244 30.8141 16.3331 30.527C16.7417 30.2399 17.213 30.0545 17.7077 29.9861C18.2024 29.9178 18.7063 29.9685 19.1775 30.134L20.1686 30.5412L23.0721 31.7144C23.6223 31.9357 24.2095 32.0502 24.8025 32.0519H35.1952C36.0998 32.1099 37.5309 31.4991 38.6897 31.0046L38.6897 31.0046C39.1209 30.8205 39.5144 30.6526 39.829 30.5412L40.8255 30.1394C41.2968 29.9695 41.8021 29.9157 42.2986 29.9825C42.7951 30.0494 43.2681 30.235 43.6776 30.5236C44.0871 30.8122 44.421 31.1953 44.651 31.6404C44.881 32.0855 45.0002 32.5794 44.9987 33.0804L43.2523 33.0805C42.1732 33.0014 41.2885 33.9276 40.5321 34.7196ZM25.8685 36.2197H34.1292C34.2694 36.217 34.403 36.1593 34.5013 36.0591C34.5995 35.959 34.6545 35.8243 34.6545 35.684C34.6545 35.5437 34.5995 35.409 34.5013 35.3088C34.403 35.2087 34.2694 35.151 34.1292 35.1483H25.8685C25.7281 35.1508 25.5944 35.2084 25.496 35.3086C25.3976 35.4087 25.3425 35.5436 25.3425 35.684C25.3425 35.8244 25.3976 35.9592 25.496 36.0594C25.5943 36.1596 25.7281 36.2171 25.8685 36.2197ZM16.7453 34.1519C17.1511 34.1542 17.5398 34.3158 17.8275 34.602L18.374 35.1484H14.9988V34.1519H16.7453ZM35.1638 39.5786H24.8347C24.7027 39.5792 24.5764 39.632 24.4831 39.7253C24.3898 39.8186 24.3371 39.9449 24.3364 40.0769V41.3841H35.6621V40.0768C35.6614 39.9449 35.6087 39.8185 35.5154 39.7252C35.4221 39.6319 35.2958 39.5792 35.1638 39.5786ZM16.4941 44.543C16.1997 44.2496 16.0339 43.8514 16.0331 43.4358V42.4554H21.2352V43.4358C21.2344 43.8514 21.0686 44.2496 20.7742 44.543C20.4799 44.8364 20.081 45.0008 19.6655 45.0002H17.6028C17.1872 45.0008 16.7884 44.8364 16.4941 44.543ZM39.2239 44.543C38.9296 44.2496 38.7638 43.8514 38.763 43.4358V42.4554H43.9651V43.4358C43.9643 43.8514 43.7985 44.2496 43.5041 44.543C43.2098 44.8364 42.8109 45.0008 42.3954 45.0002H40.3327C39.9171 45.0008 39.5183 44.8364 39.2239 44.543ZM42.1702 34.602L41.6237 35.1484H44.9989V34.1519H43.2524C42.8466 34.1542 42.4579 34.3158 42.1702 34.602ZM36.5399 30.718C36.1118 30.8878 35.6559 30.9768 35.1953 30.9806C34.9555 30.9521 33.7888 30.9646 32.2774 30.9809C28.8824 31.0173 23.7482 31.0725 23.474 30.7233C23.1385 30.5887 22.2945 30.2462 21.4715 29.9123C20.6913 29.5957 19.9299 29.2868 19.6383 29.1698L21.299 25.7091C21.5396 25.2445 21.8818 24.84 22.3 24.5256C22.7182 24.2112 23.2019 23.995 23.7151 23.893C24.2819 25.0798 25.1731 26.0819 26.2856 26.7834C27.398 27.485 28.6864 27.8573 30.0016 27.8573C31.3168 27.8573 32.6051 27.485 33.7176 26.7834C34.8301 26.0819 35.7213 25.0798 36.2881 23.893C36.7999 23.9969 37.282 24.2138 37.6992 24.528C38.1163 24.8423 38.4578 25.2458 38.6988 25.7091L40.3595 29.1698L36.5399 30.718Z" fill="white"/>
</g>
<defs>
<clipPath id="clip0_2703_316">
<rect width="30" height="30" fill="white" transform="translate(14.9998 15)"/>
</clipPath>
</defs>
</svg>
