<svg width="60" height="60" viewBox="0 0 60 60" fill="none" xmlns="http://www.w3.org/2000/svg">
<circle cx="30" cy="30" r="30" fill="#AF7C63"/>
<path d="M41.7857 24.3571H40.7143C40.1229 24.3571 39.6429 24.8371 39.6429 25.4286V28.6429H36.4286V26.5C36.4286 25.3161 35.4696 24.3571 34.2857 24.3571H30V22.2143H34.2857C34.8771 22.2143 35.3571 21.7343 35.3571 21.1429V20.0714C35.3571 19.48 34.8771 19 34.2857 19H22.5C21.9086 19 21.4286 19.48 21.4286 20.0714V21.1429C21.4286 21.7343 21.9086 22.2143 22.5 22.2143H26.7857V24.3571H22.5C21.3161 24.3571 20.3571 25.3161 20.3571 26.5V30.7857H18.2143V27.5714C18.2143 26.98 17.7343 26.5 17.1429 26.5H16.0714C15.48 26.5 15 26.98 15 27.5714V37.2143C15 37.8057 15.48 38.2857 16.0714 38.2857H17.1429C17.7343 38.2857 18.2143 37.8057 18.2143 37.2143V34H20.3571V36.7771C20.3571 37.3954 20.6239 37.9825 21.0889 38.3896L24.0375 40.9696C24.4275 41.3114 24.9289 41.5 25.4475 41.5H34.2857C35.4696 41.5 36.4286 40.5411 36.4286 39.3571V36.1429H39.6429V39.3571C39.6429 39.9486 40.1229 40.4286 40.7143 40.4286H41.7857C43.5611 40.4286 45 38.9896 45 37.2143V27.5714C45 25.7961 43.5611 24.3571 41.7857 24.3571ZM31.9629 33.5232L29.82 36.7375C29.4911 37.2304 28.9286 37.2143 28.9286 37.2143V34H26.7857C26.3904 34 26.0271 33.7825 25.8407 33.4343C25.6543 33.0861 25.6746 32.6629 25.8943 32.335L28.0371 29.1207C28.365 28.6268 28.9286 28.6429 28.9286 28.6429V31.8571H31.0714C31.4668 31.8571 31.83 32.0746 32.0164 32.4229C32.2029 32.7711 32.1825 33.1943 31.9629 33.5232Z" fill="white"/>
</svg>
