<svg width="60" height="60" viewBox="0 0 60 60" fill="none" xmlns="http://www.w3.org/2000/svg">
<circle cx="29.9995" cy="30" r="30" fill="#DCB376"/>
<g clip-path="url(#clip0_2703_303)">
<path fill-rule="evenodd" clip-rule="evenodd" d="M25.2739 22.8054C27.4783 22.7325 30.0443 19.5572 28.5739 17.2611C28.3892 17.0067 28.1532 16.7939 27.8812 16.6365C27.6091 16.4791 27.307 16.3805 26.9945 16.3472C26.6819 16.3138 26.3658 16.3465 26.0667 16.443C25.7675 16.5396 25.492 16.6978 25.2579 16.9075C25.0246 16.6971 24.7495 16.5383 24.4507 16.4414C24.1519 16.3444 23.836 16.3116 23.5236 16.3449C23.2113 16.3783 22.9094 16.4771 22.6378 16.635C22.3662 16.7929 22.1309 17.0062 21.9473 17.2611C20.4738 19.566 23.0394 22.737 25.2739 22.8054ZM39.9839 26.9088C37.216 29.7189 33.1821 30.2958 31.0164 26.3357C30.1677 25.1171 29.0063 21.2742 31.3378 19.3396C31.7281 19.024 32.1836 18.799 32.6715 18.6808C33.1593 18.5626 33.6673 18.5542 34.1588 18.6561C34.6503 18.7581 35.1131 18.968 35.5136 19.2705C35.9142 19.573 36.2425 19.9607 36.4751 20.4056C37.1037 20.0053 37.8467 19.823 38.5892 19.8869C39.3318 19.9508 40.0326 20.2573 40.5837 20.7591C42.762 22.7738 41.1815 25.7424 39.9839 26.9088ZM21.588 23.9732C21.6078 27.1052 19.1379 28.5132 16.4508 26.9356C15.9312 26.6142 14.742 25.7142 14.8866 24.3644C14.9171 24.0794 15.0062 23.8038 15.1483 23.555C15.2904 23.3061 15.4824 23.0894 15.7123 22.9183C15.9423 22.7473 16.2051 22.6256 16.4843 22.561C16.7635 22.4964 17.053 22.4903 17.3347 22.543C17.4301 22.2723 17.5806 22.0241 17.7765 21.8143C17.9725 21.6045 18.2098 21.4374 18.4734 21.3237C18.737 21.21 19.0213 21.1521 19.3084 21.1536C19.5956 21.155 19.8792 21.2159 20.1417 21.3323C21.3791 21.8787 21.5666 23.3626 21.588 23.9732ZM20.6806 37.2907C21.1517 37.0735 21.664 36.9602 22.1827 36.9583C22.7012 36.9605 23.213 37.0741 23.6837 37.2915C24.1543 37.5088 24.5728 37.8248 24.9106 38.218C25.2485 38.6112 25.4978 39.0725 25.6418 39.5705C25.7858 40.0685 25.821 40.5917 25.745 41.1045C25.0936 45.1801 19.269 45.1759 18.615 41.1046C18.5395 40.5914 18.5752 40.0679 18.7196 39.5697C18.8641 39.0715 19.1139 38.6101 19.4523 38.2169C19.7906 37.8237 20.2095 37.5078 20.6806 37.2907ZM37.5678 36.9583C37.0494 36.9605 36.5375 37.0741 36.0669 37.2915C35.5962 37.5088 35.1778 37.8248 34.8399 38.218C34.5021 38.6113 34.2527 39.0725 34.1088 39.5706C33.9648 40.0686 33.9296 40.5917 34.0056 41.1046C34.6591 45.1795 40.4725 45.1748 41.1356 41.1098C41.2115 40.5963 41.1761 40.0725 41.0318 39.5738C40.8876 39.0751 40.6378 38.6133 40.2995 38.2196C39.9611 37.8259 39.5421 37.5095 39.0708 37.2919C38.5995 37.0743 38.0869 36.9605 37.5678 36.9583ZM34.9794 32.9032C37.8542 32.9033 40.8338 32.9034 41.8747 32.9031C42.6703 32.9031 43.4333 33.2192 43.9959 33.7818C44.5585 34.3443 44.8745 35.1074 44.8745 35.903V39.3421C44.8745 39.8109 44.6883 40.2606 44.3567 40.5921C44.0252 40.9236 43.5756 41.1099 43.1067 41.1099L42.2175 41.1099C42.2943 40.4543 42.2315 39.7898 42.0332 39.1602C41.8349 38.5305 41.5056 37.95 41.067 37.4567C40.6284 36.9634 40.0903 36.5685 39.4882 36.2979C38.8861 36.0274 38.2335 35.8873 37.5734 35.8869C36.9133 35.8866 36.2606 36.0259 35.6581 36.2957C35.0557 36.5656 34.5172 36.9598 34.078 37.4526C33.6388 37.9454 33.3088 38.5256 33.1098 39.155C32.9108 39.7844 32.8472 40.4488 32.9233 41.1045L26.8272 41.1045C26.9029 40.4489 26.8391 39.7847 26.64 39.1554C26.4408 38.5262 26.1109 37.9462 25.6718 37.4535C25.2327 36.9608 24.6944 36.5665 24.0922 36.2965C23.4899 36.0265 22.8374 35.8869 22.1774 35.8869C21.5174 35.8869 20.8649 36.0265 20.2627 36.2965C19.6604 36.5664 19.1221 36.9607 18.683 37.4535C18.2439 37.9462 17.914 38.5262 17.7148 39.1554C17.5157 39.7846 17.4519 40.4489 17.5276 41.1045H16.6384C16.171 41.1045 15.7227 40.9188 15.3922 40.5883C15.0617 40.2578 14.876 39.8095 14.876 39.3421V35.903C14.876 35.509 14.9536 35.1189 15.1043 34.755C15.2551 34.391 15.476 34.0603 15.7546 33.7818C16.0332 33.5032 16.3639 33.2822 16.7278 33.1315C17.0918 32.9807 17.4819 32.9031 17.8758 32.9031C18.0329 32.89 18.2041 32.8976 18.3764 32.9052C18.8641 32.9268 19.3602 32.9488 19.5686 32.5014L21.6471 28.0605C21.8891 27.5446 22.2731 27.1084 22.7541 26.8029C23.2351 26.4974 23.7932 26.3353 24.363 26.3356L29.7789 26.3354C31.1568 29.1612 34.0334 31.1057 37.1284 29.9193L38.0231 31.8318H29.0449C28.7334 31.8317 28.4284 31.743 28.1655 31.5758C27.9026 31.4087 27.6928 31.1701 27.5606 30.888L27.1486 30.0084C27.0866 29.8825 26.9777 29.7859 26.8453 29.7394C26.7129 29.6929 26.5675 29.7002 26.4405 29.7598C26.3134 29.8193 26.2148 29.9264 26.1657 30.0579C26.1167 30.1894 26.1213 30.3348 26.1784 30.463L26.591 31.3432C26.8095 31.8095 27.1564 32.2039 27.591 32.4801C28.0256 32.7564 28.5299 32.9031 29.0449 32.9031C30.0324 32.903 32.4659 32.9031 34.9794 32.9032Z" fill="white"/>
</g>
<defs>
<clipPath id="clip0_2703_303">
<rect width="30" height="30" fill="white" transform="translate(14.9995 15)"/>
</clipPath>
</defs>
</svg>
