<svg width="60" height="60" viewBox="0 0 60 60" fill="none" xmlns="http://www.w3.org/2000/svg">
<circle cx="30" cy="30" r="30" fill="#AC5865"/>
<g clip-path="url(#clip0_2703_314)">
<path fill-rule="evenodd" clip-rule="evenodd" d="M40.2939 15.8823H41.9457C43.4391 15.8823 44.6848 16.9601 44.9478 18.3786L40.2939 21.5629V15.8823ZM40.2939 27.5407L44.9998 24.3209V20.4813L40.2939 23.7011V27.5407ZM33.8232 26.4591L38.5291 29.6789V33.6333L33.8232 30.4135V26.4591ZM33.8232 32.5518L38.5291 35.7715V39.6333L33.8232 36.4135V32.5518ZM44.9998 30.4135L40.2939 33.6333V29.679L44.9998 26.4592V30.4135ZM27.3534 31.4706C28.1656 31.4706 28.824 30.8122 28.824 30C28.824 29.1878 28.1656 28.5294 27.3534 28.5294C26.5412 28.5294 25.8828 29.1878 25.8828 30C25.8828 30.8122 26.5412 31.4706 27.3534 31.4706ZM38.5291 27.5407V23.7011L33.8232 20.4813V24.321L38.5291 27.5407ZM40.2939 41.7716L44.9998 38.5518V41.0635C44.9998 42.7475 43.6297 44.1176 41.9457 44.1176H40.2939V41.7716ZM38.5299 21.5629V15.8823H36.8782C35.3847 15.8823 34.139 16.9601 33.876 18.3786L38.5299 21.5629ZM44.9998 36.4135L40.2939 39.6334V35.7716L44.9998 32.5518V36.4135ZM28.2354 26.888C28.5148 26.9673 28.7792 27.0826 29.0225 27.2297L32.0589 24.1933V23.6273C30.9394 22.8006 29.6165 22.2832 28.2354 22.1278V26.888ZM24.241 30.8823C24.3204 31.1617 24.4356 31.4261 24.5828 31.6694L21.2306 35.0216C20.2827 33.868 19.6542 32.4429 19.4805 30.8823H24.241ZM32.0589 36.1007L28.8334 32.8752C28.6441 32.9731 28.4441 33.0527 28.2354 33.1119V37.8739C29.6244 37.7224 30.9278 37.2123 32.0589 36.3737V36.1007ZM25.8729 32.8752C26.0622 32.9731 26.2623 33.0527 26.4709 33.1119H26.4709V37.8725C24.9832 37.7069 23.6187 37.128 22.4951 36.253L25.8729 32.8752ZM32.0588 38.4662C30.6278 39.2601 29.0038 39.6866 27.3529 39.6866C22.0117 39.6866 17.6663 35.3412 17.6663 29.9999C17.6663 24.6587 22.0117 20.3133 27.3529 20.3133C29.006 20.3133 30.6281 20.7397 32.0588 21.5339C32.0588 21.5339 32.0646 18.7009 32.0731 18.5846C30.5845 17.9701 28.9729 17.647 27.3529 17.647C20.5415 17.647 15 23.1885 15 29.9999C15 36.8113 20.5415 42.3529 27.3529 42.3529C28.9729 42.3529 30.5845 42.0297 32.0731 41.4153C32.0646 41.2989 32.0588 38.4662 32.0588 38.4662ZM24.4777 28.5196C24.3799 28.709 24.3002 28.909 24.241 29.1177H19.4805C19.6461 27.63 20.2251 26.2655 21.0999 25.1418L24.4777 28.5196ZM32.0587 30.8823H30.4648C30.3855 31.1617 30.2702 31.4261 30.123 31.6694L32.0587 33.6051V30.8823ZM32.0592 29.1176H30.4653C30.406 28.909 30.3264 28.7089 30.2285 28.5196L32.0592 26.689V29.1176ZM36.8774 44.1176H38.5291V41.7716L33.8232 38.5518V41.0635C33.8232 42.7475 35.1934 44.1176 36.8774 44.1176ZM26.4703 26.888C26.1909 26.9674 25.9265 27.0826 25.6832 27.2298L22.3311 23.8776C23.4846 22.9297 24.9098 22.3012 26.4703 22.1274V26.888Z" fill="white"/>
</g>
<defs>
<clipPath id="clip0_2703_314">
<rect width="30" height="30" fill="white" transform="translate(15 15)"/>
</clipPath>
</defs>
</svg>
