<svg width="60" height="60" viewBox="0 0 60 60" fill="none" xmlns="http://www.w3.org/2000/svg">
<circle cx="29.9998" cy="30" r="30" fill="#4C69B1"/>
<path fill-rule="evenodd" clip-rule="evenodd" d="M23.5655 23.5657C23.2607 23.8705 22.8474 24.0417 22.4164 24.0417C21.9854 24.0417 21.5721 23.8705 21.2674 23.5657C20.9626 23.261 20.7914 22.8476 20.7914 22.4167V18.625C20.7914 18.194 20.9626 17.7807 21.2674 17.476C21.5721 17.1712 21.9854 17 22.4164 17C22.8474 17 23.2607 17.1712 23.5655 17.476C23.8702 17.7807 24.0414 18.194 24.0414 18.625V22.4167C24.0414 22.8476 23.8702 23.261 23.5655 23.5657ZM38.7321 23.5657C38.4274 23.8705 38.0141 24.0417 37.5831 24.0417C37.1521 24.0417 36.7388 23.8705 36.434 23.5657C36.1293 23.261 35.9581 22.8476 35.9581 22.4167V18.625C35.9581 18.194 36.1293 17.7807 36.434 17.476C36.7388 17.1712 37.1521 17 37.5831 17C38.0141 17 38.4274 17.1712 38.7321 17.476C39.0369 17.7807 39.2081 18.194 39.2081 18.625V22.4167C39.2081 22.8476 39.0369 23.261 38.7321 23.5657ZM16.9998 42.4584C16.9998 42.602 17.0568 42.7398 17.1584 42.8414C17.26 42.943 17.3978 43 17.5414 43H42.4581C42.6017 43 42.7395 42.943 42.8411 42.8414C42.9427 42.7398 42.9998 42.602 42.9998 42.4584V28.0175H16.9998V42.4584ZM24.5343 33.4938C24.5657 33.3975 24.6235 33.312 24.701 33.2469C24.7786 33.1818 24.8728 33.1397 24.9731 33.1255L28.1689 32.6596L29.5989 29.7617C29.6436 29.6705 29.713 29.5938 29.7992 29.5401C29.8854 29.4865 29.9849 29.4582 30.0864 29.4584C30.1879 29.4582 30.2875 29.4865 30.3737 29.5401C30.4599 29.5938 30.5293 29.6705 30.5739 29.7617L32.0039 32.6596L35.2052 33.12C35.3054 33.1343 35.3997 33.1764 35.4772 33.2415C35.5548 33.3066 35.6125 33.3921 35.6439 33.4884C35.672 33.5829 35.6737 33.6834 35.6489 33.7788C35.6241 33.8743 35.5737 33.9611 35.5031 34.03L33.1902 36.2888L33.7318 39.4738C33.7518 39.5748 33.7425 39.6794 33.705 39.7754C33.6676 39.8713 33.6036 39.9546 33.5206 40.0155C33.4386 40.0759 33.3413 40.1121 33.2397 40.1197C33.1382 40.1274 33.0365 40.1063 32.9464 40.0588L30.0918 38.5584L27.2318 40.0642C27.1417 40.1117 27.0401 40.1328 26.9385 40.1252C26.837 40.1175 26.7396 40.0814 26.6577 40.0209C26.5736 39.9607 26.5086 39.8777 26.4702 39.7817C26.4318 39.6857 26.4217 39.5808 26.441 39.4792L26.9827 36.2888L24.6643 34.0355C24.5956 33.9654 24.5473 33.878 24.5244 33.7826C24.5015 33.6872 24.5049 33.5874 24.5343 33.4938ZM40.2914 20.7917H42.4581C42.6017 20.7917 42.7395 20.8487 42.8411 20.9503C42.9427 21.0519 42.9998 21.1897 42.9998 21.3333V26.9342H16.9998V21.3333C16.9998 21.1897 17.0568 21.0519 17.1584 20.9503C17.26 20.8487 17.3978 20.7917 17.5414 20.7917H19.7081V22.4167C19.7081 23.135 19.9934 23.8238 20.5013 24.3317C21.0093 24.8397 21.6981 25.125 22.4164 25.125C23.1347 25.125 23.8236 24.8397 24.3315 24.3317C24.8394 23.8238 25.1248 23.135 25.1248 22.4167V20.7917H34.8748V22.4167C34.8748 23.135 35.1601 23.8238 35.668 24.3317C36.1759 24.8397 36.8648 25.125 37.5831 25.125C38.3014 25.125 38.9903 24.8397 39.4982 24.3317C40.0061 23.8238 40.2914 23.135 40.2914 22.4167V20.7917Z" fill="white"/>
</svg>
