<svg width="60" height="60" viewBox="0 0 60 60" fill="none" xmlns="http://www.w3.org/2000/svg">
<circle cx="30" cy="30" r="30" fill="#8FDCCA"/>
<g clip-path="url(#clip0_2703_312)">
<path d="M29.9999 15C21.7156 15 15 21.7156 15 29.9999C15 38.2841 21.7156 45 29.9999 45C38.2841 45 45 38.2841 45 29.9999C44.9907 21.7195 38.2805 15.0093 29.9999 15ZM29.9999 18.0001C34.942 17.9833 39.3827 21.0161 41.1658 25.6251C37.657 24.0458 33.8475 23.2463 29.9999 23.2812C26.1525 23.2463 22.343 24.0458 18.8342 25.6251C20.6173 21.0161 25.058 17.9833 29.9999 18.0001ZM27.5296 41.7428C22.3075 40.6277 18.445 36.2044 18.044 30.8796C22.5234 30.8796 27.5296 36.8438 27.5296 41.7428ZM29.9999 32.2499C28.7573 32.2499 27.7499 31.2427 27.7499 29.9999C27.7499 28.7573 28.7573 27.7499 29.9999 27.7499C31.2427 27.7499 32.2499 28.7573 32.2499 29.9999C32.2499 31.2427 31.2427 32.2499 29.9999 32.2499ZM32.4704 41.7428C32.4704 36.8438 37.4766 30.8796 41.9562 30.8796C41.555 36.2044 37.6925 40.6277 32.4704 41.7428Z" fill="white"/>
</g>
<defs>
<clipPath id="clip0_2703_312">
<rect width="30" height="30" fill="white" transform="translate(15 15)"/>
</clipPath>
</defs>
</svg>
