<svg width="60" height="60" viewBox="0 0 60 60" fill="none" xmlns="http://www.w3.org/2000/svg">
<circle cx="30" cy="30" r="30" fill="#BB67AF"/>
<path fill-rule="evenodd" clip-rule="evenodd" d="M44.5669 34.4271C39.8853 24.9702 31.1785 19.9254 21.2002 19.1051C18.9971 18.7829 17.0928 19.1403 15.8097 21.0387C14.3676 23.1747 15.22 25.2032 15.5748 26.0477C15.6424 26.2086 15.692 26.3265 15.7042 26.394C15.9386 27.0034 16.0616 27.6128 16.0675 28.2045C16.1085 35.7161 19.665 38.8567 40.524 40.4211C42.0826 40.5383 43.5474 39.7942 44.3735 38.4582C45.1352 37.2278 45.2055 35.722 44.5669 34.4271ZM18.6514 25.6499C18.4463 25.8784 18.0772 25.814 17.9659 25.5269L17.96 25.521C17.934 25.4084 17.8717 25.2644 17.7981 25.0945C17.5235 24.46 17.0925 23.4644 17.8135 22.3922C18.5811 21.2555 19.6182 21.3668 20.9541 21.5133C22.0791 21.6012 23.1806 21.7535 24.2587 21.9644C24.622 22.0348 24.6103 22.5504 24.247 22.609C22.0791 22.9488 20.1162 24.0269 18.6514 25.6499ZM25.1083 33.6419C22.3955 33.6419 20.1924 31.4389 20.1924 28.726C20.1924 26.0132 22.3955 23.8101 25.1083 23.8101C27.8211 23.8101 30.0242 26.0132 30.0242 28.726C30.0242 31.4389 27.8211 33.6419 25.1083 33.6419ZM35.3151 38.2473C32.5261 38.2473 30.2586 35.9798 30.2586 33.1908C30.2586 30.4018 32.5261 28.1342 35.3151 28.1342C38.1041 28.1342 40.3716 30.4018 40.3716 33.1908C40.3658 35.9798 38.0983 38.2473 35.3151 38.2473ZM35.315 30.2378C33.6861 30.2378 32.3619 31.562 32.3619 33.1909C32.3619 34.8198 33.6861 36.144 35.315 36.144C36.9438 36.144 38.268 34.8198 38.268 33.1909C38.268 31.562 36.9438 30.2378 35.315 30.2378ZM35.315 34.726C34.4712 34.726 33.7857 34.0405 33.7857 33.1968C33.7857 32.353 34.4712 31.6675 35.315 31.6675C36.1587 31.6675 36.8442 32.353 36.8442 33.1968C36.8442 34.0405 36.1587 34.726 35.315 34.726ZM22.1722 28.7261C22.1722 27.1089 23.4905 25.7906 25.1077 25.7906C26.7307 25.7906 28.049 27.1089 28.0432 28.7261C28.0432 30.3432 26.7248 31.6616 25.1077 31.6616C23.4905 31.6616 22.1722 30.3432 22.1722 28.7261ZM23.9065 28.7261C23.9065 29.3882 24.4456 29.9272 25.1077 29.9272C25.7756 29.9272 26.3147 29.3882 26.3088 28.7261C26.3088 28.064 25.7698 27.5249 25.1077 27.5249C24.4456 27.5249 23.9065 28.064 23.9065 28.7261Z" fill="white"/>
</svg>
