<svg width="44" height="44" viewBox="0 0 44 44" fill="none" xmlns="http://www.w3.org/2000/svg">
<g clip-path="url(#clip0_2405_539)">
<path fill-rule="evenodd" clip-rule="evenodd" d="M37.559 3.65577V4.12885C41.1373 4.28654 44 7.125 44 10.7519V36.3769C44 40.0038 40.9783 43 37.3205 43H11.5566C8.3759 43 5.75181 40.8712 5.03614 37.9538H4.16145C2.73012 37.9538 1.45783 37.2442 0.66265 36.0615C-0.13253 34.8788 -0.212048 33.3808 0.424096 32.0404C1.13976 30.6212 1.7759 29.0442 2.33253 27.5462C3.44578 24.3135 4.24096 20.9231 4.71807 17.5327C4.71807 17.3455 4.76786 17.2077 4.82804 17.0412C4.84392 16.9972 4.86051 16.9513 4.87711 16.9019V10.8308C4.87711 7.20385 7.89879 4.20769 11.5566 4.20769V3.57692C11.5566 2.70962 12.2723 2 13.147 2C14.0217 2 14.7373 2.78846 14.7373 3.57692V4.05V4.12885H34.3783V3.65577C34.3783 2.78846 35.094 2.07885 35.9687 2.07885C36.8434 2.07885 37.559 2.86731 37.559 3.65577ZM11.4771 7.59808V7.28269C9.56867 7.28269 7.97831 8.78077 7.97831 10.7519V14.5365H40.5012H40.8193V10.7519C40.8193 8.93846 39.388 7.44038 37.559 7.28269V7.75577C37.559 8.62308 36.8434 9.33269 35.9687 9.33269C35.094 9.33269 34.3783 8.54423 34.3783 7.75577V7.28269H14.6578V7.59808C14.6578 8.46538 13.9422 9.175 13.0675 9.175C12.1928 9.175 11.4771 8.38654 11.4771 7.59808ZM3.20723 33.3808C3.04819 33.6962 3.12771 34.0115 3.28675 34.3269C3.44578 34.5635 3.76386 34.7212 4.16145 34.8788H33.6627C34.7759 34.8788 35.8096 34.2481 36.2867 33.3019C37.0819 31.6462 37.7976 29.9904 38.3542 28.3346C39.4675 25.0231 40.2626 21.5538 40.6602 18.0058C40.6602 17.9269 40.5807 17.8481 40.5807 17.8481C40.5012 17.7692 40.4217 17.7692 40.4217 17.7692H7.89879C7.81928 17.7692 7.73976 17.8481 7.73976 17.9269C7.26265 21.5538 6.38795 25.1019 5.19518 28.5712C4.63855 30.2269 3.92289 31.8039 3.20723 33.3808ZM11.4771 39.7673H37.3205C39.2289 39.7673 40.8193 38.1904 40.7398 36.2981V30.5423C40.2626 31.8827 39.706 33.2231 39.0699 34.4846C38.0361 36.5346 35.8892 37.875 33.5831 37.875H8.3759C9.01205 38.9788 10.1253 39.7673 11.4771 39.7673ZM22.5301 26.6787L27.9373 21.3172C29.4481 19.898 31.6746 22.1057 30.1638 23.5249L23.6433 29.9903C23.0867 30.6211 22.053 30.6211 21.4168 29.9903L16.8843 25.4961C15.3734 24.0768 17.6795 21.8691 19.1108 23.2884L22.5301 26.6787Z" fill="#55625D"/>
</g>
<defs>
<clipPath id="clip0_2405_539">
<rect width="44" height="44" fill="white"/>
</clipPath>
</defs>
</svg>
