<svg width="44" height="44" viewBox="0 0 44 44" fill="none" xmlns="http://www.w3.org/2000/svg">
<path fill-rule="evenodd" clip-rule="evenodd" d="M40.3019 4H3.62908C1.62354 4 0 5.62354 0 7.62908V37.0438C0 39.0493 1.62354 40.6728 3.62908 40.6728H40.2064C42.212 40.6728 43.8355 39.0493 43.8355 37.0438V7.62908C43.931 5.62354 42.3075 4 40.3019 4ZM40.2064 37.0438H3.62908V7.62908H40.2064V37.0438ZM10.6966 14.9828C11.7471 14.9828 12.5112 14.1233 12.5112 13.1682C12.5112 12.1177 11.6516 11.3537 10.6966 11.3537C9.6461 11.3537 8.88208 12.2132 8.88208 13.1682C8.88208 14.1233 9.6461 14.9828 10.6966 14.9828ZM35.0494 13.1682C35.0494 14.1233 34.2854 14.9828 33.2348 14.9828C32.1843 14.9828 31.4203 14.1233 31.4203 13.1682C31.4203 12.2132 32.1843 11.3537 33.2348 11.3537C34.1899 11.3537 35.0494 12.1177 35.0494 13.1682ZM11.6516 23.196C11.6516 23.387 11.7471 23.578 11.8426 23.769C12.1291 24.0555 12.5111 24.0555 12.7976 23.8645C12.8931 23.769 12.9886 23.6735 13.0841 23.4825L13.5616 22.3365H16.0447L16.5222 23.4825C16.5541 23.5144 16.5859 23.5568 16.6177 23.5992C16.6814 23.6841 16.7451 23.769 16.8087 23.769C16.9042 23.8645 17.0952 23.8645 17.1907 23.8645C17.3817 23.8645 17.5727 23.769 17.7637 23.6735C17.8592 23.578 17.9548 23.387 17.9548 23.1005C17.9548 23.005 17.9548 22.9095 17.8592 22.814L15.6627 17.5614C15.5672 17.3704 15.4717 17.2749 15.3762 17.1794C15.3363 17.1594 15.3006 17.1395 15.2665 17.1204C15.137 17.0482 15.0299 16.9884 14.8032 16.9884C14.6122 16.9884 14.4212 17.0839 14.2302 17.1794C14.1347 17.2749 14.0392 17.3704 13.9437 17.5614L11.7471 22.814C11.7471 22.9259 11.7143 23.005 11.6872 23.0706C11.668 23.1169 11.6516 23.1565 11.6516 23.196ZM14.8987 19.3759L15.5672 20.904H14.3257L14.8987 19.3759ZM24.4488 20.7128C24.7353 20.9993 24.9263 21.3813 24.9263 21.8589C24.9263 22.5274 24.7353 23.0049 24.0668 23.4824C23.6848 23.8644 23.0163 24.0554 22.1567 24.0554H20.0557C19.7692 24.0554 19.5782 24.0554 19.4827 23.8644C19.3872 23.6734 19.2917 23.4824 19.2917 23.2914V17.9433C19.2917 17.7166 19.3515 17.6094 19.4238 17.48C19.4428 17.4458 19.4628 17.4101 19.4827 17.3703C19.6737 17.2748 19.8647 17.1793 20.0557 17.1793H22.1567C22.9208 17.1793 23.4938 17.2748 23.8758 17.6568C24.3533 18.0388 24.5443 18.5163 24.5443 19.0893C24.5443 19.4713 24.4488 19.8533 24.2578 20.1398C24.1988 20.1398 24.1762 20.1763 24.1451 20.2267C24.1258 20.2579 24.1033 20.2943 24.0668 20.3308L24.4488 20.7128ZM22.2522 18.5163H21.0107V19.7578H22.0612C22.6343 19.7578 22.8253 19.6623 22.9208 19.5668C23.0163 19.4713 23.1118 19.3758 23.1118 19.0893C23.1118 18.8983 23.0163 18.8028 22.9208 18.7073C22.8253 18.6118 22.5388 18.5163 22.2522 18.5163ZM22.3477 22.4319C22.9208 22.4319 23.2073 22.3364 23.3028 22.2409C23.3983 22.1454 23.4938 22.0499 23.3983 21.8589C23.3983 21.6679 23.3983 21.1903 22.2522 21.1903H21.0107V22.4319H22.3477ZM26.5498 18.7073C26.2632 19.2803 26.0722 19.8533 26.0722 20.5218C26.0722 21.1903 26.2632 21.8589 26.5498 22.3364C26.8363 22.9094 27.2183 23.2914 27.7913 23.5779C28.2688 23.8644 28.9373 23.9599 29.5103 23.9599C29.9878 23.9599 30.3698 23.8644 30.6563 23.7689C30.9429 23.6734 31.3249 23.4824 31.6114 23.2914C31.8979 23.1959 31.9934 22.9094 31.9934 22.6229C31.9934 22.4319 31.8979 22.2409 31.8024 22.1454C31.7069 22.0499 31.3249 21.8589 30.9429 22.0499C30.8474 22.0976 30.7281 22.1453 30.6088 22.193L30.6087 22.1931L30.6087 22.1931L30.6087 22.1931L30.6087 22.1931L30.6086 22.1931C30.4892 22.2409 30.3698 22.2886 30.2743 22.3364C30.0833 22.4319 29.7968 22.4319 29.5103 22.4319C29.0328 22.4319 28.7463 22.3364 28.3643 22.1454C28.0778 21.9544 27.8868 21.7634 27.6958 21.4769C27.5048 21.1903 27.5048 20.8083 27.5048 20.4263C27.5048 20.0443 27.6003 19.6623 27.6958 19.3758C27.8868 19.0893 28.0778 18.8028 28.3643 18.7073C28.6508 18.5163 29.0328 18.4208 29.5103 18.4208C29.7968 18.4208 30.0833 18.4208 30.2743 18.5163C30.3698 18.564 30.4892 18.6118 30.6086 18.6595L30.6086 18.6596C30.728 18.7073 30.8474 18.755 30.9429 18.8028C31.2294 18.8983 31.6114 18.8983 31.8024 18.7073C31.8979 18.6118 31.9934 18.4208 31.9934 18.2298C31.9934 17.9433 31.8979 17.7523 31.6114 17.5613C31.4445 17.45 31.2451 17.3711 31.0323 17.2869L31.0323 17.2869C30.8798 17.2266 30.7203 17.1635 30.5609 17.0838C30.1788 16.9883 29.7968 16.8927 29.4148 16.8927C28.7463 16.8927 28.1733 16.9883 27.6958 17.2748C27.2183 17.7523 26.8363 18.1343 26.5498 18.7073ZM13.2742 32.1731H13.7517C13.9427 32.1731 14.1337 32.2686 14.3247 32.3641C14.4202 32.4596 14.5157 32.6506 14.5157 32.8416C14.5157 33.0326 14.5157 33.2236 14.3247 33.3191C14.2292 33.4146 14.0382 33.5101 13.8472 33.5101H11.1731C10.9821 33.5101 10.7911 33.4146 10.6956 33.3191C10.6001 33.2236 10.5046 33.0326 10.5046 32.8416C10.5046 32.6506 10.6001 32.4596 10.6956 32.3641C10.7911 32.2686 10.9821 32.1731 11.1731 32.1731H11.8416V28.6395L11.4596 28.8305C11.0776 29.0215 10.7911 28.926 10.6001 28.735C10.5046 28.544 10.4091 28.353 10.4091 28.162C10.4091 27.8755 10.5046 27.589 10.7911 27.4935L11.9371 26.9205C12.0326 26.825 12.2236 26.825 12.3192 26.825H12.5102C12.7012 26.825 12.8922 26.825 13.0832 27.016C13.1787 27.207 13.2742 27.398 13.2742 27.589V32.1731ZM19.9597 30.9316C20.2463 30.6451 20.5328 30.3585 20.7238 30.072C21.0103 29.69 21.1058 29.308 21.1058 28.926C21.1058 28.544 21.0103 28.162 20.8193 27.78C20.6283 27.4935 20.3418 27.207 19.9597 27.016C19.5777 26.825 19.1957 26.7295 18.8137 26.7295C18.0497 26.7295 17.3812 26.9205 16.7127 27.207C16.4262 27.3025 16.3307 27.589 16.3307 27.8755C16.3307 28.0665 16.4262 28.2575 16.5217 28.353C16.7127 28.544 17.0947 28.6395 17.2857 28.4485C17.6677 28.2575 18.1452 28.162 18.6227 28.162C19.0047 28.162 19.2912 28.2575 19.4822 28.353C19.6732 28.4485 19.6732 28.6395 19.6732 28.8305C19.6732 28.926 19.6732 29.117 19.5777 29.2125C19.5161 29.3359 19.4146 29.4194 19.299 29.5145L19.2989 29.5145C19.2355 29.5667 19.1679 29.6224 19.1002 29.69C18.9092 29.881 18.6227 30.072 18.2407 30.263C18.0009 30.4429 17.7611 30.5851 17.5449 30.7133C17.4167 30.7893 17.2968 30.8605 17.1902 30.9316C16.9037 31.1226 16.6172 31.4091 16.4262 31.6956C16.2352 31.9821 16.1397 32.3641 16.1397 32.7461C16.1397 32.9371 16.2352 33.2236 16.4262 33.3191C16.6172 33.5101 16.8082 33.5101 16.9992 33.5101H20.3418C20.5328 33.5101 20.7238 33.4146 20.8193 33.3191C21.0103 33.2236 21.0103 33.0326 21.0103 32.8416C21.0103 32.6506 20.9148 32.4596 20.8193 32.3641C20.7238 32.2686 20.5328 32.1731 20.3418 32.1731H18.1452C18.3362 32.0776 18.6227 31.8866 18.9092 31.6956C19.2912 31.4091 19.6732 31.1226 19.9597 30.9316ZM26.8363 29.881L26.6453 30.072C26.7408 30.1675 26.8363 30.263 26.6453 30.263C26.9318 30.5496 27.1228 31.0271 27.1228 31.6001C27.1228 32.2686 26.8363 32.7461 26.3588 33.1281C25.8813 33.4146 25.3083 33.6056 24.5443 33.6056C23.7802 33.6056 23.1117 33.5101 22.5387 33.2236L22.2522 32.9371C22.1567 32.8416 22.1567 32.7461 22.1567 32.5551C22.1567 32.3641 22.2522 32.1731 22.3477 32.0776C22.6342 31.7911 22.9207 31.7911 23.2072 31.8866C23.9712 32.1731 24.9263 32.1731 25.4993 31.8866C25.6903 31.8866 25.7858 31.6956 25.7858 31.5046C25.7858 31.3136 25.7858 30.7406 24.2578 30.7406H24.1623C23.9712 30.7406 23.7802 30.6451 23.6847 30.5495C23.5892 30.454 23.4937 30.263 23.4937 30.072C23.4937 29.881 23.5892 29.69 23.6847 29.5945C23.7802 29.499 23.9712 29.4035 24.1623 29.4035C24.7353 29.4035 25.1173 29.4035 25.4038 29.2125C25.5948 29.117 25.6903 28.926 25.6903 28.735C25.6903 28.544 25.5948 28.4485 25.4993 28.353C25.3083 28.2575 25.0218 28.162 24.6398 28.162C24.1623 28.162 23.7802 28.2575 23.3982 28.4485C23.0162 28.6395 22.8252 28.544 22.6342 28.353C22.5387 28.2575 22.4432 28.0665 22.4432 27.8755C22.4432 27.6845 22.6342 27.398 22.8252 27.3025C23.3982 27.016 24.0667 26.825 24.7353 26.825C25.4993 26.825 26.1678 27.016 26.5498 27.3025C27.0273 27.589 27.2183 28.162 27.2183 28.735C27.2183 29.2125 27.1228 29.5945 26.8363 29.881ZM33.4254 30.6451H33.1389V27.589C33.1389 27.398 33.0434 27.1115 32.8524 27.016C32.6614 26.825 32.4704 26.7295 32.1839 26.7295H31.9929C31.8974 26.7295 31.7063 26.7295 31.6108 26.825C31.579 26.8568 31.5366 26.8886 31.4941 26.9205C31.4092 26.9841 31.3243 27.0478 31.3243 27.1115L28.6503 30.6451C28.5548 30.8361 28.4593 31.0271 28.4593 31.2181C28.4593 31.4091 28.5548 31.6956 28.7458 31.7911C28.9368 31.9821 29.1278 32.0776 29.3188 32.0776H31.6108V32.9371C31.6108 33.1281 31.7063 33.3191 31.8019 33.5101C31.8417 33.5301 31.8774 33.55 31.9116 33.569C32.041 33.6413 32.1482 33.7011 32.3749 33.7011C32.5659 33.7011 32.7569 33.6056 32.9479 33.5101C33.1389 33.4146 33.1389 33.2236 33.1389 32.9371V32.0776H33.4254C33.6164 32.0776 33.8074 31.9821 33.9029 31.8866C33.9984 31.7911 34.0939 31.6001 34.0939 31.4091C34.0939 31.2181 33.9984 31.0271 33.9029 30.9316C33.8074 30.7406 33.6164 30.6451 33.4254 30.6451ZM31.6108 30.6451H30.3693L31.6108 29.0215V30.6451ZM26.3584 14.0277H17.4767C16.9992 14.0277 16.5217 13.6457 16.5217 13.0727C16.5217 12.4997 16.9037 12.1177 17.4767 12.1177H26.3584C26.9314 12.1177 27.3134 12.4997 27.3134 13.0727C27.3134 13.6457 26.9314 14.0277 26.3584 14.0277Z" fill="#55625D"/>
</svg>
