<svg width="44" height="44" viewBox="0 0 44 44" fill="none" xmlns="http://www.w3.org/2000/svg">
<path fill-rule="evenodd" clip-rule="evenodd" d="M42.7866 27.873C42.7952 27.8813 42.8037 27.8895 42.8123 27.8979C44.3955 29.4775 44.3955 32.0356 42.815 33.616C41.2344 35.1967 38.6735 35.1925 37.097 33.6124C37.0885 33.6039 37.0803 33.5953 37.072 33.5866L29.2077 25.2521C25.9554 26.0764 26.534 30.8903 29.977 30.8903C34.587 30.8903 36.358 36.8911 32.5056 39.412C24.279 44.7971 13.1328 43.7731 6.05905 36.4822C-1.81498 28.3664 -1.89242 15.1872 6.40662 7.01356C17.4876 -3.89995 36.0842 0.732195 40.9238 15.333C41.9503 18.4269 40.8215 21.7713 38.3227 23.6607L42.7866 27.873ZM29.9771 33.4684C28.5486 33.4684 27.1916 32.9279 26.1558 31.9464C23.4483 29.3806 24.1004 24.9868 27.3122 23.2432L24.296 20.0467C22.2162 20.4801 20.0208 19.8809 18.4466 18.3069C16.4687 16.3288 15.4903 10.1227 15.195 7.41656C15.1061 6.59776 15.7984 5.90658 16.616 5.99562C19.3117 6.28844 25.5319 7.2726 27.5063 9.24713C29.0794 10.8202 29.6799 13.0145 29.2464 15.0959L36.4069 21.8529C38.2966 20.6786 39.1976 18.3174 38.4766 16.1445C34.2213 3.30594 17.9642 -0.693993 8.24432 8.86682C0.990727 16.0017 0.949732 27.5137 7.90947 34.687C14.1147 41.0828 23.8936 41.9682 31.0938 37.2549C32.8123 36.1304 32.036 33.4684 29.9771 33.4684ZM17.972 8.77245C18.4302 11.8176 19.2982 15.5123 20.2696 16.4838C21.7687 17.9829 24.1908 17.9764 25.6833 16.4838C27.1794 14.9876 27.1791 12.5659 25.6833 11.0701C24.7119 10.0987 21.0172 9.23063 17.972 8.77245ZM38.9331 31.8022C39.5045 32.3637 40.424 32.3611 40.9921 31.793C41.5611 31.224 41.5641 30.3061 41.0021 29.7341L28.1288 17.5862C27.7505 18.0954 27.2947 18.5512 26.7861 18.929L38.9331 31.8022ZM9.50534 16.7384C6.89043 16.7384 4.76309 18.8657 4.76309 21.4806C4.76309 24.0955 6.89043 26.2229 9.50534 26.2229C12.1202 26.2229 14.2476 24.0955 14.2476 21.4806C14.2476 18.8657 12.1202 16.7384 9.50534 16.7384ZM9.50534 23.6446C8.31215 23.6446 7.3413 22.6739 7.3413 21.4806C7.3413 20.2873 8.31215 19.3166 9.50534 19.3166C10.6985 19.3166 11.6694 20.2873 11.6694 21.4806C11.6694 22.6739 10.6985 23.6446 9.50534 23.6446ZM17.903 27.939C15.2882 27.939 13.1609 30.0663 13.1609 32.6813C13.1609 35.2961 15.2882 37.4234 17.903 37.4234C20.5179 37.4234 22.6453 35.2961 22.6453 32.6813C22.6453 30.0663 20.5179 27.939 17.903 27.939ZM17.903 34.8452C16.7098 34.8452 15.7391 33.8744 15.7391 32.6812C15.7391 31.4879 16.7098 30.5171 17.903 30.5171C19.0963 30.5171 20.0671 31.4879 20.0671 32.6812C20.0672 33.8744 19.0963 34.8452 17.903 34.8452Z" fill="#55625D"/>
</svg>
