<svg width="44" height="44" viewBox="0 0 44 44" fill="none" xmlns="http://www.w3.org/2000/svg">
<g clip-path="url(#clip0_2405_631)">
<path fill-rule="evenodd" clip-rule="evenodd" d="M2.75481 10H41.3221C42.0527 10 42.7534 10.2902 43.2701 10.8069C43.7867 11.3235 44.0769 12.0242 44.0769 12.7548V31.1202C44.0769 31.8508 43.7867 32.5515 43.2701 33.0681C42.7534 33.5848 42.0527 33.875 41.3221 33.875H2.75481C2.02419 33.875 1.32349 33.5848 0.806864 33.0681C0.290238 32.5515 0 31.8508 0 31.1202V12.7548C0 12.0242 0.290238 11.3235 0.806864 10.8069C1.32349 10.2902 2.02419 10 2.75481 10ZM41.9714 31.7695C42.1436 31.5973 42.2404 31.3637 42.2404 31.1202V12.7548C42.2404 12.5113 42.1436 12.2777 41.9714 12.1055C41.7992 11.9333 41.5657 11.8365 41.3221 11.8365H2.75481C2.51127 11.8365 2.2777 11.9333 2.10549 12.1055C1.93328 12.2777 1.83654 12.5113 1.83654 12.7548V31.1202C1.83654 31.3637 1.93328 31.5973 2.10549 31.7695C2.2777 31.9417 2.51127 32.0385 2.75481 32.0385H41.3221C41.5657 32.0385 41.7992 31.9417 41.9714 31.7695ZM7.34604 14.5914H9.18257C9.91319 14.5914 10.6139 14.8816 11.1305 15.3982C11.6471 15.9148 11.9374 16.6155 11.9374 17.3462V21.0192C11.9374 21.7499 11.6471 22.4506 11.1305 22.9672C10.6139 23.4838 9.91319 23.774 9.18257 23.774H7.34604C6.61542 23.774 5.91472 23.4838 5.39809 22.9672C4.88147 22.4506 4.59123 21.7499 4.59123 21.0192V17.3462C4.59123 16.6155 4.88147 15.9148 5.39809 15.3982C5.91472 14.8816 6.61542 14.5914 7.34604 14.5914ZM9.18257 16.4279H7.34604C7.1025 16.4279 6.86893 16.5246 6.69672 16.6968C6.52451 16.8691 6.42777 17.1026 6.42777 17.3462V20.101L9.18257 16.4279ZM7.34604 21.9375H9.18257C9.42612 21.9375 9.65968 21.8408 9.83189 21.6686C10.0041 21.4963 10.1008 21.2628 10.1008 21.0192V18.2644L7.34604 21.9375ZM27.548 14.5914H25.7115C24.9808 14.5914 24.2801 14.8816 23.7635 15.3982C23.2469 15.9148 22.9567 16.6155 22.9567 17.3462V21.0192C22.9567 21.7499 23.2469 22.4506 23.7635 22.9672C24.2801 23.4838 24.9808 23.774 25.7115 23.774H27.548C28.2786 23.774 28.9793 23.4838 29.4959 22.9672C30.0126 22.4506 30.3028 21.7499 30.3028 21.0192V17.3462C30.3028 16.6155 30.0126 15.9148 29.4959 15.3982C28.9793 14.8816 28.2786 14.5914 27.548 14.5914ZM25.7115 16.4279H27.548L24.7932 20.101V17.3462C24.7932 17.1026 24.8899 16.8691 25.0621 16.6968C25.2344 16.5246 25.4679 16.4279 25.7115 16.4279ZM27.548 21.9375H25.7115L28.4663 18.2644V21.0192C28.4663 21.2628 28.3695 21.4963 28.1973 21.6686C28.0251 21.8408 27.7915 21.9375 27.548 21.9375ZM19.2833 20.101H16.5285C15.7979 20.101 15.0972 19.8107 14.5805 19.2941C14.0639 18.7775 13.7737 18.0768 13.7737 17.3462V15.5096C13.7737 15.2661 13.8704 15.0325 14.0426 14.8603C14.2148 14.6881 14.4484 14.5914 14.692 14.5914C14.9355 14.5914 15.1691 14.6881 15.3413 14.8603C15.5135 15.0325 15.6102 15.2661 15.6102 15.5096V17.3462C15.6102 17.5897 15.707 17.8233 15.8792 17.9955C16.0514 18.1677 16.285 18.2644 16.5285 18.2644H19.2833V15.5096C19.2833 15.2661 19.38 15.0325 19.5523 14.8603C19.7245 14.6881 19.958 14.5914 20.2016 14.5914C20.4451 14.5914 20.6787 14.6881 20.8509 14.8603C21.0231 15.0325 21.1198 15.2661 21.1198 15.5096V22.8558C21.1198 23.0993 21.0231 23.3329 20.8509 23.5051C20.6787 23.6773 20.4451 23.774 20.2016 23.774C19.958 23.774 19.7245 23.6773 19.5523 23.5051C19.38 23.3329 19.2833 23.0993 19.2833 22.8558V20.101ZM38.5675 16.4279C38.811 16.4279 39.0446 16.3311 39.2168 16.1589C39.389 15.9867 39.4858 15.7532 39.4858 15.5096C39.4858 15.2661 39.389 15.0325 39.2168 14.8603C39.0446 14.6881 38.811 14.5914 38.5675 14.5914H33.9762C33.4891 14.5914 33.0219 14.7848 32.6775 15.1293C32.3331 15.4737 32.1396 15.9408 32.1396 16.4279V18.2644C32.1396 18.7515 32.3331 19.2186 32.6775 19.5631C33.0219 19.9075 33.4891 20.101 33.9762 20.101H37.6492V21.9375H33.0579C32.8143 21.9375 32.5808 22.0343 32.4086 22.2065C32.2364 22.3787 32.1396 22.6122 32.1396 22.8558C32.1396 23.0993 32.2364 23.3329 32.4086 23.5051C32.5808 23.6773 32.8143 23.774 33.0579 23.774H37.6492C38.1363 23.774 38.6034 23.5806 38.9479 23.2361C39.2923 22.8917 39.4858 22.4246 39.4858 21.9375V20.101C39.4858 19.6139 39.2923 19.1468 38.9479 18.8023C38.6034 18.4579 38.1363 18.2644 37.6492 18.2644H33.9762V16.4279H38.5675ZM20.202 27.4471H23.8751C24.1187 27.4471 24.3522 27.5438 24.5244 27.716C24.6966 27.8882 24.7934 28.1218 24.7934 28.3653C24.7934 28.6089 24.6966 28.8425 24.5244 29.0147C24.3522 29.1869 24.1187 29.2836 23.8751 29.2836H20.202C19.9585 29.2836 19.7249 29.1869 19.5527 29.0147C19.3805 28.8425 19.2838 28.6089 19.2838 28.3653C19.2838 28.1218 19.3805 27.8882 19.5527 27.716C19.7249 27.5438 19.9585 27.4471 20.202 27.4471ZM15.8772 26.7952L15.6109 27.0707L15.3446 26.7952C15.1717 26.6223 14.9372 26.5252 14.6927 26.5252C14.4481 26.5252 14.2136 26.6223 14.0407 26.7952C13.8678 26.9681 13.7706 27.2027 13.7706 27.4472C13.7706 27.6917 13.8678 27.9262 14.0407 28.0992L14.3162 28.3655L14.0407 28.6318C13.8678 28.8047 13.7706 29.0392 13.7706 29.2837C13.7706 29.5283 13.8678 29.7628 14.0407 29.9357C14.2136 30.1086 14.4481 30.2058 14.6927 30.2058C14.9372 30.2058 15.1717 30.1086 15.3446 29.9357L15.6109 29.6602L15.8772 29.9357C16.0501 30.1086 16.2847 30.2058 16.5292 30.2058C16.7737 30.2058 17.0082 30.1086 17.1812 29.9357C17.3541 29.7628 17.4512 29.5283 17.4512 29.2837C17.4512 29.0392 17.3541 28.8047 17.1812 28.6318L16.9057 28.3655L17.1812 28.0992C17.3541 27.9262 17.4512 27.6917 17.4512 27.4472C17.4512 27.2027 17.3541 26.9681 17.1812 26.7952C17.0082 26.6223 16.7737 26.5252 16.5292 26.5252C16.2847 26.5252 16.0501 26.6223 15.8772 26.7952ZM28.4663 27.0707L28.7326 26.7952C28.9055 26.6223 29.14 26.5252 29.3845 26.5252C29.6291 26.5252 29.8636 26.6223 30.0365 26.7952C30.2094 26.9681 30.3066 27.2027 30.3066 27.4472C30.3066 27.6917 30.2094 27.9262 30.0365 28.0992L29.761 28.3655L30.0365 28.6318C30.2094 28.8047 30.3066 29.0392 30.3066 29.2837C30.3066 29.5283 30.2094 29.7628 30.0365 29.9357C29.8636 30.1086 29.6291 30.2058 29.3845 30.2058C29.14 30.2058 28.9055 30.1086 28.7326 29.9357L28.4663 29.6602L28.2 29.9357C28.027 30.1086 27.7925 30.2058 27.548 30.2058C27.3035 30.2058 27.0689 30.1086 26.896 29.9357C26.7231 29.7628 26.626 29.5283 26.626 29.2837C26.626 29.0392 26.7231 28.8047 26.896 28.6318L27.1715 28.3655L26.896 28.0992C26.8104 28.0135 26.7425 27.9119 26.6961 27.8C26.6498 27.6882 26.626 27.5683 26.626 27.4472C26.626 27.3261 26.6498 27.2062 26.6961 27.0943C26.7425 26.9825 26.8104 26.8808 26.896 26.7952C26.9816 26.7096 27.0833 26.6417 27.1951 26.5953C27.307 26.549 27.4269 26.5252 27.548 26.5252C27.6691 26.5252 27.789 26.549 27.9008 26.5953C28.0127 26.6417 28.1143 26.7096 28.2 26.7952L28.4663 27.0707Z" fill="#55625D"/>
</g>
<defs>
<clipPath id="clip0_2405_631">
<rect width="44" height="44" fill="white"/>
</clipPath>
</defs>
</svg>
