<svg width="44" height="44" viewBox="0 0 44 44" fill="none" xmlns="http://www.w3.org/2000/svg">
<path fill-rule="evenodd" clip-rule="evenodd" d="M7.12517 20.6872C3.69135 20.5846 1 19.7544 1 18.7511C1 17.9482 2.72305 17.2569 5.17091 16.9602C5.73851 17.6121 6.27852 18.2242 6.74802 18.7807C7.02027 19.1035 7.42062 19.2898 7.84237 19.2899C8.26404 19.2899 8.66448 19.1037 8.93681 18.781C9.40659 18.2243 9.94678 17.6122 10.5145 16.9602C12.9622 17.257 14.685 17.9483 14.685 18.7511C14.685 19.7545 11.993 20.5848 8.5585 20.6872V23.6395C8.5585 24.0359 8.23744 24.3579 7.84184 24.3579C7.44633 24.3579 7.12517 24.0359 7.12517 23.6395V20.6872ZM14.4355 8.4744C13.5411 11.5375 10.4371 14.8508 8.32165 17.2935C8.2016 17.4334 8.02665 17.5139 7.84255 17.5139C7.65846 17.5139 7.4835 17.4333 7.36346 17.2934C4.87 14.4131 1 10.3225 1 6.85879C1 3.07156 4.06429 0 7.84255 0C11.6219 0 14.685 3.07156 14.685 6.85879C14.685 6.91824 14.6839 6.97786 14.6816 7.03767H17.3404C17.7359 7.03767 18.057 7.35958 18.057 7.75603C18.057 8.15257 17.7359 8.4744 17.3404 8.4744H14.4355ZM7.84255 11.1113C10.179 11.1113 12.085 9.20076 12.085 6.85879C12.085 4.51674 10.179 2.6074 7.84255 2.6074C5.50604 2.6074 3.60123 4.51674 3.60123 6.85879C3.60123 9.20076 5.50604 11.1113 7.84255 11.1113ZM14.6477 37.8603C14.2878 41.3026 11.3705 44 7.84354 44C4.07468 44 1 40.9201 1 37.1423C1 33.6076 3.69171 30.682 7.12517 30.3201V27.6917C7.12517 27.2953 7.44633 26.9733 7.84184 26.9733C8.23744 26.9733 8.5585 27.2953 8.5585 27.6917V30.3198C11.7576 30.6554 14.3121 33.2169 14.6477 36.4236H17.3404C17.7359 36.4236 18.057 36.7454 18.057 37.1419C18.057 37.5384 17.7359 37.8603 17.3404 37.8603H14.6477ZM6.9452 37.746L5.41601 36.2132C5.01996 35.8162 4.37684 35.8162 3.9808 36.2132C3.58466 36.6122 3.58466 37.2548 3.9808 37.6519L6.22862 39.907C6.62467 40.3041 7.26779 40.3041 7.66384 39.907C9.0195 38.5482 10.3589 37.175 11.7083 35.81C12.1023 35.4109 12.1004 34.7684 11.7042 34.3734C11.3082 33.9784 10.6651 33.9805 10.2711 34.3775L6.9452 37.746ZM34.3156 37.8602C34.3131 37.8602 34.3105 37.8603 34.308 37.8603H27.6596C27.2641 37.8603 26.943 37.5384 26.943 37.1419C26.943 36.7454 27.2641 36.4236 27.6596 36.4236H33.1676C31.6008 34.3623 30.315 32.1574 30.315 30.1609C30.315 26.6161 32.9996 23.6982 36.4415 23.3393V21.0557C36.4415 20.6593 36.7626 20.3373 37.1582 20.3373C37.5537 20.3373 37.8748 20.6593 37.8748 21.0557V23.3394C41.317 23.6988 44 26.6165 44 30.1609C44 33.6691 40.0313 37.8202 37.5416 40.7057C37.4454 40.818 37.3052 40.8826 37.1575 40.8826C37.0099 40.8826 36.8696 40.8179 36.7735 40.7056C36.0368 39.8515 35.1704 38.8866 34.3156 37.8602ZM37.1574 34.4134C39.494 34.4134 41.3999 32.5029 41.3999 30.1609C41.3999 27.819 39.494 25.9095 37.1574 25.9095C34.821 25.9095 32.9162 27.819 32.9162 30.1609C32.9162 32.5029 34.821 34.4134 37.1574 34.4134ZM30.3522 8.4744H27.6596C27.2641 8.4744 26.943 8.15257 26.943 7.75603C26.943 7.35958 27.2641 7.03767 27.6596 7.03767H30.3525C30.7135 3.59606 33.6322 0.897959 37.1585 0.897959C40.9274 0.897959 44 3.97993 44 7.75774C44 11.2931 41.309 14.2173 37.8748 14.578V17.2986C37.8748 17.695 37.5537 18.0169 37.1582 18.0169C36.7626 18.0169 36.4415 17.695 36.4415 17.2986V14.578C33.2424 14.2416 30.687 11.6811 30.3522 8.4744ZM36.2602 8.36144L34.731 6.82862C34.3349 6.43163 33.6918 6.43163 33.2958 6.82862C32.8996 7.22767 32.8996 7.87025 33.2958 8.26733L35.5436 10.5226C35.9396 10.9195 36.5828 10.9195 36.9788 10.5226C38.3345 9.16367 39.6738 7.79051 41.0233 6.42544C41.4173 6.02638 41.4153 5.3838 41.0192 4.98888C40.6232 4.59387 39.98 4.59593 39.586 4.99292L36.2602 8.36144ZM21.383 37.8603C20.9875 37.8603 20.6663 37.5384 20.6663 37.1419C20.6663 36.7454 20.9875 36.4236 21.383 36.4236H23.617C24.0125 36.4236 24.3337 36.7454 24.3337 37.1419C24.3337 37.5384 24.0125 37.8603 23.617 37.8603H21.383ZM23.617 7.03767C24.0125 7.03767 24.3337 7.35958 24.3337 7.75603C24.3337 8.15257 24.0125 8.4744 23.617 8.4744H21.383C20.9875 8.4744 20.6663 8.15257 20.6663 7.75603C20.6663 7.35958 20.9875 7.03767 21.383 7.03767H23.617ZM34.4859 40.2623C35.0535 40.9143 35.5935 41.5263 36.063 42.0829C36.3352 42.4058 36.7356 42.5919 37.1574 42.592C37.579 42.592 37.9794 42.4059 38.2518 42.0831C38.7216 41.5265 39.2618 40.9144 39.8294 40.2624C42.2771 40.5592 44 41.2505 44 42.0532C44 43.1254 40.9264 44 37.1574 44C33.3886 44 30.315 43.1254 30.315 42.0532C30.315 41.2505 32.038 40.5591 34.4859 40.2623Z" fill="#55625D"/>
</svg>
