<svg width="44" height="44" viewBox="0 0 44 44" fill="none" xmlns="http://www.w3.org/2000/svg">
<g clip-path="url(#clip0_2405_575)">
<path fill-rule="evenodd" clip-rule="evenodd" d="M3.4375 22C3.4375 11.7482 11.7482 3.4375 22 3.4375C32.2518 3.4375 40.5625 11.7482 40.5625 22C40.5625 32.2518 32.2518 40.5625 22 40.5625C11.7482 40.5625 3.4375 32.2518 3.4375 22ZM22 0C9.84974 0 0 9.84974 0 22C0 34.1503 9.84974 44 22 44C34.1503 44 44 34.1503 44 22C44 9.84974 34.1503 0 22 0ZM20.2812 22C20.2812 21.0508 21.0508 20.2812 22 20.2812C22.9492 20.2812 23.7188 21.0508 23.7188 22C23.7188 22.9492 22.9492 23.7188 22 23.7188C21.0508 23.7188 20.2812 22.9492 20.2812 22ZM22 16.8438C19.1523 16.8438 16.8438 19.1523 16.8438 22C16.8438 24.8477 19.1523 27.1562 22 27.1562C24.8477 27.1562 27.1562 24.8477 27.1562 22C27.1562 21.678 27.1267 21.3629 27.0703 21.0573L34.7648 16.6149C35.16 16.3867 35.4483 16.0107 35.566 15.5698C35.6837 15.1289 35.6213 14.6593 35.3925 14.2645C32.718 9.65012 27.7193 6.53125 22 6.53125C13.4691 6.53125 6.53125 13.4691 6.53125 22C6.53125 22.9492 7.30076 23.7188 8.25 23.7188C9.19924 23.7188 9.96875 22.9492 9.96875 22C9.96875 15.3676 15.3676 9.96875 22 9.96875C25.8234 9.96875 29.2404 11.7626 31.4483 14.5604L25.3507 18.0808C24.4495 17.3095 23.2792 16.8438 22 16.8438ZM18.5625 34.0312C17.6133 34.0312 16.8438 34.8008 16.8438 35.75C16.8438 36.6992 17.6133 37.4688 18.5625 37.4688H25.4375C26.3867 37.4688 27.1562 36.6992 27.1562 35.75C27.1562 34.8008 26.3867 34.0312 25.4375 34.0312H18.5625Z" fill="#55625D"/>
</g>
<defs>
<clipPath id="clip0_2405_575">
<rect width="44" height="44" fill="white"/>
</clipPath>
</defs>
</svg>
