<svg width="44" height="44" viewBox="0 0 44 44" fill="none" xmlns="http://www.w3.org/2000/svg">
<g clip-path="url(#clip0_2405_560)">
<path fill-rule="evenodd" clip-rule="evenodd" d="M19.7345 11.1334C20.4252 10.9607 20.8451 10.2609 20.6725 9.57018L19.2974 4.06986C19.2952 4.06 19.2928 4.05014 19.2904 4.04028C19.2878 4.0298 19.285 4.01937 19.2822 4.00901L19.1468 3.46752C20.7959 2.28166 23.2042 2.28166 24.8532 3.46752L24.7171 4.01204L24.7136 4.02505L24.7098 4.0401L24.7035 4.06644L23.3276 9.57018C23.1549 10.2609 23.5748 10.9607 24.2655 11.1334C24.9562 11.3061 25.6561 10.8861 25.8287 10.1955L26.8855 5.96827C27.7181 6.25413 28.5177 6.61105 29.277 7.03177L28.3301 10.8207C28.1575 11.5114 28.5775 12.2112 29.2682 12.3838C29.9588 12.5564 30.6587 12.1365 30.8313 11.4458L31.5483 8.57678C34.163 10.7282 36.0389 13.7448 36.7376 17.1875H7.26257C7.96139 13.7448 9.8373 10.7282 12.452 8.57682L13.169 11.4458C13.3416 12.1365 14.0415 12.5564 14.7322 12.3838C15.4229 12.2112 15.8428 11.5114 15.6702 10.8207L14.7233 7.03185C15.4826 6.61118 16.2821 6.25431 17.1146 5.96848L18.1713 10.1955C18.344 10.8861 19.0439 11.3061 19.7345 11.1334ZM39.3605 17.1875H40.1328C42.2685 17.1875 44 18.9189 44 21.0547C44 23.0745 42.4513 24.7328 40.4765 24.9068V28.9609C40.4765 29.6728 39.8994 30.25 39.1875 30.25H37.1663C36.8785 31.1743 36.5089 32.0615 36.0655 32.9045L37.4956 34.3346C37.7373 34.5764 37.8732 34.9042 37.8732 35.2461C37.8732 35.588 37.7373 35.9159 37.4956 36.1576L32.6342 41.0189C32.1308 41.5223 31.3146 41.5223 30.8112 41.0189L29.3811 39.5889C28.5381 40.0322 27.6509 40.4019 26.7265 40.6897V42.7109C26.7265 43.4228 26.1494 44 25.4375 44H18.5625C17.8506 44 17.2734 43.4228 17.2734 42.7109V40.6897C16.3491 40.4019 15.4619 40.0322 14.6189 39.5889L13.1888 41.0189C12.6854 41.5223 11.8692 41.5223 11.3658 41.0189L6.50439 36.1576C6.26264 35.9159 6.12683 35.588 6.12683 35.2461C6.12683 34.9042 6.26264 34.5764 6.50438 34.3346L7.93447 32.9045C7.49108 32.0615 7.12148 31.1743 6.83368 30.25H4.8125C4.10057 30.25 3.52344 29.6728 3.52344 28.9609V24.9068C1.54871 24.7328 0 23.0745 0 21.0547C0 18.9189 1.73144 17.1875 3.86718 17.1875H4.63973C5.75191 10.7245 10.3822 5.46959 16.4873 3.45947L16.4526 3.32048C16.3428 2.8812 16.4715 2.41651 16.7916 2.09633C19.5868 -0.698776 24.4133 -0.698776 27.2084 2.09633C27.5286 2.41651 27.6573 2.8812 27.5475 3.32048L27.5128 3.45927C33.618 5.4694 38.2484 10.7245 39.3605 17.1875ZM32.725 24.9218H37.8984V27.6718H36.1857C35.5904 27.6718 35.0725 28.0795 34.9327 28.6581C34.6046 30.016 34.0697 31.2895 33.3604 32.45C33.0498 32.958 33.1277 33.6127 33.5487 34.0338L34.7611 35.2461L31.7227 38.2844L30.5103 37.0721C30.0893 36.651 29.4346 36.5731 28.9265 36.8837C27.766 37.5931 26.4925 38.128 25.1347 38.4561C24.5561 38.5959 24.1484 39.1138 24.1484 39.7091V41.4218H19.8516V39.7091C19.8516 39.1138 19.4439 38.5959 18.8653 38.4561C17.5075 38.128 16.2339 37.5931 15.0734 36.8837C14.5654 36.5731 13.9107 36.651 13.4896 37.0721L12.2773 38.2844L9.2389 35.2461L10.4513 34.0338C10.8723 33.6127 10.9502 32.958 10.6396 32.45C9.93027 31.2895 9.3954 30.016 9.06729 28.6581C8.92747 28.0795 8.40959 27.6718 7.81429 27.6718H6.10156V24.9218H11.275C11.2636 25.1208 11.2578 25.3214 11.2578 25.5234C11.2578 31.4561 16.0672 36.2656 22 36.2656C27.9327 36.2656 32.7422 31.4561 32.7422 25.5234C32.7422 25.3214 32.7364 25.1208 32.725 24.9218ZM31.2851 22.3437C31.2682 22.3434 31.2512 22.3434 31.2341 22.3437H12.7658C12.7487 22.3434 12.7317 22.3434 12.7148 22.3437H3.86718C3.1553 22.3437 2.57812 21.7665 2.57812 21.0547C2.57812 20.3428 3.1553 19.7656 3.86718 19.7656H5.74233C5.75667 19.7658 5.77097 19.7658 5.78522 19.7656H40.1328C40.8447 19.7656 41.4218 20.3428 41.4218 21.0547C41.4218 21.7665 40.8447 22.3437 40.1328 22.3437H31.2851ZM13.8587 24.9218H30.1413C30.1563 25.1205 30.1641 25.3211 30.1641 25.5234C30.1641 30.0323 26.5089 33.6875 22 33.6875C17.4911 33.6875 13.8359 30.0323 13.8359 25.5234C13.8359 25.3211 13.8437 25.1205 13.8587 24.9218Z" fill="#55625D"/>
</g>
<defs>
<clipPath id="clip0_2405_560">
<rect width="44" height="44" fill="white"/>
</clipPath>
</defs>
</svg>
