<svg width="44" height="44" viewBox="0 0 44 44" fill="none" xmlns="http://www.w3.org/2000/svg">
<path fill-rule="evenodd" clip-rule="evenodd" d="M17.8124 43.4321C18.6797 43.8014 19.612 43.9941 20.5546 43.999C21.4052 44.0136 22.2513 43.8734 23.0517 43.5853C24.2167 43.1222 25.2228 42.3549 25.9736 41.377C26.0653 41.4389 26.1642 41.4911 26.2688 41.5323C26.9531 41.7729 27.6729 41.8972 28.3982 41.9C29.6304 41.889 30.8324 41.5176 31.856 40.8316C32.8796 40.1456 33.68 39.1749 34.1584 38.0394L42.3238 19.1502C42.6574 18.3919 42.8373 17.5749 42.8531 16.7466C42.8689 15.9183 42.7202 15.095 42.4158 14.3245L39.2139 6.29699C38.6738 4.88963 37.6477 3.72207 36.3214 3.00554C34.9952 2.28901 33.4562 2.07083 31.983 2.39047C31.7946 2.43004 31.617 2.50357 31.4582 2.60573C30.765 1.7542 29.8723 1.07205 28.8462 0.627557C27.1695 -0.0988376 25.2733 -0.131418 23.5726 0.536946L14.5033 4.06048C13.6703 4.39526 12.9113 4.89093 12.2699 5.51918C11.6286 6.14743 11.1173 6.89593 10.7653 7.72189L1.57349 28.8937C1.21134 29.7232 1.01681 30.6161 1.00112 31.521C0.985434 32.426 1.14889 33.3251 1.48208 34.1666C1.81526 35.0081 2.31161 35.7754 2.94253 36.4243C3.57345 37.0732 4.32649 37.591 5.15831 37.9477L17.8124 43.4321ZM29.6891 38.575C28.9549 38.8936 28.1294 38.9282 27.3722 38.6737L36.0275 18.7521C36.3923 17.9208 36.5871 17.0249 36.6002 16.1172C36.6134 15.2095 36.4447 14.3083 36.1041 13.4668L32.9114 5.40316C33.5793 5.31358 34.2612 5.43375 34.8611 5.75092C35.5467 6.11339 36.08 6.70921 36.3645 7.43065L39.5203 15.4888C39.8423 16.2848 39.8423 17.1747 39.5203 17.9706L31.3702 36.8904C31.0445 37.6453 30.4434 38.2477 29.6891 38.575ZM4.33976 33.0323C3.96711 32.0892 3.98048 31.0373 4.377 30.104L13.5382 8.94746C13.7336 8.48273 14.02 8.06173 14.3804 7.7092C14.7408 7.35668 15.168 7.07973 15.637 6.89462L24.7063 3.30981C25.649 2.93781 26.7008 2.95465 27.6312 3.35667C28.5615 3.75868 29.2946 4.51307 29.6698 5.45457L33.2547 14.5238C33.637 15.4617 33.637 16.512 33.2547 17.4499L24.0628 38.6217C23.8644 39.0831 23.5769 39.5007 23.2167 39.8507C22.8566 40.2006 22.4309 40.476 21.964 40.6611C21.4971 40.8461 20.9983 40.9371 20.4962 40.9289C19.9941 40.9207 19.4985 40.8135 19.038 40.6133L6.36856 35.1442C5.44117 34.734 4.71241 33.9754 4.33976 33.0323ZM24.9669 9.31524C25.2584 9.4342 25.5713 9.49157 25.8861 9.48375C26.337 9.50782 26.7845 9.39292 27.168 9.15457C27.5516 8.91622 27.8527 8.56591 28.0308 8.15094C28.2531 7.60589 28.2531 6.9955 28.0308 6.45045C27.8875 6.12609 27.6686 5.84075 27.3925 5.6183C27.1163 5.39584 26.7909 5.24273 26.4435 5.17177C26.096 5.10081 25.7367 5.11406 25.3954 5.21041C25.0541 5.30677 24.7409 5.48342 24.4818 5.72561C24.2228 5.9678 24.0255 6.26848 23.9065 6.60252C23.7875 6.93655 23.7501 7.29423 23.7976 7.64565C23.8451 7.99707 23.976 8.33201 24.1794 8.62248C24.3829 8.91294 24.6529 9.15048 24.9669 9.31524ZM25.2005 19.1486C24.8735 18.331 24.3124 17.6282 23.5877 17.1281L24.0473 16.0863L20.6157 14.5544L20.1101 15.7034C19.5249 15.6341 18.9336 15.6341 18.3484 15.7034C17.737 15.7781 17.1546 16.0071 16.6561 16.3689C16.1577 16.7307 15.7594 17.2134 15.4989 17.7715C15.0968 18.6064 15.0098 19.5585 15.2538 20.4525C15.7195 21.5938 16.5277 22.5625 17.567 23.2253L19.2522 24.5122C19.8344 25.0637 20.0335 25.5692 19.8344 26.0442C19.7689 26.1737 19.6607 26.2765 19.528 26.3352C19.2177 26.4546 18.8845 26.5029 18.5531 26.4763C18.2216 26.4498 17.9004 26.3493 17.613 26.182C17.3265 26.0593 17.0664 25.8825 16.847 25.6612C16.5882 25.4407 16.4102 25.1404 16.3408 24.8075C16.2715 24.4747 16.3148 24.1283 16.464 23.8228L12.7107 23.3479C12.6494 23.7336 12.6494 24.1265 12.7107 24.5122C12.7737 25.2191 12.9866 25.9044 13.3353 26.5226C13.684 27.1407 14.1605 27.6775 14.7329 28.097L14.2427 29.2153L17.6896 30.7473L18.1645 29.6443C18.8954 29.7586 19.6396 29.7586 20.3706 29.6443C20.9995 29.6111 21.6077 29.4085 22.1309 29.0579C22.6541 28.7073 23.0728 28.2218 23.3426 27.6527C23.6319 27.0733 23.7618 26.4273 23.7187 25.7811C23.6756 25.1349 23.4612 24.5118 23.0975 23.976C22.4172 23.1194 21.6115 22.3705 20.7076 21.7546C20.3181 21.5035 19.9493 21.2217 19.6046 20.9121C18.9918 20.3146 18.7926 19.8244 18.9918 19.3801C19.0671 19.236 19.1847 19.1184 19.3288 19.043C19.567 18.9255 19.8291 18.8644 20.0948 18.8644C20.3605 18.8644 20.6225 18.9255 20.8608 19.043C21.0777 19.1308 21.2716 19.267 21.4276 19.4414C21.6593 19.6748 21.8098 19.9766 21.8567 20.3022C21.9036 20.6277 21.8444 20.9597 21.688 21.2491L25.4261 21.724C25.606 20.862 25.5275 19.9662 25.2005 19.1486Z" fill="#55625D"/>
</svg>
