<svg width="44" height="44" viewBox="0 0 44 44" fill="none" xmlns="http://www.w3.org/2000/svg">
<g clip-path="url(#clip0_2405_548)">
<path fill-rule="evenodd" clip-rule="evenodd" d="M20.707 12.6176H29.7645V18.4411H15.7041L19.7383 13.1255C19.9041 12.8858 20.4161 12.6176 20.707 12.6176ZM9.61289 21.026L4.05839 21.903C3.27353 22.027 2.58843 22.8274 2.58843 23.6148V28.7505C2.61176 25.9116 4.92031 23.6175 7.76472 23.6175C10.6236 23.6175 12.9412 25.935 12.9412 28.7939V28.794H33.6471V28.7939C33.6471 25.935 35.9646 23.6175 38.8235 23.6175C39.5082 23.6175 40.1618 23.7504 40.76 23.9918L40.3061 21.0293H9.70591C9.67463 21.0293 9.64361 21.0282 9.61289 21.026ZM39.9096 18.4411L39.0175 12.6175H32.3528V18.4411H39.9096ZM38.8236 33.9704C36.9076 33.9704 35.2347 32.9295 34.3396 31.3823H12.2941C12.279 31.3823 12.264 31.382 12.2491 31.3815C11.3541 32.9291 9.68103 33.9704 7.76472 33.9704C5.84873 33.9704 4.17588 32.9295 3.28084 31.3823H1.29413C0.579387 31.3823 0 30.8029 0 30.0881V23.6148C0 21.5528 1.61253 19.6688 3.65457 19.3464L12.8755 17.8867L17.6435 11.6062C18.2596 10.7142 19.5667 10.0292 20.707 10.0292H40.1176H41.4117C42.1264 10.0292 42.7058 10.6086 42.7058 11.3234C42.7058 11.966 42.2374 12.4992 41.6234 12.6002L43.9848 27.9501C44.0064 28.0905 44.0046 28.229 43.9823 28.3618C43.9941 28.5043 44.0001 28.6484 44.0001 28.7939C44.0001 31.6528 41.6825 33.9704 38.8236 33.9704ZM10.353 28.7939C10.353 27.3644 9.1942 26.2057 7.76472 26.2057C6.33523 26.2057 5.17644 27.3644 5.17644 28.7939C5.17644 30.2234 6.33523 31.3822 7.76472 31.3822C9.1942 31.3822 10.353 30.2233 10.353 28.7939ZM41.4118 28.7939C41.4118 27.3644 40.253 26.2057 38.8235 26.2057C37.394 26.2057 36.2352 27.3644 36.2352 28.7939C36.2352 30.2234 37.394 31.3822 38.8235 31.3822C40.253 31.3822 41.4118 30.2233 41.4118 28.7939Z" fill="#55625D"/>
</g>
<defs>
<clipPath id="clip0_2405_548">
<rect width="44" height="44" fill="white"/>
</clipPath>
</defs>
</svg>
