<svg width="44" height="44" viewBox="0 0 44 44" fill="none" xmlns="http://www.w3.org/2000/svg">
<g clip-path="url(#clip0_2405_657)">
<path fill-rule="evenodd" clip-rule="evenodd" d="M39.2857 3.14286H37.7143V1.57143C37.7143 1.15466 37.5487 0.754961 37.254 0.460261C36.9593 0.165561 36.5596 0 36.1429 0C35.7261 0 35.3264 0.165561 35.0317 0.460261C34.737 0.754961 34.5714 1.15466 34.5714 1.57143V3.14286H28.2857V1.57143C28.2857 1.15466 28.1202 0.754961 27.8255 0.460261C27.5308 0.165561 27.1311 0 26.7143 0C26.2975 0 25.8978 0.165561 25.6031 0.460261C25.3084 0.754961 25.1429 1.15466 25.1429 1.57143V3.14286H18.8571V1.57143C18.8571 1.15466 18.6916 0.754961 18.3969 0.460261C18.1022 0.165561 17.7025 0 17.2857 0C16.8689 0 16.4692 0.165561 16.1745 0.460261C15.8798 0.754961 15.7143 1.15466 15.7143 1.57143V3.14286H9.42857V1.57143C9.42857 1.15466 9.26301 0.754961 8.96831 0.460261C8.67361 0.165561 8.27391 0 7.85714 0C7.44037 0 7.04068 0.165561 6.74598 0.460261C6.45128 0.754961 6.28571 1.15466 6.28571 1.57143V3.14286H4.71429C3.46398 3.14286 2.26488 3.63954 1.38078 4.52364C0.496682 5.40774 0 6.60684 0 7.85714V39.2857C0 40.536 0.496682 41.7351 1.38078 42.6192C2.26488 43.5033 3.46398 44 4.71429 44H39.2857C40.536 44 41.7351 43.5033 42.6192 42.6192C43.5033 41.7351 44 40.536 44 39.2857V7.85714C44 6.60684 43.5033 5.40774 42.6192 4.52364C41.7351 3.63954 40.536 3.14286 39.2857 3.14286ZM40.8571 39.2857C40.8571 39.7025 40.6916 40.1022 40.3969 40.3969C40.1022 40.6916 39.7025 40.8571 39.2857 40.8571H4.71429C4.29752 40.8571 3.89782 40.6916 3.60312 40.3969C3.30842 40.1022 3.14286 39.7025 3.14286 39.2857V17.2857H40.8571V39.2857ZM40.8571 14.1429H3.14286V7.85714C3.14286 7.44037 3.30842 7.04068 3.60312 6.74598C3.89782 6.45128 4.29752 6.28571 4.71429 6.28571H6.28571V7.85714C6.28571 8.27391 6.45128 8.67361 6.74598 8.96831C7.04068 9.26301 7.44037 9.42857 7.85714 9.42857C8.27391 9.42857 8.67361 9.26301 8.96831 8.96831C9.26301 8.67361 9.42857 8.27391 9.42857 7.85714V6.28571H15.7143V7.85714C15.7143 8.27391 15.8798 8.67361 16.1745 8.96831C16.4692 9.26301 16.8689 9.42857 17.2857 9.42857C17.7025 9.42857 18.1022 9.26301 18.3969 8.96831C18.6916 8.67361 18.8571 8.27391 18.8571 7.85714V6.28571H25.1429V7.85714C25.1429 8.27391 25.3084 8.67361 25.6031 8.96831C25.8978 9.26301 26.2975 9.42857 26.7143 9.42857C27.1311 9.42857 27.5308 9.26301 27.8255 8.96831C28.1202 8.67361 28.2857 8.27391 28.2857 7.85714V6.28571H34.5714V7.85714C34.5714 8.27391 34.737 8.67361 35.0317 8.96831C35.3264 9.26301 35.7261 9.42857 36.1429 9.42857C36.5596 9.42857 36.9593 9.26301 37.254 8.96831C37.5487 8.67361 37.7143 8.27391 37.7143 7.85714V6.28571H39.2857C39.7025 6.28571 40.1022 6.45128 40.3969 6.74598C40.6916 7.04068 40.8571 7.44037 40.8571 7.85714V14.1429ZM20.4287 26.7143H23.5716C23.9884 26.7143 24.3881 26.5488 24.6828 26.2541C24.9775 25.9594 25.143 25.5597 25.143 25.1429C25.143 24.7262 24.9775 24.3265 24.6828 24.0318C24.3881 23.7371 23.9884 23.5715 23.5716 23.5715H20.4287C20.012 23.5715 19.6123 23.7371 19.3176 24.0318C19.0229 24.3265 18.8573 24.7262 18.8573 25.1429C18.8573 25.5597 19.0229 25.9594 19.3176 26.2541C19.6123 26.5488 20.012 26.7143 20.4287 26.7143ZM12.5716 26.7143H9.42874C9.01197 26.7143 8.61227 26.5488 8.31757 26.2541C8.02287 25.9594 7.85731 25.5597 7.85731 25.1429C7.85731 24.7262 8.02287 24.3265 8.31757 24.0318C8.61227 23.7371 9.01197 23.5715 9.42874 23.5715H12.5716C12.9884 23.5715 13.3881 23.7371 13.6828 24.0318C13.9775 24.3265 14.143 24.7262 14.143 25.1429C14.143 25.5597 13.9775 25.9594 13.6828 26.2541C13.3881 26.5488 12.9884 26.7143 12.5716 26.7143ZM31.4287 26.7143H34.5716C34.9884 26.7143 35.3881 26.5488 35.6828 26.2541C35.9775 25.9594 36.143 25.5597 36.143 25.1429C36.143 24.7262 35.9775 24.3265 35.6828 24.0318C35.3881 23.7371 34.9884 23.5715 34.5716 23.5715H31.4287C31.012 23.5715 30.6123 23.7371 30.3176 24.0318C30.0229 24.3265 29.8573 24.7262 29.8573 25.1429C29.8573 25.5597 30.0229 25.9594 30.3176 26.2541C30.6123 26.5488 31.012 26.7143 31.4287 26.7143ZM23.5716 34.5714H20.4287C20.012 34.5714 19.6123 34.4058 19.3176 34.1111C19.0229 33.8164 18.8573 33.4167 18.8573 32.9999C18.8573 32.5832 19.0229 32.1835 19.3176 31.8888C19.6123 31.5941 20.012 31.4285 20.4287 31.4285H23.5716C23.9884 31.4285 24.3881 31.5941 24.6828 31.8888C24.9775 32.1835 25.143 32.5832 25.143 32.9999C25.143 33.4167 24.9775 33.8164 24.6828 34.1111C24.3881 34.4058 23.9884 34.5714 23.5716 34.5714ZM9.42874 34.5714H12.5716C12.9884 34.5714 13.3881 34.4058 13.6828 34.1111C13.9775 33.8164 14.143 33.4167 14.143 32.9999C14.143 32.5832 13.9775 32.1835 13.6828 31.8888C13.3881 31.5941 12.9884 31.4285 12.5716 31.4285H9.42874C9.01197 31.4285 8.61227 31.5941 8.31757 31.8888C8.02287 32.1835 7.85731 32.5832 7.85731 32.9999C7.85731 33.4167 8.02287 33.8164 8.31757 34.1111C8.61227 34.4058 9.01197 34.5714 9.42874 34.5714ZM34.5716 34.5714H31.4287C31.012 34.5714 30.6123 34.4058 30.3176 34.1111C30.0229 33.8164 29.8573 33.4167 29.8573 32.9999C29.8573 32.5832 30.0229 32.1835 30.3176 31.8888C30.6123 31.5941 31.012 31.4285 31.4287 31.4285H34.5716C34.9884 31.4285 35.3881 31.5941 35.6828 31.8888C35.9775 32.1835 36.143 32.5832 36.143 32.9999C36.143 33.4167 35.9775 33.8164 35.6828 34.1111C35.3881 34.4058 34.9884 34.5714 34.5716 34.5714Z" fill="#55625D"/>
</g>
<defs>
<clipPath id="clip0_2405_657">
<rect width="44" height="44" fill="white"/>
</clipPath>
</defs>
</svg>
