<svg width="44" height="44" viewBox="0 0 44 44" fill="none" xmlns="http://www.w3.org/2000/svg">
<g clip-path="url(#clip0_2405_597)">
<path fill-rule="evenodd" clip-rule="evenodd" d="M5.3837 1.81255C2.25527 1.81255 -0.283752 4.35156 -0.283752 7.48C-0.283752 10.0727 1.4601 12.2605 3.83808 12.9338V21.9062V30.8787C1.4601 31.552 -0.283752 33.7398 -0.283752 36.3325C-0.283752 39.4609 2.25527 42 5.3837 42C8.51213 42 11.0512 39.4609 11.0512 36.3325C11.0512 33.7399 9.30735 31.552 6.92942 30.8787V23.4518H20.3254V30.8785C17.9471 31.5516 16.2029 33.7396 16.2029 36.3325C16.2029 39.4609 18.7419 42 21.8704 42C24.9988 42 27.5378 39.4609 27.5378 36.3325C27.5378 33.7401 25.7944 31.5524 23.4167 30.8789V23.4518H36.2971C38.29 23.4518 39.9037 21.8361 39.9037 19.8453V12.9339C42.2818 12.2607 44.0258 10.0728 44.0258 7.48C44.0258 4.35156 41.4868 1.81255 38.3584 1.81255C35.2299 1.81255 32.6909 4.35156 32.6909 7.48C32.6909 10.0725 34.4346 12.2603 36.8123 12.9337V19.8453C36.8123 20.1297 36.5815 20.3605 36.2971 20.3605H23.4167V12.9336C25.7944 12.2601 27.5378 10.0724 27.5378 7.48C27.5378 4.35156 24.9988 1.81255 21.8704 1.81255C18.7419 1.81255 16.2029 4.35156 16.2029 7.48C16.2029 10.0729 17.9471 12.2609 20.3254 12.934V20.3605H6.92942V12.9338C9.30735 12.2605 11.0512 10.0726 11.0512 7.48C11.0512 4.35156 8.51213 1.81255 5.3837 1.81255ZM38.369 10.0561C38.3653 10.0561 38.3617 10.056 38.358 10.056C38.3543 10.056 38.3507 10.0561 38.347 10.0561C36.9302 10.05 35.7822 8.89823 35.7822 7.48C35.7822 6.05798 36.9363 4.90388 38.3584 4.90388C39.7804 4.90388 40.9345 6.05798 40.9345 7.48C40.9345 8.89846 39.7861 10.0503 38.369 10.0561ZM5.39487 10.0561C6.81175 10.0501 7.95981 8.89829 7.95981 7.48C7.95981 6.05798 6.80571 4.90388 5.3837 4.90388C3.96168 4.90388 2.80759 6.05798 2.80759 7.48C2.80759 8.89831 3.95568 10.0501 5.37259 10.0561L5.38375 10.056L5.39487 10.0561ZM5.3837 33.7564C6.80571 33.7564 7.95981 34.9105 7.95981 36.3325C7.95981 37.7545 6.80571 38.9086 5.3837 38.9086C3.96168 38.9086 2.80759 37.7545 2.80759 36.3325C2.80759 34.9105 3.96168 33.7564 5.3837 33.7564ZM24.4465 7.48C24.4465 8.89816 23.2987 10.0498 21.882 10.0561L21.8711 10.056L21.8597 10.0561C20.4426 10.0503 19.2943 8.89845 19.2943 7.48C19.2943 6.05798 20.4484 4.90388 21.8704 4.90388C23.2924 4.90388 24.4465 6.05798 24.4465 7.48ZM21.8704 33.7564C23.2924 33.7564 24.4465 34.9105 24.4465 36.3325C24.4465 37.7545 23.2924 38.9086 21.8704 38.9086C20.4484 38.9086 19.2943 37.7545 19.2943 36.3325C19.2943 34.9105 20.4484 33.7564 21.8704 33.7564ZM38.3584 30.6651C35.2299 30.6651 32.6909 33.2041 32.6909 36.3325C32.6909 39.4609 35.2299 42 38.3584 42C41.4868 42 44.0258 39.4609 44.0258 36.3325C44.0258 33.2041 41.4868 30.6651 38.3584 30.6651ZM38.3584 33.7564C39.7804 33.7564 40.9345 34.9105 40.9345 36.3325C40.9345 37.7545 39.7804 38.9086 38.3584 38.9086C36.9363 38.9086 35.7822 37.7545 35.7822 36.3325C35.7822 34.9105 36.9363 33.7564 38.3584 33.7564Z" fill="#55625D"/>
</g>
<defs>
<clipPath id="clip0_2405_597">
<rect width="44" height="44" fill="white"/>
</clipPath>
</defs>
</svg>
