<svg width="44" height="44" viewBox="0 0 44 44" fill="none" xmlns="http://www.w3.org/2000/svg">
<path fill-rule="evenodd" clip-rule="evenodd" d="M10.751 38.884H15.9615C16.822 38.884 17.5195 39.5815 17.5195 40.442C17.5195 41.3025 16.822 42 15.9615 42H10.751C7.3147 42 4.51907 39.2044 4.51907 35.7681V8.34779C4.51907 4.91153 7.3147 2.11591 10.751 2.11591H29.9054C33.3416 2.11591 36.1373 4.91153 36.1373 8.34779V17.9293C36.1373 18.7898 35.4398 19.4873 34.5793 19.4873C33.7188 19.4873 33.0213 18.7898 33.0213 17.9293V8.34779C33.0213 6.62966 31.6235 5.23185 29.9054 5.23185H10.751C9.03283 5.23185 7.63502 6.62966 7.63502 8.34779V35.7681C7.63502 37.4862 9.03283 38.884 10.751 38.884ZM29.9056 19.2536C29.9056 18.3932 29.2081 17.6957 28.3476 17.6957H12.3005C11.4401 17.6957 10.7426 18.3932 10.7426 19.2536C10.7426 20.1141 11.4401 20.8116 12.3005 20.8116H28.3476C29.2081 20.8116 29.9056 20.1141 29.9056 19.2536ZM12.3005 23.9275C11.4401 23.9275 10.7426 24.625 10.7426 25.4855C10.7426 26.3459 11.4401 27.0434 12.3005 27.0434H22.0465C22.907 27.0434 23.6045 26.3459 23.6045 25.4855C23.6045 24.625 22.907 23.9275 22.0465 23.9275H12.3005ZM38.8968 24.6732C37.0744 22.8508 34.1093 22.8507 32.2881 24.6719L23.7346 33.2065C23.553 33.3878 23.419 33.611 23.3444 33.8566L21.4816 39.9891C21.3164 40.5329 21.4603 41.1232 21.8571 41.53C22.1544 41.8346 22.5582 42 22.9724 42C23.111 42 23.2509 41.9815 23.3882 41.9434L29.6766 40.2015C29.9354 40.1298 30.1712 39.9925 30.3613 39.8027L38.8969 31.2832C40.7192 29.4608 40.7192 26.4957 38.8968 24.6732ZM28.45 37.308L25.2864 38.1844L26.2122 35.1363L31.9836 29.3776L34.1874 31.5814L28.45 37.308ZM36.6947 29.079L36.3928 29.3802L34.1895 27.1768L34.4903 26.8766C35.0978 26.2692 36.0861 26.2692 36.6936 26.8766C37.3011 27.4841 37.3011 28.4724 36.6947 29.079ZM12.3005 11.4638H28.3476C29.2081 11.4638 29.9056 12.1613 29.9056 13.0218C29.9056 13.8823 29.2081 14.5798 28.3476 14.5798H12.3005C11.4401 14.5798 10.7426 13.8823 10.7426 13.0218C10.7426 12.1613 11.4401 11.4638 12.3005 11.4638Z" fill="#55625D"/>
</svg>
