<svg width="16" height="16" viewBox="0 0 16 16" fill="none" xmlns="http://www.w3.org/2000/svg">
<g clip-path="url(#clip0_2401_3433)">
<path d="M12.7834 6.44065L5.28347 13.9396L5.28328 13.9398C5.03835 14.1849 4.72858 14.3551 4.39031 14.4304L0.763211 15.2368L1.5748 11.586L1.5748 11.586C1.64659 11.263 1.80891 10.9672 2.04278 10.7331L9.55955 3.21722L12.7834 6.44065ZM11.2577 1.51827L11.4296 1.34637C11.8586 0.928758 12.4346 0.696552 13.0334 0.700039C13.6335 0.703533 14.208 0.94343 14.6323 1.36767C15.0566 1.79191 15.2965 2.36628 15.3 2.96619C15.3034 3.56484 15.0713 4.14079 14.6536 4.56966L14.4815 4.7417L11.2577 1.51827Z" stroke="white" stroke-width="1.4"/>
</g>
<defs>
<clipPath id="clip0_2401_3433">
<rect width="16" height="16" fill="white"/>
</clipPath>
</defs>
</svg>
