<svg width="15" height="15" fill="none" xmlns="http://www.w3.org/2000/svg"><path fill-rule="evenodd" clip-rule="evenodd" d="M.438 13.213a.438.438 0 0 1-.43-.521l.482-2.478a.439.439 0 0 1 .12-.226l7.86-7.86a.438.438 0 0 1 .62 0l2.005 2.006a.438.438 0 0 1 0 .62l-7.86 7.86a.439.439 0 0 1-.228.12l-2.487.472a.442.442 0 0 1-.082.007Zm.886-2.7-.333 1.712 1.72-.326 7.455-7.455L8.78 3.058l-7.456 7.455Z" fill="#5EC3CA"/><path fill-rule="evenodd" clip-rule="evenodd" d="M9.296 6.372a.437.437 0 0 1-.31-.129L6.982 4.238a.438.438 0 1 1 .619-.62l2.006 2.006a.438.438 0 0 1-.31.748Z" fill="#5EC3CA"/><path stroke="#5EC3CA" stroke-width=".5" d="M6.547 12.039h8.418"/></svg>