<svg width="20" height="20" viewBox="0 0 20 20" fill="none" xmlns="http://www.w3.org/2000/svg">
<path d="M19.9617 5.30327L12.9467 11.4255C12.1645 12.1064 11.1048 12.4888 10 12.4888C8.89521 12.4888 7.83552 12.1064 7.05333 11.4255L0.0383333 5.30327C0.0266667 5.41818 0 5.52218 0 5.63636V14.3636C0.00132321 15.3277 0.440735 16.252 1.22185 16.9337C2.00296 17.6154 3.062 17.9988 4.16667 18H15.8333C16.938 17.9988 17.997 17.6154 18.7782 16.9337C19.5593 16.252 19.9987 15.3277 20 14.3636V5.63636C20 5.52218 19.9733 5.41818 19.9617 5.30327Z" fill="#165840"/>
<path d="M11.7683 10.3971L19.38 3.75345C19.0113 3.21987 18.4912 2.77821 17.87 2.47108C17.2488 2.16394 16.5473 2.0017 15.8333 2H4.16667C3.45268 2.0017 2.75125 2.16394 2.13002 2.47108C1.50879 2.77821 0.988732 3.21987 0.62 3.75345L8.23167 10.3971C8.70131 10.8053 9.33715 11.0345 10 11.0345C10.6628 11.0345 11.2987 10.8053 11.7683 10.3971Z" fill="#165840"/>
</svg>
