<svg width="14" height="14" viewBox="0 0 14 14" fill="none" xmlns="http://www.w3.org/2000/svg">
<g clip-path="url(#clip0_2405_361)">
<path d="M1.46336 10.1568L1.46337 10.1567C1.52257 9.89038 1.65644 9.64637 1.8493 9.45329C1.84931 9.45328 1.84932 9.45327 1.84934 9.45326L8.3646 2.93881L11.0617 5.63557L4.56117 12.1353L4.56098 12.1355C4.35842 12.3382 4.10225 12.4789 3.82251 12.5412L0.783069 13.2169L1.46336 10.1568ZM9.97425 1.32849L10.0624 1.24036C10.4212 0.891234 10.903 0.697116 11.4038 0.700032C11.9058 0.702956 12.3864 0.90366 12.7414 1.25859C13.0963 1.61351 13.297 2.09403 13.3 2.59593C13.3029 3.09657 13.1088 3.57824 12.7596 3.93699L12.6713 4.02525L9.97425 1.32849Z" stroke="#165840" stroke-width="1.4"/>
</g>
<defs>
<clipPath id="clip0_2405_361">
<rect width="14" height="14" fill="white"/>
</clipPath>
</defs>
</svg>
