<svg width="18" height="18" viewBox="0 0 18 18" fill="none" xmlns="http://www.w3.org/2000/svg">
<g clip-path="url(#clip0_2405_296)">
<path fill-rule="evenodd" clip-rule="evenodd" d="M0 0.9C0 0.402944 0.402944 0 0.9 0H7.2C7.69706 0 8.1 0.402944 8.1 0.9V7.2C8.1 7.69706 7.69706 8.1 7.2 8.1H0.9C0.402944 8.1 0 7.69706 0 7.2V0.9ZM1.8 1.8V6.3H6.3V1.8H1.8ZM9.9 0.9C9.9 0.402944 10.3029 0 10.8 0H17.1C17.5971 0 18 0.402944 18 0.9V7.2C18 7.69706 17.5971 8.1 17.1 8.1H10.8C10.3029 8.1 9.9 7.69706 9.9 7.2V0.9ZM11.7 1.8V6.3H16.2V1.8H11.7ZM0 10.8C0 10.3029 0.402944 9.9 0.9 9.9H7.2C7.69706 9.9 8.1 10.3029 8.1 10.8V17.1C8.1 17.5971 7.69706 18 7.2 18H0.9C0.402944 18 0 17.5971 0 17.1V10.8ZM1.8 11.7V16.2H6.3V11.7H1.8ZM9.9 10.8C9.9 10.3029 10.3029 9.9 10.8 9.9H17.1C17.5971 9.9 18 10.3029 18 10.8V17.1C18 17.5971 17.5971 18 17.1 18H10.8C10.3029 18 9.9 17.5971 9.9 17.1V10.8ZM11.7 11.7V16.2H16.2V11.7H11.7Z" fill="#165840"/>
</g>
<defs>
<clipPath id="clip0_2405_296">
<rect width="18" height="18" fill="white"/>
</clipPath>
</defs>
</svg>
