<svg width="18" height="18" viewBox="0 0 18 18" fill="none" xmlns="http://www.w3.org/2000/svg">
<path fill-rule="evenodd" clip-rule="evenodd" d="M0 3C0 2.44772 0.447715 2 1 2H17C17.5523 2 18 2.44772 18 3C18 3.55228 17.5523 4 17 4H1C0.447716 4 0 3.55228 0 3ZM0 9C0 8.44772 0.447715 8 1 8H17C17.5523 8 18 8.44772 18 9C18 9.55228 17.5523 10 17 10H1C0.447716 10 0 9.55228 0 9ZM1 14C0.447715 14 0 14.4477 0 15C0 15.5523 0.447716 16 1 16H17C17.5523 16 18 15.5523 18 15C18 14.4477 17.5523 14 17 14H1Z" fill="#55625D"/>
</svg>
