<svg width="18" height="18" viewBox="0 0 18 18" fill="none" xmlns="http://www.w3.org/2000/svg">
<path d="M3.85942 2.25672L0.264071 5.75641L0.188474 5.83953C0.0542692 6.00797 -0.0121005 6.21823 0.0018178 6.43086C0.0157361 6.6435 0.108986 6.84388 0.264071 6.99443L0.349567 7.06705C0.522829 7.19752 0.739109 7.26204 0.957825 7.24851C1.17654 7.23498 1.38266 7.14432 1.53752 6.99355L3.60023 4.98386V15.1242L3.60653 15.2266C3.63211 15.4396 3.73726 15.636 3.90201 15.7786C4.06675 15.9211 4.27962 15.9999 4.50019 16L4.60549 15.9939C4.82456 15.9688 5.02652 15.8664 5.17302 15.706C5.31952 15.5457 5.40034 15.3387 5.40015 15.1242V4.98998L7.46376 6.99355L7.54926 7.06705C7.73017 7.20469 7.95837 7.26986 8.18711 7.24922C8.41584 7.22857 8.6278 7.12367 8.77956 6.95601C8.93131 6.78835 9.01137 6.57061 9.00333 6.34742C8.99529 6.12423 8.89976 5.91247 8.73631 5.75554L5.13106 2.25585L5.04647 2.18323C4.87321 2.05276 4.65693 1.98824 4.43821 2.00177C4.21949 2.0153 4.01427 2.10595 3.85942 2.25672ZM13.4998 2.003L13.3945 2.00912C13.1756 2.03419 12.9738 2.1365 12.8273 2.29664C12.6808 2.45679 12.5999 2.66362 12.5998 2.87792V13.0095L10.5362 11.0059L10.4507 10.9325C10.2698 10.7964 10.0423 10.7325 9.81458 10.7537C9.58686 10.7748 9.37597 10.8795 9.2248 11.0464C9.07363 11.2133 8.99351 11.4299 9.00073 11.6522C9.00795 11.8745 9.10198 12.0858 9.26369 12.2431L12.8671 15.7428L12.9517 15.8163C13.125 15.9467 13.3413 16.0113 13.56 15.9977C13.7787 15.9842 13.9848 15.8935 14.1397 15.7428L17.7359 12.2431L17.8115 12.16C17.9457 11.9915 18.0121 11.7813 17.9982 11.5686C17.9843 11.356 17.891 11.1556 17.7359 11.0051L17.6504 10.9325C17.4772 10.802 17.2609 10.7375 17.0422 10.751C16.8235 10.7645 16.6173 10.8552 16.4625 11.0059L14.3998 13.013V2.87792L14.3935 2.77643C14.3679 2.56344 14.2627 2.36701 14.098 2.22443C13.9332 2.08185 13.7204 2.00305 13.4998 2.003Z" fill="#55625D"/>
</svg>
