<svg width="20" height="20" viewBox="0 0 20 20" fill="none" xmlns="http://www.w3.org/2000/svg">
<g clip-path="url(#clip0_2395_666)">
<path d="M9.99991 0C4.4771 0 0 4.4771 0 9.99991C0 15.5227 4.4771 20 9.99991 20C15.5227 20 20 15.5227 20 9.99991C19.9938 4.47966 15.5203 0.00622554 9.99991 0ZM9.99991 2.00005C13.2947 1.98889 16.2551 4.01073 17.4439 7.08341C15.1047 6.03056 12.565 5.49754 9.99991 5.5208C7.43498 5.49754 4.89531 6.03056 2.55614 7.08341C3.74486 4.01073 6.7053 1.98889 9.99991 2.00005ZM8.35306 17.8286C4.87169 17.0852 2.29668 14.1362 2.02935 10.5864C5.01561 10.5864 8.35306 14.5625 8.35306 17.8286ZM9.99991 11.4999C9.17154 11.4999 8.49991 10.8285 8.49991 9.99991C8.49991 9.17154 9.17154 8.49991 9.99991 8.49991C10.8285 8.49991 11.4999 9.17154 11.4999 9.99991C11.4999 10.8285 10.8285 11.4999 9.99991 11.4999ZM11.6469 17.8286C11.6469 14.5625 14.9844 10.5864 17.9708 10.5864C17.7033 14.1362 15.1283 17.0852 11.6469 17.8286Z" fill="#A3ABA6"/>
</g>
<defs>
<clipPath id="clip0_2395_666">
<rect width="20" height="20" fill="white"/>
</clipPath>
</defs>
</svg>
