<svg width="20" height="20" viewBox="0 0 20 20" fill="none" xmlns="http://www.w3.org/2000/svg">
<g clip-path="url(#clip0_2401_3256)">
<path fill-rule="evenodd" clip-rule="evenodd" d="M0.598902 19.5467L19.5465 0.599215C19.6836 0.462221 19.6837 0.239993 19.5466 0.102882C19.4096 -0.0342288 19.1874 -0.034307 19.0503 0.102726L0.102764 19.0503C-0.0342297 19.1873 -0.0342297 19.4094 0.102764 19.5464C0.241593 19.6789 0.459916 19.679 0.598902 19.5467ZM6.73103 11.43L11.43 6.731C10.8024 6.01806 9.89739 5.61095 8.94754 5.61415C7.10744 5.61626 5.6163 7.10745 5.61419 8.9475C5.61094 9.89736 6.0181 10.8023 6.73103 11.43ZM9.14112 3.22987H9.1278C8.94115 3.23678 8.78182 3.09628 8.76534 2.91022L8.55483 0.382142C8.54666 0.284173 8.57998 0.18722 8.6467 0.114994C8.71338 0.0427284 8.80737 0.00179098 8.90569 0.00214254H9.33901C9.43733 0.00183004 9.53127 0.0427675 9.59799 0.114994C9.66471 0.18722 9.69803 0.284134 9.68986 0.382142L9.47936 2.90847C9.46451 3.08593 9.31908 3.22409 9.14112 3.22987ZM0.380005 9.68993L2.89648 9.47943C3.07883 9.46423 3.21887 9.3115 3.21824 9.12857V9.09349C3.21879 8.90978 3.07754 8.75677 2.89437 8.74263L0.377544 8.55037C0.279966 8.54294 0.183716 8.57658 0.111997 8.64322C0.0403178 8.70986 -0.000307079 8.80337 5.42003e-06 8.90126V9.33845C-0.000541454 9.43689 0.0403178 9.53107 0.112583 9.5979C0.184849 9.6647 0.28188 9.6981 0.380005 9.68993ZM6.18033 4.01688C6.02165 4.11548 5.81357 4.07243 5.70701 3.91899L4.26201 1.83478C4.20611 1.75415 4.1865 1.6538 4.20799 1.55806C4.22947 1.46232 4.29002 1.37994 4.37502 1.33091L4.75115 1.11373C4.83595 1.06517 4.93716 1.05423 5.03041 1.08345C5.12365 1.11267 5.20048 1.17947 5.2424 1.26775L6.3238 3.56212C6.39982 3.72333 6.3429 3.91587 6.19154 4.00985L6.18033 4.01688ZM3.99542 12.051C3.90351 11.8921 3.70464 11.831 3.53929 11.9107L1.26316 13.0019C1.17527 13.0442 1.10895 13.1212 1.08012 13.2144C1.05129 13.3076 1.06258 13.4086 1.11125 13.4931L1.32984 13.8717C1.37887 13.9567 1.46125 14.0173 1.55699 14.0388C1.65273 14.0602 1.75308 14.0406 1.83371 13.9847L3.90843 12.5461C4.05816 12.442 4.10312 12.2406 4.01195 12.0826L3.99542 12.051ZM13.2159 1.08255C13.3096 1.0533 13.4112 1.06459 13.4962 1.11373L13.8722 1.33087C13.9572 1.3799 14.0178 1.46228 14.0393 1.55802C14.0607 1.65376 14.0411 1.75412 13.9852 1.83474L12.5389 3.9186C12.4373 4.06485 12.2422 4.11177 12.0852 4.02774L12.0733 4.02142C11.9087 3.93317 11.8421 3.73142 11.9218 3.56247L13.0032 1.26775C13.045 1.179 13.1222 1.11181 13.2159 1.08255ZM3.91755 5.6815L1.83439 4.25659C1.75373 4.20139 1.65365 4.18237 1.55834 4.20409C1.46302 4.2258 1.38111 4.28627 1.33228 4.371L1.11369 4.74959C1.06517 4.8344 1.0542 4.93561 1.08341 5.02885C1.11263 5.12209 1.17943 5.19893 1.26771 5.24084L3.55228 6.31732C3.71692 6.39533 3.91384 6.33435 4.0056 6.17697L4.02313 6.14646C4.11481 5.98764 4.0688 5.78506 3.91755 5.6815ZM17.1546 8.23874L19.1054 7.71592C19.3505 7.6501 19.6121 7.72002 19.7917 7.89943C19.9712 8.07877 20.0414 8.3403 19.9759 8.58542C19.9103 8.83054 19.719 9.0221 19.4739 9.08792L17.523 9.61074L19.2143 10.4423C19.5428 10.6031 19.6957 10.9869 19.5679 11.3296C19.44 11.6723 19.0731 11.8622 18.7195 11.7686C18.6744 11.7575 18.6309 11.741 18.5897 11.7195L15.4353 10.1686L12.0738 11.0704L14.5335 13.53L18.0423 13.7651C18.43 13.7968 18.7202 14.1344 18.6933 14.5224C18.6664 14.9105 18.3325 15.2048 17.9441 15.1827L16.0634 15.0563L17.4915 16.4844C17.7696 16.7625 17.7696 17.2134 17.4915 17.4915C17.2134 17.7696 16.7625 17.7696 16.4844 17.4915L15.0563 16.0634L15.1827 17.9441C15.2048 18.3325 14.9105 18.6664 14.5224 18.6933C14.1343 18.7202 13.7968 18.43 13.7651 18.0423L13.53 14.5335L11.0704 12.0739L10.1686 15.4353L11.7195 18.5897C11.8918 18.9415 11.7475 19.3664 11.3966 19.5406C11.2427 19.6195 11.0641 19.6358 10.8984 19.5862C10.6989 19.5356 10.532 19.3995 10.4423 19.2143L9.61069 17.523L9.08787 19.4739C9.02209 19.719 8.83053 19.9103 8.58537 19.9759C8.34021 20.0414 8.07872 19.9712 7.89939 19.7917C7.72005 19.6121 7.65013 19.3506 7.71595 19.1055L8.23876 17.1546L6.67031 18.2038C6.50015 18.3175 6.28953 18.3532 6.09136 18.302C5.82054 18.2317 5.61636 18.0088 5.57011 17.7328C5.52386 17.4569 5.64417 17.1795 5.8773 17.0248L8.79662 15.0669L9.79663 11.3405L11.344 9.79313L15.0669 8.79663L17.0248 5.87731C17.1643 5.6616 17.4094 5.53801 17.6658 5.55406C17.9221 5.57012 18.1499 5.72332 18.2614 5.95473C18.373 6.18614 18.3509 6.45973 18.2037 6.67028L17.1546 8.23874Z" fill="#55625D" fill-opacity="0.5"/>
</g>
<defs>
<clipPath id="clip0_2401_3256">
<rect width="20" height="20" fill="white"/>
</clipPath>
</defs>
</svg>
