<svg width="20" height="20" viewBox="0 0 20 20" fill="none" xmlns="http://www.w3.org/2000/svg">
<g clip-path="url(#clip0_2401_3238)">
<path fill-rule="evenodd" clip-rule="evenodd" d="M6.84993 5.20361C8.31951 5.15496 10.0302 3.03811 9.0499 1.50737C8.9268 1.33779 8.76947 1.19593 8.58809 1.09098C8.40672 0.986025 8.20533 0.920314 7.99696 0.898097C7.78859 0.875879 7.57787 0.897649 7.37844 0.961998C7.17901 1.02635 6.99531 1.13184 6.83923 1.27166C6.68369 1.13141 6.50034 1.02552 6.30113 0.960898C6.10191 0.896275 5.89132 0.874369 5.68307 0.89661C5.47483 0.918852 5.27361 0.98474 5.09254 1.08998C4.91147 1.19522 4.75461 1.33744 4.63221 1.50737C3.64984 3.04398 5.36026 5.15796 6.84993 5.20361ZM16.6566 7.93916C14.8113 9.81258 12.122 10.1972 10.6782 7.55708C10.1125 6.74469 9.33819 4.18281 10.8925 2.89306C11.1527 2.68265 11.4564 2.53262 11.7816 2.45383C12.1069 2.37503 12.4455 2.36942 12.7732 2.43741C13.1009 2.5054 13.4094 2.64529 13.6764 2.84698C13.9434 3.04867 14.1623 3.30713 14.3174 3.6037C14.7365 3.33684 15.2318 3.21533 15.7268 3.25792C16.2218 3.30052 16.6891 3.50485 17.0564 3.83939C18.5087 5.18252 17.455 7.16161 16.6566 7.93916ZM4.39267 5.98211C4.40586 8.07012 2.75923 9.0088 0.96785 7.95707C0.621427 7.7428 -0.171382 7.14281 -0.0749354 6.24288C-0.0546231 6.05292 0.00476742 5.86921 0.099503 5.70331C0.194239 5.5374 0.322271 5.39289 0.475551 5.27885C0.62883 5.16481 0.804044 5.08372 0.990177 5.04067C1.17631 4.99761 1.36934 4.99353 1.55712 5.02867C1.62075 4.84815 1.72104 4.68274 1.85168 4.54285C1.98232 4.40296 2.14049 4.29161 2.31625 4.2158C2.492 4.14 2.68154 4.10137 2.87295 4.10236C3.06435 4.10334 3.25348 4.14392 3.42845 4.22153C4.25341 4.5858 4.37838 5.57505 4.39267 5.98211ZM3.78774 14.8604C4.1018 14.7157 4.44332 14.6401 4.78915 14.6389C5.13475 14.6403 5.47601 14.7161 5.78978 14.861C6.10355 15.0058 6.3825 15.2165 6.60773 15.4786C6.83296 15.7408 6.9992 16.0483 7.09517 16.3803C7.19115 16.7123 7.21463 17.0611 7.16401 17.403C6.72969 20.12 2.84663 20.1173 2.41068 17.403C2.36032 17.0609 2.38409 16.7119 2.48039 16.3798C2.57669 16.0476 2.74326 15.7401 2.96883 15.4779C3.19439 15.2158 3.47367 15.0052 3.78774 14.8604ZM15.0459 14.6389C14.7003 14.6403 14.359 14.7161 14.0452 14.861C13.7315 15.0059 13.4525 15.2165 13.2273 15.4787C13.002 15.7408 12.8358 16.0483 12.7398 16.3803C12.6439 16.7124 12.6204 17.0611 12.671 17.403C13.1067 20.1196 16.9823 20.1165 17.4244 17.4065C17.475 17.0642 17.4514 16.715 17.3552 16.3825C17.259 16.0501 17.0925 15.7422 16.867 15.4797C16.6414 15.2172 16.3621 15.0063 16.0479 14.8612C15.7337 14.7162 15.3919 14.6403 15.0459 14.6389ZM13.3228 11.9354C15.2386 11.9355 17.2235 11.9356 17.9171 11.9354C18.4475 11.9354 18.9562 12.1461 19.3312 12.5211C19.7063 12.8962 19.917 13.4049 19.917 13.9353V16.228C19.917 16.5406 19.7928 16.8404 19.5718 17.0614C19.3508 17.2824 19.051 17.4066 18.7385 17.4066L18.1456 17.4066C18.1968 16.9695 18.155 16.5265 18.0228 16.1068C17.8906 15.687 17.6711 15.3 17.3787 14.9711C17.0862 14.6422 16.7275 14.379 16.3261 14.1986C15.9247 14.0182 15.4897 13.9249 15.0496 13.9246C14.6095 13.9244 14.1744 14.0172 13.7727 14.1971C13.3711 14.377 13.0121 14.6399 12.7193 14.9684C12.4265 15.2969 12.2065 15.6837 12.0739 16.1033C11.9412 16.5229 11.8988 16.9658 11.9495 17.403L7.88542 17.403C7.93589 16.9659 7.89336 16.5231 7.76062 16.1036C7.62788 15.6841 7.40792 15.2974 7.11519 14.969C6.82246 14.6405 6.46358 14.3776 6.06209 14.1976C5.66059 14.0176 5.22558 13.9246 4.78559 13.9246C4.3456 13.9246 3.91058 14.0176 3.50909 14.1976C3.1076 14.3776 2.74871 14.6405 2.45598 14.969C2.16325 15.2974 1.94329 15.6841 1.81054 16.1036C1.6778 16.5231 1.63527 16.9659 1.68574 17.403H1.09292C0.781302 17.403 0.482449 17.2792 0.262103 17.0588C0.0417561 16.8385 -0.0820345 16.5396 -0.0820373 16.228V13.9353C-0.0820387 13.6727 -0.0303108 13.4126 0.0701931 13.17C0.170697 12.9273 0.318009 12.7069 0.503717 12.5211C0.689425 12.3354 0.909892 12.1881 1.15253 12.0876C1.39517 11.9871 1.65523 11.9354 1.91786 11.9354C2.02261 11.9266 2.13674 11.9317 2.25156 11.9368C2.57675 11.9512 2.90746 11.9658 3.04639 11.6675L4.43204 8.70696C4.59339 8.36306 4.84939 8.07225 5.17006 7.8686C5.49072 7.66494 5.86278 7.55687 6.24265 7.55704L9.85322 7.55693C10.7719 9.44079 12.6896 10.7371 14.7529 9.94621L15.3494 11.2212H9.36394C9.15626 11.2211 8.95289 11.162 8.77764 11.0505C8.60239 10.9391 8.46252 10.78 8.37442 10.592L8.09969 10.0056C8.05839 9.92164 7.9858 9.85725 7.89753 9.82626C7.80926 9.79527 7.71235 9.80014 7.62763 9.83984C7.54291 9.87953 7.47715 9.95088 7.44448 10.0385C7.41181 10.1262 7.41484 10.2232 7.45291 10.3087L7.72797 10.8955C7.87368 11.2063 8.10494 11.4692 8.39467 11.6534C8.6844 11.8376 9.0206 11.9354 9.36391 11.9354C10.0226 11.9353 11.6462 11.9353 13.3228 11.9354Z" fill="#55625D" fill-opacity="0.5"/>
</g>
<defs>
<clipPath id="clip0_2401_3238">
<rect width="20" height="20" fill="white"/>
</clipPath>
</defs>
</svg>
