<svg width="20" height="20" viewBox="0 0 20 20" fill="none" xmlns="http://www.w3.org/2000/svg">
<path d="M18.0821 7.84186L17.6107 7.37747C17.4834 7.39619 17.0505 7.46431 16.7964 7.49267C14.5399 7.74514 12.2704 7.86174 10 7.84186C5.99211 7.80986 4.49375 7.67197 2.38931 7.37751C1.9441 7.85409 1.21955 8.32432 1.25722 9.06226L1.25714 13.3101C1.25767 13.4913 1.29371 13.6706 1.36317 13.8377C1.43263 14.0048 1.53416 14.1564 1.66192 14.2838C1.78969 14.4113 1.94117 14.512 2.10766 14.5803C2.27416 14.6486 2.4524 14.683 2.63214 14.6817C3.22143 14.7393 3.97857 14.8041 4.82857 14.8653C8.03191 15.1344 11.2512 15.1512 14.4571 14.9156C15.4051 14.8537 16.6212 14.7555 17.3679 14.6817C17.616 14.6772 17.859 14.6104 18.075 14.4873C18.2795 14.368 18.449 14.1962 18.5663 13.9894C18.6836 13.7827 18.7445 13.5483 18.7429 13.3101V9.06224C18.7305 8.82191 18.6648 8.58745 18.5504 8.3762C18.436 8.16495 18.276 7.98234 18.0821 7.84186ZM5.27143 13.3461H3.05357C2.95996 13.3444 2.87075 13.3057 2.80514 13.2384C2.73953 13.1711 2.70277 13.0805 2.70277 12.9861C2.70277 12.8917 2.73954 12.8011 2.80515 12.7338C2.87076 12.6665 2.95998 12.6278 3.05359 12.6261H5.27145C5.36542 12.6273 5.45514 12.6657 5.52118 12.7331C5.58722 12.8005 5.62425 12.8914 5.62425 12.9861C5.62424 13.0809 5.58721 13.1718 5.52117 13.2391C5.45512 13.3065 5.36539 13.3449 5.27143 13.3461ZM5.73571 11.2797C5.735 11.4638 5.66215 11.6401 5.53304 11.7702C5.40393 11.9004 5.22902 11.9738 5.04643 11.9745H3.27857C3.09579 11.9744 2.92054 11.9012 2.79129 11.7709C2.66205 11.6407 2.5894 11.464 2.58929 11.2798V10.5598C2.58939 10.3755 2.66205 10.1989 2.79129 10.0686C2.92054 9.93835 3.0958 9.86511 3.27857 9.865H5.04643C5.22902 9.86572 5.40392 9.93916 5.53304 10.0693C5.66215 10.1994 5.735 10.3757 5.73571 10.5598V11.2797ZM13.1643 10.7758L12.8643 12.5829C12.8164 12.8781 12.6657 13.1465 12.4392 13.3398C12.2128 13.5331 11.9253 13.6387 11.6286 13.6377H8.37143C8.07466 13.6387 7.78723 13.5331 7.56075 13.3398C7.33427 13.1465 7.18357 12.8781 7.13571 12.5829L6.83571 10.7794C6.80742 10.5986 6.81809 10.4138 6.86701 10.2376C6.91593 10.0613 7.00195 9.89778 7.11921 9.75807C7.23647 9.61835 7.38222 9.50574 7.54654 9.42791C7.71085 9.35007 7.88988 9.30883 8.07143 9.307H11.9286C12.1098 9.30881 12.2885 9.34991 12.4526 9.42751C12.6167 9.5051 12.7623 9.61738 12.8795 9.75671C12.9967 9.89604 13.0828 10.0592 13.132 10.235C13.1811 10.4108 13.1921 10.5952 13.1643 10.7758ZM16.9464 13.3461H14.7286C14.6348 13.3447 14.5453 13.3061 14.4794 13.2388C14.4136 13.1714 14.3767 13.0806 14.3767 12.9861C14.3767 12.8915 14.4136 12.8008 14.4795 12.7334C14.5453 12.666 14.6348 12.6275 14.7286 12.6261H16.9464C17.0403 12.6275 17.1297 12.6661 17.1956 12.7334C17.2614 12.8008 17.2983 12.8916 17.2983 12.9861C17.2983 13.0807 17.2614 13.1715 17.1956 13.2388C17.1297 13.3062 17.0402 13.3447 16.9464 13.3461ZM17.4107 11.2797C17.4106 11.464 17.338 11.6406 17.2087 11.7709C17.0795 11.9012 16.9042 11.9744 16.7214 11.9745H14.9536C14.771 11.9738 14.5961 11.9004 14.467 11.7702C14.3379 11.6401 14.265 11.4638 14.2643 11.2798V10.5598C14.265 10.3757 14.3379 10.1994 14.467 10.0693C14.5961 9.93916 14.771 9.86572 14.9536 9.865H16.7214C16.9042 9.86511 17.0795 9.93835 17.2087 10.0686C17.3379 10.1989 17.4106 10.3755 17.4107 10.5598V11.2797ZM12.4571 10.6605L12.1607 12.4641C12.1399 12.5911 12.075 12.7065 11.9775 12.7896C11.88 12.8727 11.7563 12.9181 11.6286 12.9177H11.175L11.3321 10.027H11.9286C12.0067 10.0275 12.0837 10.0451 12.1544 10.0786C12.2251 10.112 12.2877 10.1606 12.3379 10.2208C12.3882 10.2811 12.4249 10.3516 12.4455 10.4275C12.466 10.5034 12.47 10.5829 12.4571 10.6605ZM9.38214 10.027H10.6179L10.4571 12.9177H9.54286L9.38214 10.027ZM8.66786 10.027L8.825 12.9177H8.37143C8.24373 12.9181 8.12004 12.8727 8.02253 12.7896C7.92502 12.7065 7.86006 12.5911 7.83929 12.4641L7.54286 10.6605C7.52998 10.5829 7.53397 10.5034 7.55455 10.4275C7.57514 10.3515 7.61182 10.281 7.66208 10.2208C7.71233 10.1606 7.77496 10.112 7.84563 10.0786C7.91631 10.0451 7.99335 10.0275 8.07143 10.027H8.66786ZM2.96071 6.73306L3.34286 6.03468L3.96429 4.90791C4.28309 4.32952 4.74958 3.84761 5.31538 3.51214C5.88119 3.17667 6.52571 2.99984 7.18214 3H12.8179C13.4743 2.99985 14.1188 3.17668 14.6846 3.51216C15.2504 3.84764 15.7169 4.32956 16.0357 4.90796L16.6571 6.03833L17.0393 6.73311C16.8433 6.76083 16.5747 6.78764 16.275 6.82671C14.1899 7.03623 12.0954 7.13477 10 7.1219C7.90464 7.13477 5.81006 7.03623 3.725 6.82671C3.42528 6.78766 3.15629 6.7608 2.96071 6.73306ZM5.02143 10.5598L5.04643 11.2546L3.30357 11.2798V10.585L5.02143 10.5598ZM16.7 10.585L16.7214 11.2546L14.9786 11.2798L14.9536 10.585L16.7 10.585ZM20 6.05631V7.01748C19.9988 7.13681 19.9728 7.25457 19.9238 7.36319C19.8748 7.47181 19.8038 7.5689 19.7153 7.64822C19.6269 7.72754 19.5229 7.78735 19.4102 7.8238C19.2975 7.86024 19.1784 7.87253 19.0607 7.85986C18.9319 7.65131 17.9019 6.69241 17.7179 6.49552L17.1214 5.41195C17.2716 5.28488 17.4611 5.21482 17.6571 5.21395H19.1643C19.3858 5.21424 19.5982 5.30308 19.7549 5.46099C19.9116 5.6189 19.9997 5.83299 20 6.05631ZM0.939286 7.85986C0.821565 7.87253 0.702517 7.86024 0.589784 7.82379C0.477051 7.78735 0.373125 7.72754 0.284676 7.64822C0.196227 7.5689 0.125211 7.47181 0.0761862 7.36319C0.027161 7.25457 0.00121029 7.13681 0 7.01748V6.05631C0.000283504 5.83299 0.0884228 5.61889 0.245088 5.46098C0.401754 5.30306 0.614156 5.21422 0.835714 5.21394H2.34286C2.53912 5.21356 2.72907 5.28376 2.87857 5.41193C2.76016 5.63371 2.42874 6.21655 2.31429 6.4487C2.12879 6.68845 1.08854 7.6164 0.939286 7.85986ZM5.54286 15.6572V16.0532C5.54174 16.3046 5.44194 16.5453 5.26526 16.7227C5.08857 16.9001 4.84939 16.9998 4.6 17H2.86429C2.61434 17.0006 2.37436 16.9012 2.19695 16.7238C2.01954 16.5463 1.91918 16.3052 1.91786 16.0532V15.2901C2.83631 15.5313 3.7149 15.4862 4.775 15.5996C5.02714 15.6232 5.28765 15.6408 5.54286 15.6572ZM18.0821 15.29V16.0532C18.0808 16.3052 17.9805 16.5463 17.803 16.7238C17.6256 16.9012 17.3857 17.0006 17.1357 17H15.4C15.1506 16.9998 14.9114 16.9001 14.7347 16.7227C14.5581 16.5453 14.4583 16.3046 14.4571 16.0532V15.6572C15.4216 15.5883 16.5834 15.5003 17.4143 15.4196C17.6419 15.4091 17.8669 15.3655 18.0821 15.29Z" fill="#55625D" fill-opacity="0.5"/>
</svg>
