<svg width="20" height="20" viewBox="0 0 20 20" fill="none" xmlns="http://www.w3.org/2000/svg">
<path fill-rule="evenodd" clip-rule="evenodd" d="M19.7112 12.9513C16.5902 6.64679 10.7857 3.28357 4.13344 2.73671C2.66473 2.52187 1.39522 2.76015 0.539769 4.02575C-0.421587 5.44973 0.146647 6.80207 0.383226 7.3651C0.428297 7.47236 0.461331 7.55098 0.469458 7.59599C0.625704 8.00223 0.707734 8.40847 0.71164 8.80299C0.738983 13.8107 3.11003 15.9044 17.016 16.9474C18.055 17.0255 19.0316 16.5294 19.5823 15.6388C20.0901 14.8185 20.137 13.8146 19.7112 12.9513ZM2.43426 7.0999C2.29754 7.25224 2.05146 7.20927 1.97724 7.01787L1.97333 7.01397C1.95601 6.93888 1.91445 6.84288 1.86542 6.72961C1.68235 6.30665 1.39503 5.64288 1.87568 4.92807C2.38739 4.17027 3.07878 4.24449 3.96939 4.34215C4.71937 4.40074 5.45373 4.5023 6.17246 4.64292C6.41465 4.6898 6.40684 5.03354 6.16465 5.0726C4.71937 5.29916 3.4108 6.01789 2.43426 7.0999ZM6.73886 12.4279C4.9303 12.4279 3.46158 10.9592 3.46158 9.15064C3.46158 7.34208 4.9303 5.87336 6.73886 5.87336C8.54742 5.87336 10.0161 7.34208 10.0161 9.15064C10.0161 10.9592 8.54742 12.4279 6.73886 12.4279ZM13.5434 15.4982C11.6841 15.4982 10.1724 13.9865 10.1724 12.1271C10.1724 10.2678 11.6841 8.75612 13.5434 8.75612C15.4027 8.75612 16.9144 10.2678 16.9144 12.1271C16.9105 13.9865 15.3988 15.4982 13.5434 15.4982ZM13.5433 10.1585C12.4574 10.1585 11.5746 11.0413 11.5746 12.1272C11.5746 13.2131 12.4574 14.0959 13.5433 14.0959C14.6292 14.0959 15.512 13.2131 15.512 12.1272C15.512 11.0413 14.6292 10.1585 13.5433 10.1585ZM13.5433 13.1506C12.9808 13.1506 12.5238 12.6936 12.5238 12.1311C12.5238 11.5686 12.9808 11.1116 13.5433 11.1116C14.1058 11.1116 14.5628 11.5686 14.5628 12.1311C14.5628 12.6936 14.1058 13.1506 13.5433 13.1506ZM4.78145 9.15067C4.78145 8.07257 5.66034 7.19368 6.73844 7.19368C7.82045 7.19368 8.69934 8.07257 8.69544 9.15067C8.69544 10.2288 7.81655 11.1077 6.73844 11.1077C5.66034 11.1077 4.78145 10.2288 4.78145 9.15067ZM5.93768 9.15067C5.93768 9.59207 6.29705 9.95143 6.73844 9.95143C7.18375 9.95143 7.54312 9.59207 7.53921 9.15067C7.53921 8.70927 7.17984 8.3499 6.73844 8.3499C6.29705 8.3499 5.93768 8.70927 5.93768 9.15067Z" fill="#55625D" fill-opacity="0.5"/>
</svg>
