<svg width="20" height="20" viewBox="0 0 20 20" fill="none" xmlns="http://www.w3.org/2000/svg">
<path d="M17.8571 6.57143H17.1429C16.7486 6.57143 16.4286 6.89143 16.4286 7.28571V9.42857H14.2857V8C14.2857 7.21071 13.6464 6.57143 12.8571 6.57143H10V5.14286H12.8571C13.2514 5.14286 13.5714 4.82286 13.5714 4.42857V3.71429C13.5714 3.32 13.2514 3 12.8571 3H5C4.60571 3 4.28571 3.32 4.28571 3.71429V4.42857C4.28571 4.82286 4.60571 5.14286 5 5.14286H7.85714V6.57143H5C4.21071 6.57143 3.57143 7.21071 3.57143 8V10.8571H2.14286V8.71429C2.14286 8.32 1.82286 8 1.42857 8H0.714286C0.32 8 0 8.32 0 8.71429V15.1429C0 15.5371 0.32 15.8571 0.714286 15.8571H1.42857C1.82286 15.8571 2.14286 15.5371 2.14286 15.1429V13H3.57143V14.8514C3.57143 15.2636 3.74929 15.655 4.05929 15.9264L6.025 17.6464C6.285 17.8743 6.61929 18 6.965 18H12.8571C13.6464 18 14.2857 17.3607 14.2857 16.5714V14.4286H16.4286V16.5714C16.4286 16.9657 16.7486 17.2857 17.1429 17.2857H17.8571C19.0407 17.2857 20 16.3264 20 15.1429V8.71429C20 7.53071 19.0407 6.57143 17.8571 6.57143ZM11.3086 12.6821L9.88 14.825C9.66071 15.1536 9.28571 15.1429 9.28571 15.1429V13H7.85714C7.59357 13 7.35143 12.855 7.22714 12.6229C7.10286 12.3907 7.11643 12.1086 7.26286 11.89L8.69143 9.74714C8.91 9.41786 9.28571 9.42857 9.28571 9.42857V11.5714H10.7143C10.9779 11.5714 11.22 11.7164 11.3443 11.9486C11.4686 12.1807 11.455 12.4629 11.3086 12.6821Z" fill="#A3ABA6"/>
</svg>
