<svg width="20" height="20" viewBox="0 0 20 20" fill="none" xmlns="http://www.w3.org/2000/svg">
<g clip-path="url(#clip0_2401_3310)">
<path fill-rule="evenodd" clip-rule="evenodd" d="M1.69492 3.33333C1.69492 2.413 0.935932 1.66667 0 1.66667C0.935932 1.66667 1.69492 0.920333 1.69492 0C1.69492 0.920333 2.4539 1.66667 3.38983 1.66667C2.4539 1.66667 1.69492 2.413 1.69492 3.33333ZM0 16C0.935932 16 1.69492 16.7463 1.69492 17.6667C1.69492 16.7463 2.4539 16 3.38983 16C2.4539 16 1.69492 15.2537 1.69492 14.3333C1.69492 15.2537 0.935932 16 0 16ZM4.0678 18.3333C5.00373 18.3333 5.76271 19.0797 5.76271 20C5.76271 19.0797 6.5217 18.3333 7.45763 18.3333C6.5217 18.3333 5.76271 17.587 5.76271 16.6667C5.76271 17.587 5.00373 18.3333 4.0678 18.3333ZM17.6271 14.3333C17.6271 14.1497 17.4753 14 17.2881 14C17.101 14 16.9492 14.1497 16.9492 14.3333V15.3333H16.2712V14.3333V13C16.2712 12.8163 16.1193 12.6667 15.9322 12.6667C15.7451 12.6667 15.5932 12.8163 15.5932 13V13.6667V15.3333H14.9153V13.6667V13V12.3333C14.9153 12.1497 14.7634 12 14.5763 12C14.3892 12 14.2373 12.1497 14.2373 12.3333V13V13.6667V15.3333H13.5593V13.6667V13C13.5593 12.8163 13.4075 12.6667 13.2203 12.6667C13.0332 12.6667 12.8814 12.8163 12.8814 13V16.3333V17.3333H12.2034V16.3333C12.2034 16.1497 12.0515 16 11.8644 16C11.6773 16 11.5254 16.1497 11.5254 16.3333V17.4883L13.4085 18.7227C13.5027 18.7847 13.5593 18.8887 13.5593 19V19.6667H16.9492V18.6667C16.9492 18.5783 16.9847 18.4933 17.0485 18.431L17.6271 17.862V14.3333ZM20 10.535C20 10.773 19.9292 11.0037 19.7949 11.2017L19.5471 11.567C18.9563 12.4383 18.6441 13.4523 18.6441 14.5C18.6441 15.5477 18.9563 16.5617 19.5475 17.433L19.7949 17.7983C19.9292 17.9963 20 18.227 20 18.465C20 19.1277 19.4519 19.6667 18.778 19.6663C18.5359 19.6663 18.3017 19.5967 18.1 19.4647L17.8695 19.3137C17.811 19.2754 17.7506 19.2404 17.6903 19.2055C17.6692 19.1933 17.6481 19.181 17.6271 19.1687V18.8047L18.2058 18.2357C18.2695 18.1733 18.3051 18.0883 18.3051 18V14.3333C18.3051 13.782 17.8488 13.3333 17.2881 13.3333C17.1688 13.3333 17.0556 13.3573 16.9492 13.3947V13C16.9492 12.4487 16.4929 12 15.9322 12C15.7983 12 15.6712 12.027 15.5539 12.0733C15.4369 11.6483 15.0451 11.3333 14.5763 11.3333C14.1075 11.3333 13.7159 11.6483 13.5986 12.0733C13.4814 12.027 13.3542 12 13.2203 12C12.6597 12 12.2034 12.4487 12.2034 13V15.3947C12.0969 15.3573 11.9837 15.3333 11.8644 15.3333C11.3037 15.3333 10.8475 15.782 10.8475 16.3333V17.6667C10.8475 17.778 10.9041 17.882 10.9983 17.9443L12.2875 18.7893C11.9376 18.9333 11.6003 19.106 11.2831 19.314L11.0525 19.465C10.8508 19.597 10.6166 19.6667 10.3746 19.6667C9.70068 19.6667 9.15254 19.1277 9.15288 18.465C9.15288 18.227 9.22373 17.9963 9.35797 17.7983L9.60542 17.433C10.1963 16.5617 10.5085 15.5477 10.5085 14.5C10.5085 13.4523 10.1963 12.4383 9.60508 11.567L9.35763 11.2017C9.22339 11.0037 9.15254 10.773 9.15254 10.535C9.15254 9.87233 9.70068 9.33333 10.3746 9.33367C10.6166 9.33367 10.8508 9.40333 11.0525 9.53533L11.2831 9.68633C12.2617 10.3277 13.4003 10.6667 14.5763 10.6667C15.7522 10.6667 16.8908 10.3277 17.8695 9.686L18.1 9.535C18.3017 9.403 18.5359 9.33333 18.778 9.33333C19.4519 9.33333 20 9.87233 20 10.535ZM4.74576 9C3.43763 9 2.37288 10.0467 2.37288 11.3333C2.37288 12.62 3.43763 13.6667 4.74576 13.6667C6.0539 13.6667 7.11864 12.62 7.11864 11.3333C7.11864 10.0467 6.0539 9 4.74576 9ZM4.74576 13C3.81119 13 3.05085 12.2523 3.05085 11.3333C3.05085 10.4143 3.81119 9.66667 4.74576 9.66667C5.68034 9.66667 6.44068 10.4143 6.44068 11.3333C6.44068 12.2523 5.68034 13 4.74576 13ZM5.76271 11.3333C5.76271 11.8856 5.30741 12.3333 4.74576 12.3333C4.18412 12.3333 3.72881 11.8856 3.72881 11.3333C3.72881 10.781 4.18412 10.3333 4.74576 10.3333C5.30741 10.3333 5.76271 10.781 5.76271 11.3333ZM1.01695 7.06104L0.338983 7.25137V8.33337H1.01695V7.06104ZM7.38612 5.33333L9.38307 2.14267C9.56951 1.84467 9.89358 1.66667 10.2492 1.66667H12.2034V5.33333H7.38612ZM19.661 6C19.5237 6 19.3997 5.91833 19.3475 5.79367L17.6661 1.77833C17.2986 0.900667 16.4373 0.333333 15.4722 0.333333H9.95017C9.1417 0.333333 8.39695 0.731667 7.95797 1.399L5.03051 5.84767C4.98576 5.91533 4.91797 5.965 4.83898 5.987L1.69492 6.87033V8.66667C1.69492 8.85067 1.54339 9 1.35593 9H0.338983V11H1.71492C1.88407 9.50233 3.17797 8.33333 4.74576 8.33333C6.31356 8.33333 7.60746 9.50233 7.77661 11H8.5383C8.49898 10.849 8.47458 10.6937 8.47458 10.535C8.47458 9.505 9.32712 8.66667 10.3746 8.66667C10.7508 8.66667 11.1156 8.77533 11.4285 8.98033L11.659 9.13133C12.5258 9.69967 13.5346 10 14.5763 10C15.618 10 16.6268 9.69967 17.4932 9.13167L17.7237 8.98067C18.0369 8.77533 18.4014 8.66667 18.778 8.66667C19.2434 8.66667 19.6695 8.83267 20 9.10667V6H19.661ZM12.8814 7.33333H11.5254V6.66667H12.8814V7.33333ZM6.77966 6C6.65695 6 6.54373 5.93467 6.48373 5.82933C6.42373 5.724 6.42644 5.595 6.49085 5.492L8.80576 1.79333C9.11695 1.29667 9.65627 1 10.2492 1H15.34C16.0359 1 16.6719 1.42933 16.922 2.06833L18.2827 5.547C18.3227 5.64967 18.3088 5.76467 18.2458 5.85533C18.1824 5.946 18.0776 6 17.9661 6H6.77966ZM18.3051 7.33333H16.9492V6.66667H18.3051V7.33333ZM12.8814 1.66667H15.34C15.7573 1.66667 16.139 1.92433 16.2892 2.30767L17.4725 5.33333H12.8814V1.66667Z" fill="#55625D" fill-opacity="0.5"/>
</g>
<defs>
<clipPath id="clip0_2401_3310">
<rect width="20" height="20" fill="white"/>
</clipPath>
</defs>
</svg>
