<svg width="20" height="20" viewBox="0 0 20 20" fill="none" xmlns="http://www.w3.org/2000/svg">
<g clip-path="url(#clip0_2395_731)">
<path fill-rule="evenodd" clip-rule="evenodd" d="M18.0775 0.314818L19.6845 1.92185C19.8861 2.12401 19.9992 2.39787 19.999 2.68334C19.9989 2.96881 19.8855 3.24256 19.6837 3.44451L18.8243 4.30388L15.6947 1.17419L16.554 0.314818C16.7561 0.112921 17.0301 -0.000488281 17.3158 -0.000488281C17.6014 -0.000488281 17.8754 0.112921 18.0775 0.314818ZM0.887111 14.8191C0.46259 15.2437 0.17349 15.7846 0.0563695 16.3734C-0.0607512 16.9622 -0.000632511 17.5726 0.229123 18.1272C0.458879 18.6819 0.847953 19.156 1.34714 19.4895C1.84634 19.8231 2.43322 20.0011 3.0336 20.0011C3.63397 20.0011 4.22086 19.8231 4.72005 19.4895C5.21924 19.156 5.60831 18.6819 5.83807 18.1272C6.06782 17.5726 6.12794 16.9622 6.01082 16.3734C5.8937 15.7846 5.6046 15.2437 5.18008 14.8191C4.61045 14.2505 3.83846 13.9312 3.0336 13.9312C2.22873 13.9312 1.45674 14.2505 0.887111 14.8191ZM4.07188 18.0039C3.86652 18.2093 3.60489 18.3491 3.32005 18.4058C3.03522 18.4624 2.73998 18.4334 2.47167 18.3222C2.20336 18.2111 1.97403 18.0229 1.81269 17.7814C1.65134 17.5399 1.56522 17.256 1.56522 16.9656C1.56522 16.6752 1.65134 16.3913 1.81269 16.1498C1.97403 15.9084 2.20336 15.7202 2.47167 15.609C2.73998 15.4979 3.03522 15.4688 3.32005 15.5255C3.60489 15.5821 3.86652 15.722 4.07188 15.9273C4.34686 16.2029 4.5013 16.5763 4.5013 16.9656C4.5013 17.3549 4.34686 17.7283 4.07188 18.0039ZM3.03346 17.848C3.52081 17.848 3.91589 17.4529 3.91589 16.9656C3.91589 16.4782 3.52081 16.0832 3.03346 16.0832C2.54612 16.0832 2.15104 16.4782 2.15104 16.9656C2.15104 17.4529 2.54612 17.848 3.03346 17.848ZM12.0676 5.30119L11.0965 6.27228L10.4715 5.64728C10.3715 5.54725 10.2527 5.4679 10.122 5.41377C9.99131 5.35963 9.85123 5.33177 9.70977 5.33177C9.5683 5.33177 9.42822 5.35963 9.29753 5.41377C9.16683 5.4679 9.04808 5.54725 8.94805 5.64728C8.84802 5.74731 8.76867 5.86607 8.71453 5.99676C8.6604 6.12746 8.63253 6.26754 8.63253 6.409C8.63253 6.55046 8.6604 6.69054 8.71453 6.82124C8.76867 6.95194 8.84802 7.07069 8.94805 7.17072L9.57305 7.79572L8.8793 8.48947L8.2543 7.86447C8.15427 7.76444 8.03551 7.68509 7.90482 7.63095C7.77412 7.57682 7.63404 7.54895 7.49258 7.54895C7.35111 7.54895 7.21103 7.57682 7.08034 7.63095C6.94964 7.68509 6.83089 7.76444 6.73086 7.86447C6.63083 7.9645 6.55148 8.08325 6.49734 8.21395C6.44321 8.34464 6.41534 8.48472 6.41535 8.62619C6.41535 8.76765 6.44321 8.90773 6.49734 9.03843C6.55148 9.16912 6.63083 9.28788 6.73086 9.38791L7.35586 10.0129L6.66172 10.707L6.03672 10.082C5.8347 9.88003 5.5607 9.76653 5.275 9.76653C4.9893 9.76653 4.7153 9.88003 4.51328 10.082C4.31126 10.2841 4.19777 10.5581 4.19777 10.8438C4.19777 10.9852 4.22563 11.1253 4.27977 11.256C4.3339 11.3867 4.41325 11.5055 4.51328 11.6055L5.13828 12.2305L3.91211 13.4567C4.548 13.6153 5.12875 13.944 5.59218 14.4074C6.05562 14.8709 6.38428 15.4516 6.54297 16.0875L7.77305 14.8586L8.39805 15.4836C8.49808 15.5836 8.61683 15.663 8.74753 15.7171C8.87822 15.7713 9.0183 15.7991 9.15977 15.7991C9.30123 15.7991 9.44131 15.7713 9.57201 15.7171C9.7027 15.663 9.82145 15.5836 9.92148 15.4836C10.0215 15.3836 10.1009 15.2648 10.155 15.1341C10.2091 15.0034 10.237 14.8634 10.237 14.7219C10.237 14.5804 10.2091 14.4403 10.155 14.3097C10.1009 14.179 10.0215 14.0602 9.92148 13.9602L9.29648 13.3352L9.99063 12.641L10.6156 13.266C10.8176 13.4681 11.0916 13.5815 11.3773 13.5815C11.663 13.5815 11.937 13.4681 12.1391 13.266C12.3411 13.064 12.4546 12.79 12.4546 12.5043C12.4546 12.2186 12.3411 11.9446 12.1391 11.7426L11.5141 11.1176L12.2078 10.4238L12.8328 11.0488C13.0348 11.2509 13.3088 11.3644 13.5945 11.3644C13.8802 11.3644 14.1542 11.2509 14.3562 11.0488C14.5583 10.8468 14.6718 10.5728 14.6718 10.2871C14.6718 10.0014 14.5583 9.72743 14.3562 9.52541L13.7312 8.90041L14.7023 7.92931L12.0676 5.30119ZM14.1434 0.899902C14.429 0.899902 14.703 1.01331 14.9051 1.21521L18.7852 5.09294C18.9871 5.29503 19.1005 5.569 19.1005 5.85466C19.1005 6.14032 18.9871 6.4143 18.7852 6.61638L16.8457 8.55583C16.7255 8.67645 16.5781 8.76658 16.416 8.81872L11.1816 3.58435C11.2338 3.42222 11.3239 3.2749 11.4445 3.15466L13.3816 1.21521C13.5837 1.01331 13.8577 0.899902 14.1434 0.899902Z" fill="#A3ABA6"/>
</g>
<defs>
<clipPath id="clip0_2395_731">
<rect width="20" height="20" fill="white"/>
</clipPath>
</defs>
</svg>
