<svg width="20" height="20" viewBox="0 0 20 20" fill="none" xmlns="http://www.w3.org/2000/svg">
<path fill-rule="evenodd" clip-rule="evenodd" d="M5.71015 5.71052C5.50699 5.91368 5.23144 6.02782 4.94412 6.02782C4.6568 6.02782 4.38125 5.91368 4.17809 5.71052C3.97492 5.50735 3.86079 5.2318 3.86079 4.94449V2.41671C3.86079 2.12939 3.97492 1.85384 4.17809 1.65067C4.38125 1.44751 4.6568 1.33337 4.94412 1.33337C5.23144 1.33337 5.50699 1.44751 5.71015 1.65067C5.91332 1.85384 6.02745 2.12939 6.02745 2.41671V4.94449C6.02745 5.2318 5.91332 5.50735 5.71015 5.71052ZM15.8213 5.71052C15.6181 5.91368 15.3425 6.02782 15.0552 6.02782C14.7679 6.02782 14.4924 5.91368 14.2892 5.71052C14.086 5.50735 13.9719 5.2318 13.9719 4.94449V2.41671C13.9719 2.12939 14.086 1.85384 14.2892 1.65067C14.4924 1.44751 14.7679 1.33337 15.0552 1.33337C15.3425 1.33337 15.6181 1.44751 15.8213 1.65067C16.0244 1.85384 16.1386 2.12939 16.1386 2.41671V4.94449C16.1386 5.2318 16.0244 5.50735 15.8213 5.71052ZM1.33301 18.3056C1.33301 18.4014 1.37105 18.4933 1.43877 18.561C1.5065 18.6287 1.59835 18.6667 1.69412 18.6667H18.3052C18.401 18.6667 18.4929 18.6287 18.5606 18.561C18.6283 18.4933 18.6663 18.4014 18.6663 18.3056V8.67841H1.33301V18.3056ZM6.35606 12.3292C6.37699 12.2651 6.41549 12.208 6.4672 12.1646C6.5189 12.1212 6.58173 12.0932 6.64856 12.0837L8.77912 11.7731L9.73245 9.84118C9.76223 9.78041 9.80849 9.72922 9.86595 9.69347C9.92342 9.65771 9.98977 9.63883 10.0575 9.63896C10.1251 9.63883 10.1915 9.65771 10.249 9.69347C10.3064 9.72922 10.3527 9.78041 10.3825 9.84118L11.3358 11.7731L13.47 12.0801C13.5368 12.0896 13.5996 12.1176 13.6513 12.161C13.703 12.2044 13.7415 12.2614 13.7625 12.3256C13.7812 12.3887 13.7823 12.4556 13.7658 12.5192C13.7492 12.5829 13.7156 12.6408 13.6686 12.6867L12.1266 14.1926L12.4877 16.3159C12.501 16.3833 12.4948 16.453 12.4699 16.517C12.4449 16.5809 12.4023 16.6364 12.3469 16.677C12.2923 16.7173 12.2274 16.7414 12.1597 16.7465C12.092 16.7516 12.0242 16.7376 11.9641 16.7059L10.0611 15.7056L8.1544 16.7095C8.09433 16.7412 8.02656 16.7553 7.95885 16.7501C7.89115 16.745 7.82625 16.7209 7.77162 16.6806C7.71559 16.6405 7.67222 16.5852 7.64663 16.5212C7.62103 16.4572 7.61428 16.3872 7.62717 16.3195L7.98829 14.1926L6.44273 12.6904C6.39693 12.6437 6.36468 12.5854 6.34942 12.5218C6.33416 12.4582 6.33645 12.3916 6.35606 12.3292ZM16.8608 3.86115H18.3052C18.401 3.86115 18.4929 3.8992 18.5606 3.96692C18.6283 4.03464 18.6663 4.12649 18.6663 4.22226V7.95615H1.33301V4.22226C1.33301 4.12649 1.37105 4.03464 1.43877 3.96692C1.5065 3.8992 1.59835 3.86115 1.69412 3.86115H3.13856V4.94449C3.13856 5.42335 3.32879 5.8826 3.6674 6.22121C4.00601 6.55981 4.46526 6.75004 4.94412 6.75004C5.42298 6.75004 5.88223 6.55981 6.22084 6.22121C6.55945 5.8826 6.74968 5.42335 6.74968 4.94449V3.86115H13.2497V4.94449C13.2497 5.42335 13.4399 5.8826 13.7785 6.22121C14.1171 6.55981 14.5764 6.75004 15.0552 6.75004C15.5341 6.75004 15.9933 6.55981 16.332 6.22121C16.6706 5.8826 16.8608 5.42335 16.8608 4.94449V3.86115Z" fill="#A3ABA6"/>
</svg>
