<svg width="20" height="20" viewBox="0 0 20 20" fill="none" xmlns="http://www.w3.org/2000/svg">
<path fill-rule="evenodd" clip-rule="evenodd" d="M3.49606 0H4.20472C5.03098 0 5.70079 0.66981 5.70079 1.49606V5.27559C5.70079 6.10184 5.03098 6.77165 4.20472 6.77165H3.49606C2.66981 6.77165 2 6.10184 2 5.27559V1.49606C2 0.66981 2.66981 0 3.49606 0ZM16.7244 0H16.0157C15.1895 0 14.5197 0.66981 14.5197 1.49606V5.27559C14.5197 6.10184 15.1895 6.77165 16.0157 6.77165H16.7244C17.5507 6.77165 18.2205 6.10184 18.2205 5.27559V1.49606C18.2205 0.66981 17.5507 0 16.7244 0ZM10.1102 6.22047C9.36272 6.22047 8.63198 6.44214 8.01044 6.85744C7.3889 7.27274 6.90447 7.86302 6.61841 8.55364C6.33235 9.24426 6.2575 10.0042 6.40333 10.7373C6.54917 11.4705 6.90913 12.144 7.43771 12.6725C7.96628 13.2011 8.63973 13.5611 9.37289 13.7069C10.106 13.8527 10.866 13.7779 11.5566 13.4918C12.2472 13.2058 12.8375 12.7213 13.2528 12.0998C13.6681 11.4783 13.8898 10.7475 13.8898 10C13.8898 8.99761 13.4916 8.03627 12.7828 7.32747C12.074 6.61867 11.1126 6.22047 10.1102 6.22047ZM11.365 10.292L10.3808 11.8668C10.3425 11.9282 10.2924 11.9814 10.2335 12.0235C10.1746 12.0655 10.108 12.0956 10.0375 12.1119C9.96694 12.1281 9.89389 12.1304 9.82251 12.1184C9.75112 12.1065 9.68279 12.0806 9.62142 12.0422C9.56 12.0039 9.50675 11.9538 9.46469 11.8948C9.42264 11.8359 9.3926 11.7693 9.37631 11.6987C9.36002 11.6282 9.35779 11.5551 9.36974 11.4837C9.3817 11.4123 9.40761 11.3439 9.44599 11.2825L9.90331 10.5512H9.32284C9.22447 10.5512 9.1279 10.5248 9.04315 10.4749C8.9584 10.425 8.88856 10.3533 8.84087 10.2672C8.79318 10.1812 8.76938 10.084 8.77194 9.98565C8.7745 9.88732 8.80333 9.79146 8.85543 9.70803L9.83969 8.13323C9.91716 8.00927 10.0407 7.92116 10.1831 7.88829C10.3256 7.85542 10.4753 7.88048 10.5992 7.95795C10.7232 8.03543 10.8113 8.15898 10.8442 8.30142C10.877 8.44385 10.852 8.59352 10.7745 8.71748L10.3172 9.44882H10.8976C10.996 9.44884 11.0926 9.47518 11.1773 9.52511C11.2621 9.57504 11.3319 9.64674 11.3796 9.73277C11.4273 9.8188 11.4511 9.91602 11.4485 10.0144C11.446 10.1127 11.4171 10.2085 11.365 10.292ZM16.7244 13.2283H16.0157C15.1895 13.2283 14.5197 13.8982 14.5197 14.7244V18.5039C14.5197 19.3302 15.1895 20 16.0157 20H16.7244C17.5507 20 18.2205 19.3302 18.2205 18.5039V14.7244C18.2205 13.8982 17.5507 13.2283 16.7244 13.2283ZM10.6614 5.1515C10.2953 5.10699 9.92516 5.10699 9.55906 5.1515V3.93701H6.80315V2.83465H13.4173V3.93701H10.6614V5.1515ZM10.6614 14.8485C10.2953 14.893 9.92516 14.893 9.55906 14.8485V16.063H6.80315V17.1654H13.4173V16.063H10.6614V14.8485ZM3.49606 13.2283H4.20472C5.03098 13.2283 5.70079 13.8982 5.70079 14.7244V18.5039C5.70079 19.3302 5.03098 20 4.20472 20H3.49606C2.66981 20 2 19.3302 2 18.5039V14.7244C2 13.8982 2.66981 13.2283 3.49606 13.2283Z" fill="#55625D" fill-opacity="0.5"/>
</svg>
