<svg width="20" height="20" viewBox="0 0 20 20" fill="none" xmlns="http://www.w3.org/2000/svg">
<g clip-path="url(#clip0_2401_2766)">
<path fill-rule="evenodd" clip-rule="evenodd" d="M17.586 0H18.9653C19.3462 0 19.655 0.308769 19.655 0.689655V3.44828C19.655 3.82916 19.3462 4.13793 18.9653 4.13793H17.586C17.2051 4.13793 16.8964 3.82916 16.8964 3.44828V0.689655C16.8964 0.308769 17.2051 0 17.586 0ZM17.9313 4.8276H18.6209V5.51726H17.9313V4.8276ZM19.9998 7.58621V7.24138C19.9998 6.96702 19.8908 6.7039 19.6968 6.50989C19.5028 6.31589 19.2397 6.2069 18.9654 6.2069H17.586C17.3117 6.2069 17.0486 6.31589 16.8546 6.50989C16.6605 6.7039 16.5516 6.96702 16.5516 7.24138V8.23759C17.1881 7.81092 17.9376 7.5841 18.704 7.58621H19.9998ZM10.2019 17.9311L11.4802 19.2093C11.5448 19.274 11.6325 19.3103 11.724 19.3104H18.8488C18.7118 19.5208 18.5247 19.694 18.3044 19.8144C18.084 19.9348 17.8371 19.9985 17.586 20H9.31017C9.08123 20.0002 8.85807 19.9282 8.67236 19.7943C8.48666 19.6604 8.34787 19.4714 8.27568 19.2542L7.83465 17.9311H10.2019ZM16.4614 9.19965L15.9583 9.82758C15.45 10.4642 15.173 11.2544 15.1724 12.069V16.2069H17.2414C17.6285 16.2072 18.0099 16.3006 18.3533 16.4794C18.6966 16.6582 18.9919 16.9171 19.2141 17.2341L19.9696 8.27586H18.7041C18.2879 8.27485 17.8756 8.35593 17.4908 8.51445C17.1059 8.67296 16.7561 8.9058 16.4614 9.19965ZM12.7589 16.8965H17.2416C17.6987 16.8971 18.137 17.0789 18.4602 17.4021C18.7834 17.7253 18.9652 18.1636 18.9658 18.6207H11.8672L10.5889 17.3424C10.5242 17.2777 10.4365 17.2414 10.3451 17.2414H7.61302C7.59628 17.1726 7.58737 17.1021 7.58646 17.0314C7.58682 16.7801 7.6865 16.5392 7.86375 16.3612C8.041 16.1832 8.28146 16.0825 8.53267 16.081C8.57885 16.0811 8.62496 16.0847 8.6706 16.0917L12.692 16.89C12.714 16.8944 12.7364 16.8966 12.7589 16.8965ZM10.4718 12.9045L10.3449 12.5242L10.218 12.9035C10.1547 13.0941 10.033 13.2601 9.87005 13.3777C9.70714 13.4953 9.51134 13.5586 9.31042 13.5586C9.51134 13.5587 9.70714 13.622 9.87005 13.7396C10.033 13.8572 10.1547 14.0231 10.218 14.2138L10.3449 14.5931L10.4718 14.2138C10.5351 14.0231 10.6568 13.8572 10.8198 13.7396C10.9827 13.622 11.1785 13.5587 11.3794 13.5586C11.1786 13.5587 10.9829 13.4955 10.82 13.3781C10.6571 13.2607 10.5353 13.095 10.4718 12.9045ZM4.82775 4.48277L4.73396 4.1076C4.66235 3.82084 4.49694 3.56625 4.26401 3.3843C4.03108 3.20236 3.74401 3.1035 3.44844 3.10346C3.74401 3.10342 4.03108 3.00457 4.26401 2.82263C4.49694 2.64068 4.66235 2.38609 4.73396 2.09933L4.82775 1.72415L4.9212 2.09933C4.99282 2.38615 5.15829 2.64078 5.39129 2.82273C5.62429 3.00468 5.91144 3.1035 6.20706 3.10346C5.91149 3.1035 5.62442 3.20236 5.39149 3.3843C5.15857 3.56625 4.99315 3.82084 4.92154 4.1076L4.82775 4.48277ZM9.75851 4.72413L10.0582 5.11413L10.862 4.31034L11.724 5.17241L13.793 3.10344L12.9309 2.24137L13.1033 2.06896L11.724 0.689648L10.5171 1.89654L9.65506 1.03448L7.41368 3.27586C7.52691 3.38905 7.61673 3.52345 7.67802 3.67136C7.7393 3.81928 7.77084 3.97782 7.77084 4.13792C7.77084 4.29803 7.7393 4.45657 7.67802 4.60449C7.61673 4.7524 7.52691 4.8868 7.41368 4.99999L4.82748 7.5862L5.13989 7.89861L5.10541 7.94068C4.47436 8.80424 4.13539 9.84665 4.13782 10.9162V12.069C4.13782 12.1604 4.10149 12.2481 4.03682 12.3128C3.97215 12.3775 3.88445 12.4138 3.79299 12.4138C3.70154 12.4138 3.61383 12.3775 3.54916 12.3128C3.4845 12.2481 3.44817 12.1604 3.44817 12.069V7.5862C3.44817 7.31184 3.33918 7.04871 3.14517 6.85471C2.95117 6.66071 2.68804 6.55172 2.41368 6.55172C2.13932 6.55172 1.8762 6.66071 1.68219 6.85471C1.48819 7.04871 1.3792 7.31184 1.3792 7.5862V14.4828H1.03437V15.1724H2.41368V14.4828H2.06886V7.5862C2.06886 7.49475 2.10519 7.40704 2.16985 7.34237C2.23452 7.2777 2.32223 7.24137 2.41368 7.24137C2.50514 7.24137 2.59284 7.2777 2.65751 7.34237C2.72218 7.40704 2.75851 7.49475 2.75851 7.5862V12.069C2.75851 12.3433 2.8675 12.6064 3.0615 12.8004C3.25551 12.9945 3.51863 13.1034 3.79299 13.1034C4.06735 13.1034 4.33048 12.9945 4.52448 12.8004C4.71849 12.6064 4.82748 12.3433 4.82748 12.069V10.9162C4.82537 10.0111 5.10696 9.12814 5.63265 8.39137L5.86196 8.62068L9.75851 4.72413ZM5.49262 18.2759H5.11331C4.84931 18.2759 4.5879 18.2238 4.34401 18.1228C4.10012 18.0217 3.87853 17.8736 3.6919 17.6869C3.50527 17.5002 3.35726 17.2785 3.25633 17.0346C3.1554 16.7906 3.10351 16.5292 3.10365 16.2652V15.8859C3.7103 15.9634 4.27404 16.2402 4.7064 16.6728C5.13877 17.1053 5.4153 17.6692 5.49262 18.2759ZM3.20448 18.1748C2.953 17.9247 2.75363 17.6272 2.6179 17.2995C2.48218 16.9719 2.4128 16.6205 2.41379 16.2658V15.862H0.689655C0.506747 15.862 0.331331 15.9347 0.201995 16.064C0.0726599 16.1934 0 16.3688 0 16.5517V20H0.536552C0.41244 19.7912 0.346257 19.5532 0.344828 19.3103C0.344828 18.9445 0.490147 18.5937 0.748818 18.335C1.00749 18.0763 1.35832 17.931 1.72414 17.931C2.08995 17.931 2.44079 18.0763 2.69946 18.335C2.95813 18.5937 3.10345 18.9445 3.10345 19.3103C3.10202 19.5532 3.03584 19.7912 2.91172 20H5.17241C5.26387 20 5.35158 19.9636 5.41624 19.899C5.48091 19.8343 5.51724 19.7466 5.51724 19.6551V18.9655H5.1131C4.75848 18.9665 4.40717 18.8972 4.07954 18.7614C3.75191 18.6257 3.45448 18.4263 3.20448 18.1748ZM2.41368 19.3104C2.41368 19.6912 2.10491 20 1.72403 20C1.34314 20 1.03437 19.6912 1.03437 19.3104C1.03437 18.9295 1.34314 18.6207 1.72403 18.6207C2.10491 18.6207 2.41368 18.9295 2.41368 19.3104Z" fill="#55625D" fill-opacity="0.5"/>
</g>
<defs>
<clipPath id="clip0_2401_2766">
<rect width="20" height="20" fill="white"/>
</clipPath>
</defs>
</svg>
