<svg width="20" height="20" viewBox="0 0 20 20" fill="none" xmlns="http://www.w3.org/2000/svg">
<g clip-path="url(#clip0_2395_722)">
<path fill-rule="evenodd" clip-rule="evenodd" d="M16.8626 0.588257H17.9638C18.9594 0.588257 19.7899 1.30681 19.9652 2.25245L16.8626 4.37532V0.588257ZM16.8626 8.36053L19.9999 6.21398V3.65426L16.8626 5.80081V8.36053ZM12.5488 7.63944L15.6861 9.78599V12.4222L12.5488 10.2757V7.63944ZM12.5488 11.7012L15.6861 13.8477V16.4223L12.5488 14.2757V11.7012ZM19.9999 10.2757L16.8626 12.4223V9.78604L19.9999 7.63953V10.2757ZM8.2356 10.9804C8.77706 10.9804 9.21599 10.5415 9.21599 10C9.21599 9.45859 8.77706 9.01965 8.2356 9.01965C7.69415 9.01965 7.25521 9.45859 7.25521 10C7.25521 10.5415 7.69415 10.9804 8.2356 10.9804ZM15.6861 8.36053V5.80081L12.5488 3.65426V6.21402L15.6861 8.36053ZM16.8626 17.8478L19.9999 15.7012V17.3757C19.9999 18.4984 19.0865 19.4118 17.9638 19.4118H16.8626V17.8478ZM15.6866 4.37532V0.588257H14.5854C13.5898 0.588257 12.7593 1.30681 12.584 2.25245L15.6866 4.37532ZM19.9999 14.2757L16.8626 16.4223V13.8478L19.9999 11.7012V14.2757ZM8.82357 7.92536C9.00984 7.97827 9.18612 8.05509 9.34831 8.15321L11.3726 6.12893V5.7516C10.6263 5.20042 9.74431 4.85548 8.82357 4.75191V7.92536ZM6.16067 10.5883C6.21357 10.7745 6.29039 10.9508 6.38851 11.113L4.15372 13.3478C3.5218 12.5787 3.10282 11.6286 2.98698 10.5883H6.16067ZM11.3726 14.0672L9.22227 11.9169C9.09608 11.9821 8.9627 12.0352 8.82357 12.0747V15.2493C9.74957 15.1483 10.6185 14.8082 11.3726 14.2492V14.0672ZM7.24859 11.9169C7.37482 11.9821 7.5082 12.0352 7.64729 12.0747H7.64725V15.2484C6.65549 15.138 5.7458 14.752 4.99674 14.1687L7.24859 11.9169ZM11.3725 15.6441C10.4185 16.1734 9.33588 16.4577 8.23529 16.4577C4.67447 16.4577 1.77753 13.5608 1.77753 9.99998C1.77753 6.43916 4.67447 3.54222 8.23529 3.54222C9.33733 3.54222 10.4187 3.82653 11.3725 4.35598C11.3725 4.35598 11.3764 2.46732 11.382 2.38975C10.3896 1.98014 9.31525 1.76469 8.23529 1.76469C3.69435 1.76469 0 5.45904 0 9.99998C0 14.5409 3.69435 18.2353 8.23529 18.2353C9.31525 18.2353 10.3896 18.0198 11.382 17.6102C11.3764 17.5327 11.3725 15.6441 11.3725 15.6441ZM6.31847 9.01311C6.25325 9.13935 6.20016 9.27272 6.16067 9.41182H2.98698C3.09741 8.42006 3.48337 7.51037 4.06663 6.76127L6.31847 9.01311ZM11.3725 10.5883H10.3099C10.257 10.7745 10.1801 10.9508 10.082 11.113L11.3725 12.4034V10.5883ZM11.3728 9.41178H10.3102C10.2707 9.27268 10.2176 9.13931 10.1523 9.01312L11.3728 7.79268V9.41178ZM14.5849 19.4118H15.6861V17.8478L12.5488 15.7012V17.3757C12.5488 18.4984 13.4622 19.4118 14.5849 19.4118ZM7.6469 7.92539C7.46062 7.9783 7.28435 8.05512 7.12215 8.15324L4.88737 5.91841C5.65643 5.28649 6.60655 4.86751 7.6469 4.75167V7.92539Z" fill="#A3ABA6"/>
</g>
<defs>
<clipPath id="clip0_2395_722">
<rect width="20" height="20" fill="white"/>
</clipPath>
</defs>
</svg>
