<svg width="20" height="20" viewBox="0 0 20 20" fill="none" xmlns="http://www.w3.org/2000/svg">
<path d="M19.8779 3.64032L18.6954 2.45583C18.6173 2.37732 18.5115 2.33337 18.4008 2.33337C18.2902 2.33337 18.1844 2.37732 18.1062 2.45544L15.5965 4.96767C15.4126 5.15157 15.0431 5.15118 14.8592 4.96806C14.3123 4.41915 13.5319 4.10462 12.718 4.10462C12.718 4.10462 12.718 4.10462 12.7172 4.10462C11.9407 4.10462 11.2 4.39857 10.658 4.9022L10.2946 4.5388C10.1318 4.37603 9.86812 4.37603 9.70538 4.5388L9.32941 4.91439C8.69218 4.37157 7.66761 4.409 7.07191 5.00595L1.83919 10.2382C1.52423 10.5532 1.35091 10.9715 1.35091 11.4166C1.35091 11.817 1.49087 12.1955 1.74805 12.4961L1.37208 12.8721C1.2093 13.0349 1.2093 13.2986 1.37208 13.4613L1.73423 13.8234L0.12208 15.4376C-0.0406933 15.6004 -0.0406933 15.8641 0.12208 16.0264L1.30454 17.2109C1.38266 17.2894 1.48844 17.3333 1.59915 17.3333C1.70985 17.3333 1.81563 17.2894 1.89376 17.2113L3.50692 15.5961L3.87211 15.9613C3.95348 16.0426 4.06012 16.0834 4.16672 16.0834C4.27332 16.0834 4.37992 16.0426 4.46133 15.9613L4.83731 15.5857C5.47371 16.1281 6.49828 16.0898 7.0948 15.4941L12.3275 10.2618C12.6425 9.94684 12.8158 9.52856 12.8158 9.0834C12.8158 8.68301 12.6758 8.30457 12.4187 8.00391L12.7946 7.62794C12.9574 7.46516 12.9574 7.20149 12.7946 7.03876L12.4395 6.6836C12.6385 6.56051 12.9195 6.57298 13.0868 6.74091C13.6337 7.28981 14.4141 7.60477 15.228 7.60477C16.0417 7.60477 16.8222 7.28981 17.3683 6.74133L19.878 4.22911C20.0407 4.06638 20.0407 3.80271 19.8779 3.64032ZM8.54898 7.06442L5.92367 9.68934C5.8423 9.77071 5.73566 9.81141 5.62906 9.81141C5.52246 9.81141 5.41586 9.77071 5.33445 9.68934C5.17168 9.52657 5.17168 9.26289 5.33445 9.10016L7.95976 6.47524C8.12254 6.31247 8.38621 6.31247 8.54894 6.47524C8.71175 6.63798 8.71175 6.90165 8.54898 7.06442Z" fill="#55625D" fill-opacity="0.5"/>
</svg>
