<svg width="20" height="20" viewBox="0 0 20 20" fill="none" xmlns="http://www.w3.org/2000/svg">
<g clip-path="url(#clip0_2401_3274)">
<path fill-rule="evenodd" clip-rule="evenodd" d="M11.1929 0.00422292C15.701 0.561489 19.428 4.29786 19.9956 8.80583C20.039 9.15028 19.7542 9.45313 19.407 9.45313H16.3828C16.1016 6.3711 13.6289 3.89844 10.5469 3.61712V0.593012C10.5469 0.246411 10.8489 -0.0383162 11.1929 0.00422292ZM5.85938 10.625C5.85938 8.68637 7.43637 7.10938 9.375 7.10938C11.3136 7.10938 12.8906 8.68637 12.8906 10.625C12.8906 12.5636 11.3136 14.1406 9.375 14.1406C7.43637 14.1406 5.85938 12.5636 5.85938 10.625ZM7.03125 10.625C7.03125 11.9176 8.08239 12.9688 9.375 12.9688C10.6676 12.9688 11.7188 11.9176 11.7188 10.625C11.7188 9.33239 10.6676 8.28126 9.375 8.28126C8.08239 8.28126 7.03125 9.33239 7.03125 10.625ZM9.37501 9.45313C8.72899 9.45313 8.20313 9.97899 8.20313 10.625C8.20313 11.271 8.72899 11.7969 9.37501 11.7969C10.021 11.7969 10.5469 11.271 10.5469 10.625C10.5469 9.97899 10.021 9.45313 9.37501 9.45313ZM15.2344 10.0391C15.2344 10.3629 15.4965 10.625 15.8203 10.625H18.75C18.75 15.8027 14.5527 20 9.37501 20C4.19735 20 0 15.8027 0 10.625C0 5.44735 4.19735 1.25 9.37501 1.25V4.17969C9.37501 4.50356 9.63708 4.76563 9.96094 4.76563C12.8689 4.76563 15.2344 7.13114 15.2344 10.0391ZM5.23184 5.65313C5.00301 5.4243 4.63203 5.4243 4.40321 5.65313C4.1743 5.88192 4.1743 6.25293 4.40321 6.48184C4.63203 6.71067 5.00301 6.71067 5.23184 6.48184C5.46067 6.25293 5.46067 5.88196 5.23184 5.65313ZM2.34375 10.625C2.34375 10.9486 2.6061 11.2109 2.92969 11.2109C3.25328 11.2109 3.51563 10.9486 3.51563 10.625C3.51563 10.3013 3.25328 10.0391 2.92969 10.0391C2.6061 10.0391 2.34375 10.3013 2.34375 10.625ZM4.40317 15.5968C4.63199 15.8256 5.00297 15.8256 5.2318 15.5968C5.46063 15.368 5.46063 14.997 5.2318 14.7682C5.00297 14.5393 4.63199 14.5393 4.40317 14.7682C4.1743 14.997 4.1743 15.368 4.40317 15.5968ZM8.78907 17.0703C8.78907 17.3939 9.05141 17.6563 9.37501 17.6563C9.6986 17.6563 9.96094 17.3939 9.96094 17.0703C9.96094 16.7467 9.6986 16.4844 9.37501 16.4844C9.05141 16.4844 8.78907 16.7467 8.78907 17.0703ZM4.6875 10.625C4.6875 13.2097 6.79036 15.3125 9.37501 15.3125C11.9597 15.3125 14.0625 13.2097 14.0625 10.625C14.0625 8.04036 11.9597 5.9375 9.37501 5.9375C6.79036 5.9375 4.6875 8.04036 4.6875 10.625ZM13.5182 15.5968C13.747 15.8256 14.118 15.8256 14.3468 15.5968C14.5757 15.368 14.5757 14.997 14.3468 14.7682C14.118 14.5393 13.747 14.5393 13.5182 14.7682C13.2893 14.997 13.2893 15.368 13.5182 15.5968Z" fill="#A3ABA6"/>
</g>
<defs>
<clipPath id="clip0_2401_3274">
<rect width="20" height="20" fill="white"/>
</clipPath>
</defs>
</svg>
