<svg width="20" height="20" viewBox="0 0 20 20" fill="none" xmlns="http://www.w3.org/2000/svg">
<g clip-path="url(#clip0_2405_243)">
<path fill-rule="evenodd" clip-rule="evenodd" d="M13.4209 5.85762C14.9169 3.33982 12.9506 -0.0583151 9.99925 0.000258777C6.61679 -0.0233936 4.80798 4.10664 7.092 6.57204C8.7843 8.53994 12.2108 8.15728 13.4209 5.85762ZM9.90645 1.25029C10.0491 1.25236 10.1851 1.31047 10.2853 1.41206C10.3854 1.51365 10.4415 1.65055 10.4415 1.79318C10.4415 1.93582 10.3854 2.07272 10.2852 2.1743C10.1851 2.27589 10.049 2.33399 9.90643 2.33606C9.76381 2.33399 9.62774 2.27588 9.52762 2.17429C9.4275 2.0727 9.37137 1.9358 9.37138 1.79316C9.37138 1.65053 9.42751 1.51363 9.52763 1.41204C9.62776 1.31046 9.76383 1.25236 9.90645 1.25029ZM9.44214 3.59686C9.34836 3.59543 9.25889 3.55717 9.19307 3.49035C9.12726 3.42352 9.09037 3.33348 9.09037 3.23968C9.09037 3.14589 9.12727 3.05585 9.19309 2.98903C9.25891 2.9222 9.34838 2.88395 9.44217 2.88253H9.99932C10.094 2.88281 10.1847 2.92052 10.2516 2.98745C10.3185 3.05437 10.3562 3.14506 10.3565 3.23971V5.89343C10.624 5.86915 10.9011 5.93017 10.9137 6.2506C10.9138 6.29755 10.9047 6.34407 10.8868 6.38748C10.8689 6.43089 10.8426 6.47033 10.8094 6.50353C10.7762 6.53673 10.7368 6.56303 10.6934 6.58092C10.65 6.59881 10.6034 6.60794 10.5565 6.60777H9.44214C9.39519 6.60794 9.34868 6.59881 9.30527 6.58092C9.26186 6.56302 9.22242 6.53672 9.18922 6.50352C9.15603 6.47032 9.12972 6.43088 9.11183 6.38747C9.09394 6.34406 9.08482 6.29755 9.08498 6.2506C9.09882 5.92847 9.37365 5.87004 9.64216 5.89346V3.59686H9.44214ZM17.0212 13.1464C16.8866 13.2874 16.758 13.422 16.6347 13.5357C16.5855 13.5861 16.5522 13.6499 16.5389 13.719C16.5256 13.7882 16.5329 13.8597 16.5599 13.9248C16.5869 13.9898 16.6324 14.0455 16.6908 14.0849C16.7492 14.1243 16.8178 14.1457 16.8883 14.1464H19.999V16.8893C19.9987 17.073 19.9263 17.2492 19.7974 17.3801C19.6685 17.511 19.4934 17.5861 19.3097 17.5893H14.4883V16.7178C14.4884 16.5804 14.4614 16.4443 14.4089 16.3173C14.3563 16.1903 14.2792 16.0749 14.182 15.9777C14.0849 15.8805 13.9695 15.8034 13.8425 15.7509C13.7154 15.6983 13.5793 15.6713 13.4419 15.6714H6.55623C6.41878 15.6713 6.28266 15.6983 6.15566 15.7509C6.02865 15.8034 5.91325 15.8805 5.81606 15.9777C5.71887 16.0749 5.6418 16.1903 5.58925 16.3173C5.5367 16.4443 5.50971 16.5804 5.50982 16.7178V17.5893H0.688447C0.504763 17.5861 0.329645 17.511 0.200749 17.3801C0.0718521 17.2492 -0.000528544 17.073 -0.000829256 16.8893V14.1464L3.10986 14.1464C3.18028 14.1457 3.24894 14.1243 3.30731 14.0849C3.36568 14.0455 3.41119 13.9898 3.4382 13.9248C3.46521 13.8597 3.47252 13.7882 3.45922 13.719C3.44593 13.6499 3.41261 13.5862 3.36341 13.5358C3.23768 13.4199 3.10738 13.2835 2.97136 13.1411L2.97134 13.1411C2.46713 12.6131 1.88426 12.0028 1.16344 12.0536C1.16384 12.0512 1.00588 12.0523 0.806201 12.0536C0.460277 12.056 -0.0108657 12.0593 -0.000818527 12.0465C0.00184262 11.7136 0.0839259 11.3861 0.23861 11.0912C0.393294 10.7964 0.616111 10.5427 0.888543 10.3513C1.16098 10.1599 1.47516 10.0363 1.80497 9.99074C2.13479 9.94517 2.47072 9.97898 2.78484 10.0894L3.44556 10.3608L5.38125 11.1429C5.74801 11.2905 6.13949 11.3668 6.53481 11.3679H13.4633C14.0664 11.4066 15.0205 10.9994 15.793 10.6697L15.793 10.6697L15.7931 10.6697C16.0805 10.547 16.3428 10.435 16.5525 10.3608L17.2168 10.0929C17.531 9.97964 17.8679 9.94376 18.1989 9.98836C18.5299 10.0329 18.8453 10.1567 19.1183 10.3491C19.3913 10.5415 19.6139 10.7969 19.7672 11.0936C19.9205 11.3903 20 11.7196 19.999 12.0536L18.8347 12.0536C18.1153 12.001 17.5255 12.6184 17.0212 13.1464ZM7.24551 14.1465H12.7526C12.8461 14.1446 12.9352 14.1062 13.0007 14.0394C13.0662 13.9726 13.1028 13.8828 13.1028 13.7893C13.1028 13.6958 13.0662 13.606 13.0007 13.5392C12.9352 13.4724 12.8461 13.434 12.7526 13.4322H7.24553C7.15193 13.4339 7.06275 13.4722 6.99715 13.539C6.93156 13.6058 6.89481 13.6957 6.89481 13.7893C6.89481 13.8829 6.93155 13.9728 6.99714 14.0396C7.06273 14.1064 7.15191 14.1448 7.24551 14.1465ZM1.16338 12.768C1.43392 12.7695 1.69302 12.8772 1.88486 13.068L2.24915 13.4323H-0.000976562V12.768H1.16338ZM13.4424 16.3857H6.55628C6.46831 16.3862 6.38408 16.4213 6.32188 16.4835C6.25968 16.5457 6.22455 16.6299 6.22412 16.7179V17.5894H13.7746V16.7179C13.7741 16.6299 13.739 16.5457 13.6768 16.4835C13.6146 16.4213 13.5304 16.3862 13.4424 16.3857ZM0.995876 19.6953C0.799634 19.4998 0.689096 19.2343 0.688569 18.9572V18.3036H4.15663V18.9572C4.15611 19.2343 4.04557 19.4998 3.84933 19.6953C3.65308 19.8909 3.3872 20.0005 3.11015 20.0001H1.73505C1.458 20.0005 1.19212 19.8909 0.995876 19.6953ZM16.1491 19.6953C15.9529 19.4998 15.8424 19.2343 15.8418 18.9572V18.3036H19.3099V18.9572C19.3094 19.2343 19.1988 19.4998 19.0026 19.6953C18.8063 19.8909 18.5405 20.0005 18.2634 20.0001H16.8883C16.6113 20.0005 16.3454 19.8909 16.1491 19.6953ZM18.1133 13.068L17.749 13.4323H19.9991V12.768H18.8347C18.5642 12.7695 18.3051 12.8772 18.1133 13.068ZM14.3598 10.4786C14.0744 10.5919 13.7704 10.6512 13.4634 10.6537C13.3035 10.6347 12.5257 10.6431 11.5181 10.6539C9.25475 10.6782 5.83196 10.715 5.64916 10.4822C5.42555 10.3924 4.86293 10.1642 4.31425 9.94157C3.79408 9.73052 3.28643 9.52455 3.09204 9.44651L4.19918 7.13939C4.3596 6.82964 4.58767 6.55998 4.8665 6.35039C5.14533 6.1408 5.46776 5.99666 5.80989 5.92866C6.18777 6.71986 6.78189 7.38793 7.52355 7.85562C8.2652 8.3233 9.1241 8.5715 10.0009 8.5715C10.8777 8.5715 11.7366 8.32331 12.4783 7.85563C13.2199 7.38794 13.814 6.71988 14.1919 5.92868C14.5331 5.9979 14.8545 6.14254 15.1326 6.35202C15.4107 6.56151 15.6384 6.83053 15.7991 7.13939L16.9062 9.44651L14.3598 10.4786Z" fill="#A3ABA6"/>
</g>
<defs>
<clipPath id="clip0_2405_243">
<rect width="20" height="20" fill="white"/>
</clipPath>
</defs>
</svg>
