<svg width="15" height="15" fill="none" xmlns="http://www.w3.org/2000/svg"><path fill-rule="evenodd" clip-rule="evenodd" d="M7.5 0C4.466 0 2 2.344 2 5.156 2 9.394 7.5 15 7.5 15S13 9.394 13 5.156C13 2.344 10.534 0 7.5 0Zm0 13.64c-1.705-1.902-4.583-5.727-4.583-8.484C2.917 2.831 4.979.938 7.5.938c1.228 0 2.392.45 3.263 1.275.844.806 1.32 1.846 1.32 2.943 0 2.757-2.878 6.582-4.583 8.485Zm1.833-8.484c0 1.04-.816 1.875-1.833 1.875-1.018 0-1.833-.834-1.833-1.875 0-1.04.815-1.875 1.833-1.875 1.017 0 1.833.835 1.833 1.875Z" fill="#555"/></svg>