<svg width="30" height="30" viewBox="0 0 30 30" fill="none" xmlns="http://www.w3.org/2000/svg">
<path d="M6.7563 15.4212L7.76385 16.9727C7.80721 17.0389 7.83704 17.1129 7.85163 17.1907C7.86621 17.2684 7.86526 17.3483 7.84883 17.4257C7.8324 17.503 7.80081 17.5764 7.7559 17.6415C7.71098 17.7066 7.65361 17.7622 7.58711 17.805L3.96571 20.1398C3.91158 20.1748 3.85107 20.1988 3.78766 20.2103C3.72424 20.2219 3.65917 20.2208 3.59617 20.2072C3.53317 20.1935 3.47348 20.1676 3.42054 20.1308C3.36759 20.094 3.32243 20.0472 3.28764 19.9929L0.0794395 15.0638C0.0441108 15.0101 0.0198655 14.9498 0.00812328 14.8865C-0.00361895 14.8233 -0.00262213 14.7583 0.0110553 14.6954C0.0247328 14.6326 0.050816 14.573 0.0877778 14.5204C0.12474 14.4677 0.171837 14.4229 0.226313 14.3887L1.46005 13.5907L6.7563 15.4212Z" fill="#605C5D"/>
<path d="M6.13987 15L6.92079 16.5229C6.95728 16.5924 6.9819 16.6707 6.9931 16.7528C7.0043 16.835 7.00184 16.9191 6.98586 17L4 16.6482L6.13987 15Z" fill="white"/>
<path d="M6.74946 5.51453C6.60799 5.29613 6.55908 5.03048 6.61348 4.77602C6.66788 4.52156 6.82114 4.29913 7.03953 4.15766C7.25793 4.0162 7.52358 3.96728 7.77804 4.02168C8.0325 4.07608 8.25493 4.22934 8.3964 4.44774L22.4083 26.3354L21.4291 26.8249L20.0622 26.3354L6.74946 5.51453Z" fill="#605C5D"/>
<path d="M9.20458 5.6814L0.539054 11.2724C0.484766 11.3068 0.437856 11.3517 0.40104 11.4045C0.364223 11.4572 0.338233 11.5167 0.324572 11.5795C0.310912 11.6424 0.309854 11.7073 0.321459 11.7705C0.333064 11.8338 0.357102 11.8941 0.392181 11.948L3.59892 16.8731C3.67047 16.9833 3.78279 17.0607 3.91127 17.0882C4.03975 17.1158 4.1739 17.0912 4.28432 17.02L12.945 11.4339L9.20458 5.6814Z" fill="#605C5D"/>
<path d="M5 12.4281L2.47344 14L1.06884 11.9193C1.03816 11.8738 1.01713 11.8228 1.00698 11.7694C0.996831 11.716 0.997757 11.6611 1.00971 11.608C1.02165 11.5549 1.04439 11.5046 1.07659 11.4601C1.10879 11.4156 1.14983 11.3776 1.19731 11.3485L3.36416 10L5 12.4281Z" fill="white"/>
<path d="M10 12.8739L6.80871 15L5 12.131L8.18655 10L10 12.8739Z" fill="white"/>
<path d="M10 8.8211L7.56952 10L6 8.18201L8.43048 7L10 8.8211Z" fill="white"/>
<path d="M3.01648 9.67725L3.01074 9.67151L3.01648 9.67725Z" fill="#605C5D"/>
<path d="M6.31629 7.54749L6.31055 7.54175L6.31629 7.54749Z" fill="#605C5D"/>
<path d="M23.2437 15.4212L22.2361 16.9727C22.1928 17.0389 22.163 17.1129 22.1484 17.1907C22.1338 17.2684 22.1347 17.3483 22.1512 17.4257C22.1676 17.503 22.1992 17.5764 22.2441 17.6415C22.289 17.7066 22.3464 17.7622 22.4129 17.805L26.0343 20.1398C26.0884 20.1748 26.1489 20.1988 26.2123 20.2103C26.2758 20.2219 26.3408 20.2208 26.4038 20.2072C26.4668 20.1935 26.5265 20.1676 26.5795 20.1308C26.6324 20.094 26.6776 20.0472 26.7124 19.9929L29.9206 15.0638C29.9559 15.0101 29.9801 14.9498 29.9919 14.8865C30.0036 14.8233 30.0026 14.7583 29.9889 14.6954C29.9753 14.6326 29.9492 14.573 29.9122 14.5204C29.8753 14.4677 29.8282 14.4229 29.7737 14.3887L28.54 13.5907L23.2437 15.4212Z" fill="#605C5D"/>
<path d="M23.8601 16L23.0792 16.7614C23.0427 16.7962 23.0181 16.8354 23.0069 16.8764C22.9957 16.9175 22.9982 16.9596 23.0141 17L26 16.8241L23.8601 16Z" fill="white"/>
<path d="M23.2505 5.51453C23.392 5.29613 23.4409 5.03048 23.3865 4.77602C23.3321 4.52156 23.1789 4.29913 22.9605 4.15766C22.7421 4.0162 22.4764 3.96728 22.222 4.02168C21.9675 4.07608 21.7451 4.22934 21.6036 4.44774L7.59175 26.3354L8.5709 26.8249L9.9378 26.3354L23.2505 5.51453Z" fill="#605C5D"/>
<path d="M20.7954 5.6814L29.4609 11.2724C29.5152 11.3068 29.5621 11.3517 29.599 11.4045C29.6358 11.4572 29.6618 11.5167 29.6754 11.5795C29.6891 11.6424 29.6901 11.7073 29.6785 11.7705C29.6669 11.8338 29.6429 11.8941 29.6078 11.948L26.4011 16.8731C26.3295 16.9833 26.2172 17.0607 26.0887 17.0882C25.9603 17.1158 25.8261 17.0912 25.7157 17.02L17.055 11.4339L20.7954 5.6814Z" fill="#605C5D"/>
<path d="M25 12.4281L27.5266 14L28.9312 11.9193C28.9618 11.8738 28.9829 11.8228 28.993 11.7694C29.0032 11.716 29.0022 11.6611 28.9903 11.608C28.9783 11.5549 28.9556 11.5046 28.9234 11.4601C28.8912 11.4156 28.8502 11.3776 28.8027 11.3485L26.6358 10L25 12.4281Z" fill="white"/>
<path d="M20 12.8739L23.1913 15L25 12.131L21.8134 10L20 12.8739Z" fill="white"/>
<path d="M20 8.8211L22.4305 10L24 8.18201L21.5695 7L20 8.8211Z" fill="white"/>
<path d="M26.9835 9.67725L26.9893 9.67151L26.9835 9.67725Z" fill="#605C5D"/>
<path d="M23.6837 7.54749L23.6895 7.54175L23.6837 7.54749Z" fill="#605C5D"/>
</svg>
