<svg width="30" height="30" viewBox="0 0 30 30" fill="none" xmlns="http://www.w3.org/2000/svg">
<g clip-path="url(#clip0_2550_3314)">
<path fill-rule="evenodd" clip-rule="evenodd" d="M30 2.86787V8.20219L26.8369 11.3995H21.269L2.7027 30L1.13389e-09 27.2973L18.6005 8.731V3.16307L21.7978 0H27.1321L27.2147 0.0826172L22.9355 4.36178L25.6382 7.06447L29.9174 2.78525L30 2.86787ZM10.6665 8.00027C11.6509 5.92095 11.2835 3.36093 9.56344 1.64091C7.84594 -0.0766475 5.29066 -0.445554 3.21299 0.533665L6.08344 3.40411V6.08366H3.40388L0.533436 3.21322C-0.445783 5.29089 -0.0769355 7.84611 1.64068 9.56372C3.3607 11.2837 5.92072 11.6512 8.00004 10.6668L11.1253 13.792L13.7942 11.1279L10.6665 8.00027ZM27.297 30.0001L29.9997 27.2974L18.8788 16.1992L16.1992 18.8837L27.297 30.0001Z" fill="#17A53D"/>
</g>
<defs>
<clipPath id="clip0_2550_3314">
<rect width="30" height="30" fill="white"/>
</clipPath>
</defs>
</svg>
