<svg width="30" height="30" viewBox="0 0 30 30" fill="none" xmlns="http://www.w3.org/2000/svg">
<g clip-path="url(#clip0_2550_3306)">
<path fill-rule="evenodd" clip-rule="evenodd" d="M15.3398 0.0723486C16.2045 1.19415 17.9188 3.96811 17.9188 5.34384C17.9188 6.1557 17.5962 6.9343 17.0222 7.50837C16.4481 8.08244 15.6695 8.40495 14.8576 8.40495C14.0458 8.40495 13.2672 8.08244 12.6931 7.50837C12.1191 6.9343 11.7965 6.1557 11.7965 5.34384C11.7965 3.96811 13.5183 1.19415 14.3755 0.0723486C14.4321 -0.00183481 14.505 -0.0619588 14.5887 -0.103344C14.6723 -0.144729 14.7643 -0.16626 14.8576 -0.16626C14.951 -0.16626 15.043 -0.144729 15.1266 -0.103344C15.2103 -0.0619588 15.2832 -0.00183481 15.3398 0.0723486ZM26.6432 18.0479H25.5717L27.0717 20.0482C27.488 20.6052 27.7134 21.2815 27.7146 21.9768V24.4765C27.7135 24.851 27.6139 25.2186 27.4258 25.5424C27.2378 25.8663 26.9678 26.1349 26.6432 26.3215V27.6908C26.6432 28.2592 26.4174 28.8042 26.0155 29.2061C25.6136 29.6079 25.0686 29.8337 24.5003 29.8337H22.3574C21.7891 29.8337 21.244 29.6079 20.8421 29.2061C20.4403 28.8042 20.2145 28.2592 20.2145 27.6908V26.6194H9.50009V27.6908C9.50009 28.2592 9.27432 28.8042 8.87245 29.2061C8.47059 29.6079 7.92553 29.8337 7.35721 29.8337H5.21432C4.646 29.8337 4.10095 29.6079 3.69908 29.2061C3.29721 28.8042 3.07144 28.2592 3.07144 27.6908V26.3215C2.74675 26.1349 2.47684 25.8663 2.28878 25.5424C2.10072 25.2186 2.00113 24.851 2 24.4765V21.9758C2.00153 21.2805 2.22695 20.6043 2.64286 20.0472L4.14288 18.0479H3.07144C2.78728 18.0479 2.51475 17.935 2.31382 17.734C2.11288 17.5331 2 17.2606 2 16.9764C2 16.6923 2.11288 16.4197 2.31382 16.2188C2.51475 16.0179 2.78728 15.905 3.07144 15.905H5.62361L6.87827 13.3957C7.14358 12.8605 7.55353 12.4104 8.06163 12.0964C8.56974 11.7825 9.15566 11.6171 9.75295 11.6192H19.9616C20.5589 11.6171 21.1449 11.7825 21.653 12.0964C22.1611 12.4104 22.571 12.8605 22.8363 13.3957L24.091 15.905H26.6432C26.9273 15.905 27.1998 16.0179 27.4008 16.2188C27.6017 16.4197 27.7146 16.6923 27.7146 16.9764C27.7146 17.2606 27.6017 17.5331 27.4008 17.734C27.1998 17.935 26.9273 18.0479 26.6432 18.0479ZM24.3217 21.533C24.0574 21.3564 23.7467 21.2622 23.4288 21.2622C23.0026 21.2622 22.5938 21.4315 22.2924 21.7329C21.991 22.0343 21.8217 22.4431 21.8217 22.8693C21.8217 23.1872 21.9159 23.4979 22.0925 23.7622C22.2691 24.0265 22.5201 24.2325 22.8138 24.3542C23.1075 24.4758 23.4306 24.5076 23.7424 24.4456C24.0541 24.3836 24.3405 24.2305 24.5653 24.0058C24.79 23.781 24.9431 23.4946 25.0051 23.1829C25.0671 22.8711 25.0353 22.548 24.9137 22.2543C24.792 21.9606 24.586 21.7096 24.3217 21.533ZM7.24471 17.4554C7.21537 17.5127 7.18132 17.5676 7.14292 17.6193L7.10756 17.6654L7.41185 17.8679C7.58747 17.9854 7.79409 18.0481 8.00543 18.0479H21.7145C21.924 18.047 22.1286 17.9844 22.3027 17.8679L22.607 17.6654L22.5717 17.6193C22.5333 17.5676 22.4992 17.5127 22.4699 17.4554L20.9195 14.3546C20.8306 14.1767 20.6939 14.027 20.5247 13.9223C20.3555 13.8177 20.1606 13.7622 19.9616 13.7621H9.75295C9.55402 13.7622 9.35906 13.8177 9.18988 13.9223C9.0207 14.027 8.884 14.1767 8.79508 14.3546L7.24471 17.4554ZM7.17866 21.533C6.91436 21.3564 6.60363 21.2622 6.28577 21.2622C5.85952 21.2622 5.45073 21.4315 5.14933 21.7329C4.84793 22.0343 4.6786 22.4431 4.6786 22.8693C4.6786 23.1872 4.77286 23.4979 4.94946 23.7622C5.12606 24.0265 5.37706 24.2325 5.67073 24.3542C5.9644 24.4758 6.28755 24.5076 6.59931 24.4456C6.91107 24.3836 7.19744 24.2305 7.4222 24.0058C7.64697 23.781 7.80003 23.4946 7.86205 23.1829C7.92406 22.8711 7.89223 22.548 7.77059 22.2543C7.64895 21.9606 7.44295 21.7096 7.17866 21.533ZM27.7143 6.4152C27.7143 5.03947 26 2.26551 25.1354 1.14371C25.0788 1.06953 25.0058 1.0094 24.9222 0.968017C24.8386 0.926632 24.7465 0.905101 24.6532 0.905101C24.5599 0.905101 24.4679 0.926632 24.3842 0.968017C24.3006 1.0094 24.2277 1.06953 24.1711 1.14371C23.3139 2.26551 21.5921 5.03947 21.5921 6.4152C21.5921 7.22706 21.9146 8.00566 22.4887 8.57973C23.0628 9.1538 23.8414 9.47631 24.6532 9.47631C25.4651 9.47631 26.2437 9.1538 26.8178 8.57973C27.3918 8.00566 27.7143 7.22706 27.7143 6.4152ZM5.54326 1.14371C6.40791 2.26551 8.12222 5.03947 8.12222 6.4152C8.12222 7.22706 7.79971 8.00566 7.22564 8.57973C6.65157 9.1538 5.87296 9.47631 5.06111 9.47631C4.24925 9.47631 3.47065 9.1538 2.89658 8.57973C2.32251 8.00566 2 7.22706 2 6.4152C2 5.03947 3.71431 2.26551 4.57896 1.14371C4.63555 1.06953 4.7085 1.0094 4.79213 0.968017C4.87575 0.926632 4.9678 0.905101 5.06111 0.905101C5.15441 0.905101 5.24646 0.926632 5.33009 0.968017C5.41371 1.0094 5.48666 1.06953 5.54326 1.14371Z" fill="#03164E"/>
</g>
<defs>
<clipPath id="clip0_2550_3306">
<rect width="30" height="30" fill="white"/>
</clipPath>
</defs>
</svg>
