<svg width="30" height="30" viewBox="0 0 30 30" fill="none" xmlns="http://www.w3.org/2000/svg">
<g clip-path="url(#clip0_2550_3280)">
<path d="M14.9999 0C6.71565 0 0 6.71565 0 14.9999C0 23.2841 6.71565 30 14.9999 30C23.2841 30 30 23.2841 30 14.9999C29.9907 6.71949 23.2805 0.00933831 14.9999 0ZM14.9999 3.00008C19.942 2.98333 24.3827 6.01609 26.1658 10.6251C22.657 9.04584 18.8475 8.24631 14.9999 8.28119C11.1525 8.24631 7.34296 9.04584 3.83422 10.6251C5.61729 6.01609 10.058 2.98333 14.9999 3.00008ZM12.5296 26.7428C7.30753 25.6277 3.44503 21.2044 3.04403 15.8796C7.52341 15.8796 12.5296 21.8438 12.5296 26.7428ZM14.9999 17.2499C13.7573 17.2499 12.7499 16.2427 12.7499 14.9999C12.7499 13.7573 13.7573 12.7499 14.9999 12.7499C16.2427 12.7499 17.2499 13.7573 17.2499 14.9999C17.2499 16.2427 16.2427 17.2499 14.9999 17.2499ZM17.4704 26.7428C17.4704 21.8438 22.4766 15.8796 26.9562 15.8796C26.555 21.2044 22.6925 25.6277 17.4704 26.7428Z" fill="#C74105"/>
</g>
<defs>
<clipPath id="clip0_2550_3280">
<rect width="30" height="30" fill="white"/>
</clipPath>
</defs>
</svg>
