<svg width="82" height="82" viewBox="0 0 82 82" fill="none" xmlns="http://www.w3.org/2000/svg">
<rect x="1" y="1" width="80" height="80" rx="40" fill="white" stroke="#165840" stroke-linecap="round" stroke-dasharray="5 5"/>
<path fill-rule="evenodd" clip-rule="evenodd" d="M55.9926 35.8319H58.5755H58.5756V55.082H55.9927V61H26.0087V55.082H23.4258V35.8319H26.0086V29.9255L34.934 21H55.9926V35.8319ZM34.5553 29.5417V24.6934L29.707 29.5417H34.5553ZM36.8991 31.8854H28.3523V35.8319H53.6489V23.3438H36.8991V31.8854ZM28.3523 58.6562H53.6489V55.082H28.3523V58.6562ZM25.7695 52.7383H56.2317H56.2318V38.1756H25.7695V52.7383ZM32.3315 47.2762H30.9461V50.6324H28.6023V40.4045H32.3315C34.226 40.4045 35.7673 41.9458 35.7673 43.8404C35.7673 45.7349 34.226 47.2762 32.3315 47.2762ZM32.3315 42.7482H30.9461V44.9325H32.3315C32.9337 44.9325 33.4236 44.4425 33.4236 43.8404C33.4236 43.2382 32.9337 42.7482 32.3315 42.7482ZM49.1852 47.2762H52.4133V44.9325H49.1852V42.7482H53.2466V40.4045H46.8414V50.6324H49.1852V47.2762ZM44.7673 43.8469V47.1569C44.7673 49.055 43.223 50.5993 41.3249 50.5993H37.6023V40.4045H41.3249C43.223 40.4045 44.7673 41.9488 44.7673 43.8469ZM41.3248 42.7482H39.946V48.2556H41.3248C41.9306 48.2556 42.4235 47.7627 42.4235 47.1569V43.8469C42.4235 43.2411 41.9306 42.7482 41.3248 42.7482Z" fill="#165840"/>
</svg>
