<svg width="25" height="25" viewBox="0 0 25 25" fill="none" xmlns="http://www.w3.org/2000/svg">
<g clip-path="url(#clip0_2550_3265)">
<path fill-rule="evenodd" clip-rule="evenodd" d="M16.6693 1.09974C16.755 0.415701 17.4071 -0.0726861 18.1259 0.00890126L17.9706 1.24745C18.1259 0.00890149 18.1268 0.00900153 18.1276 0.00910153L18.1295 0.00932653L18.1334 0.00977625L18.142 0.0108265L18.1626 0.013489C18.1776 0.0155265 18.1955 0.0181014 18.2161 0.0213389C18.2573 0.0278014 18.3091 0.0369138 18.3705 0.0495763C18.4933 0.0748512 18.6549 0.114476 18.8456 0.175864C19.2268 0.298588 19.7276 0.509588 20.2634 0.869162C21.357 1.60322 22.5054 2.89616 23.1254 5.09827C23.3128 5.76368 22.8979 6.44764 22.1986 6.62594C21.4995 6.80422 20.7808 6.40935 20.5935 5.74394C20.128 4.09059 19.332 3.29671 18.7526 2.90781C18.4518 2.7059 18.184 2.59638 18.0056 2.53897C17.9165 2.51028 17.8508 2.49492 17.8159 2.48775C17.8039 2.48528 17.7958 2.48381 17.7916 2.48311C17.0854 2.3907 16.5845 1.77621 16.6693 1.09974ZM9.69497 0.774912C8.29662 1.1315 7.46677 2.49942 7.84146 3.83023L7.95721 4.24134C5.28617 5.986 3.92622 9.20286 4.81244 12.3506L6.0335 16.6875L4.74024 19.8892C4.38648 20.7651 4.57903 21.7557 5.23857 22.4532C5.89809 23.1506 6.91307 23.4368 7.86539 23.194L14.1981 21.5791L16.7301 20.9335C16.9175 21.5988 16.5028 22.2836 15.8036 22.4618C15.1044 22.6402 14.3855 22.2445 14.1981 21.5791L11.6665 22.2256C12.2285 24.2217 14.3845 25.4065 16.482 24.8716C18.5795 24.3366 19.8244 22.2847 19.2623 20.2886L23.0571 19.32C24.0094 19.0772 24.738 18.3463 24.9428 17.4285C25.1475 16.5106 24.7938 15.561 24.0273 14.9708L21.2253 12.8135L20.0041 8.47655C19.118 5.32914 16.2506 3.1905 13.0211 2.95027L12.9054 2.53891C12.5306 1.20809 11.0934 0.418326 9.69497 0.774912ZM22.3786 16.9103L19.5765 14.753C19.1459 14.4213 18.8366 13.9685 18.6933 13.4591L17.4721 9.12221C16.7228 6.46058 13.8481 4.88104 11.0514 5.59423C8.25471 6.30741 6.59502 9.04325 7.34439 11.7049L8.56546 16.0418C8.70883 16.5511 8.679 17.0905 8.48022 17.5826L7.18697 20.7843L22.3786 16.9103ZM1.99546 4.12271C2.57505 3.71003 3.39643 3.82266 3.83004 4.37426C4.25885 4.91975 4.14785 5.6903 3.58477 6.1064C3.58158 6.10896 3.57527 6.11413 3.56623 6.12194C3.53983 6.14474 3.4909 6.18935 3.42882 6.25659C3.30454 6.39118 3.13013 6.61346 2.9757 6.93146C2.67824 7.54396 2.40599 8.61027 2.87148 10.2636C3.05883 10.929 2.6439 11.613 1.94473 11.7912C1.24555 11.9696 0.526876 11.5747 0.339526 10.9092C-0.280462 8.70716 0.0348128 7.04097 0.596276 5.88485C0.871301 5.31853 1.19419 4.89748 1.45985 4.60978C1.59273 4.46589 1.71194 4.35464 1.80493 4.27436C1.85146 4.23417 1.8916 4.20159 1.92381 4.17643C1.93991 4.16384 1.95406 4.15309 1.96606 4.14416L1.98244 4.13208L1.98938 4.12706L1.99253 4.12479L1.99403 4.12373C1.99475 4.12321 1.99546 4.12271 2.78059 5.12145L1.99546 4.12271Z" fill="#165840"/>
</g>
<defs>
<clipPath id="clip0_2550_3265">
<rect width="25" height="25" fill="white"/>
</clipPath>
</defs>
</svg>
