<svg width="16" height="16" viewBox="0 0 16 16" fill="none" xmlns="http://www.w3.org/2000/svg">
<g clip-path="url(#clip0_2405_285)">
<path fill-rule="evenodd" clip-rule="evenodd" d="M1.6 7.2C1.6 4.10721 4.10721 1.6 7.2 1.6C10.2928 1.6 12.8 4.10721 12.8 7.2C12.8 8.7088 12.2033 10.0782 11.233 11.0852C11.2057 11.1062 11.1794 11.1293 11.1543 11.1543C11.1293 11.1794 11.1063 11.2057 11.0852 11.233C10.0783 12.2033 8.70882 12.8 7.2 12.8C4.10721 12.8 1.6 10.2928 1.6 7.2ZM11.6942 12.8255C10.4624 13.8108 8.90002 14.4 7.2 14.4C3.22355 14.4 0 11.1765 0 7.2C0 3.22355 3.22355 0 7.2 0C11.1765 0 14.4 3.22355 14.4 7.2C14.4 8.90001 13.8108 10.4624 12.8255 11.6941L15.7657 14.6343C16.0781 14.9467 16.0781 15.4533 15.7657 15.7657C15.4533 16.0781 14.9468 16.0781 14.6343 15.7657L11.6942 12.8255Z" fill="#ADBC92"/>
</g>
<defs>
<clipPath id="clip0_2405_285">
<rect width="16" height="16" fill="white"/>
</clipPath>
</defs>
</svg>
