<svg width="16" height="16" viewBox="0 0 16 16" fill="none" xmlns="http://www.w3.org/2000/svg">
<g clip-path="url(#clip0_2405_409)">
<path fill-rule="evenodd" clip-rule="evenodd" d="M3.89545 2.89545C4.89565 1.89525 6.25222 1.33334 7.66672 1.33334C9.08122 1.33334 10.4378 1.89525 11.438 2.89545C12.4382 3.89565 13.0001 5.25222 13.0001 6.66672C13.0001 8.73211 11.6563 10.7362 10.1828 12.2916C9.45966 13.0549 8.73428 13.6797 8.18894 14.114C7.98598 14.2756 7.8087 14.4102 7.66672 14.5152C7.52473 14.4102 7.34746 14.2756 7.1445 14.114C6.59915 13.6797 5.87378 13.0549 5.15067 12.2916C3.67718 10.7362 2.33334 8.73211 2.33334 6.66672C2.33334 5.25222 2.89525 3.89565 3.89545 2.89545ZM7.29655 15.8879C7.29675 15.888 7.29691 15.8882 7.66672 15.3334L8.03652 15.8882C7.81258 16.0374 7.52049 16.0372 7.29655 15.8879ZM7.29655 15.8879L7.66672 15.3334C8.03652 15.8882 8.03719 15.8877 8.03738 15.8876L8.03879 15.8866L8.04323 15.8837L8.05851 15.8733C8.07149 15.8645 8.09 15.8518 8.11368 15.8354C8.16103 15.8027 8.22908 15.7549 8.31486 15.6929C8.48636 15.5691 8.72915 15.3883 9.01951 15.1571C9.59918 14.6955 10.3738 14.0287 11.1507 13.2086C12.6772 11.5973 14.3334 9.26803 14.3334 6.66672C14.3334 4.89859 13.631 3.20289 12.3808 1.95264C11.1305 0.702384 9.43484 0 7.66672 0C5.89859 0 4.20289 0.702384 2.95264 1.95264C1.70238 3.20289 1 4.89859 1 6.66672C1 9.26803 2.65619 11.5973 4.18272 13.2086C4.95962 14.0287 5.73426 14.6955 6.31392 15.1571C6.60428 15.3883 6.84707 15.5691 7.01857 15.6929C7.10436 15.7549 7.1724 15.8027 7.21975 15.8354C7.24343 15.8518 7.26195 15.8645 7.27493 15.8733L7.2902 15.8837L7.29465 15.8866L7.29655 15.8879ZM6.33334 6.66669C6.33334 5.9303 6.9303 5.33334 7.66669 5.33334C8.40307 5.33334 9.00003 5.9303 9.00003 6.66669C9.00003 7.40307 8.40307 8.00003 7.66669 8.00003C6.9303 8.00003 6.33334 7.40307 6.33334 6.66669ZM7.66669 4C6.19392 4 5 5.19392 5 6.66669C5 8.13946 6.19392 9.33337 7.66669 9.33337C9.13946 9.33337 10.3334 8.13946 10.3334 6.66669C10.3334 5.19392 9.13946 4 7.66669 4Z" fill="#ADBC92"/>
</g>
<defs>
<clipPath id="clip0_2405_409">
<rect width="16" height="16" fill="white"/>
</clipPath>
</defs>
</svg>
