<svg width="32" height="32" viewBox="0 0 32 32" fill="none" xmlns="http://www.w3.org/2000/svg">
<path fill-rule="evenodd" clip-rule="evenodd" d="M3.68646 6.53213C3.66278 6.57481 3.64256 6.61847 3.6257 6.6628C2.90999 7.40683 2.46509 8.3924 2.46509 9.50652V11.5059C2.46509 12.0573 2.91211 12.5043 3.46353 12.5043C4.01495 12.5043 4.46197 12.0573 4.46197 11.5059V9.50652C4.46197 8.33141 5.54136 7.21988 7.07852 7.21988H10.0998C10.6512 7.21988 11.0983 6.77286 11.0983 6.22144C11.0983 5.67002 10.6512 5.223 10.0998 5.223H7.07852C6.94736 5.223 6.81705 5.22822 6.68787 5.23848L7.74002 3.34215C8.18584 2.54748 9.12208 1.99697 10.2013 1.99697H15.8957C16.6529 1.99697 17.3132 2.20812 17.7696 2.57529C18.1992 2.92093 18.8277 2.85283 19.1734 2.42318C19.519 1.99353 19.4509 1.36504 19.0213 1.01939C18.1326 0.304476 16.9976 9.15527e-05 15.8957 9.15527e-05H10.2013C8.46714 9.15527e-05 6.82778 0.884272 5.99688 2.36798L5.99496 2.37142L3.68646 6.53213ZM20.0015 20.458C19.9916 20.4368 19.981 20.4159 19.9695 20.3951L17.6461 16.2L17.6442 16.1966C16.8139 14.711 15.1735 13.8255 13.438 13.8255H7.74369C6.00945 13.8255 4.37009 14.7097 3.53919 16.1934L3.53725 16.1968L1.22881 20.3575C1.20505 20.4004 1.18478 20.4442 1.16789 20.4886C0.452283 21.2326 0.00744629 22.2181 0.00744629 23.3322V23.7209V28.1581V30.0015C0.00744629 30.5529 0.454462 31 1.00588 31H4.25527C4.80669 31 5.2537 30.5529 5.2537 30.0015V29.1566H15.9295V30.0015C15.9295 30.5529 16.3766 31 16.928 31H20.1774C20.7288 31 21.1758 30.5529 21.1758 30.0015V23.3038C21.1758 22.1798 20.7244 21.1958 20.0015 20.458ZM2.00432 27.1597V23.7209V23.3322C2.00432 22.157 3.08375 21.0455 4.62088 21.0455H16.5624C18.1113 21.0455 19.1789 22.1393 19.1789 23.3038V27.1597H14.6453L13.376 25.409C13.1449 25.0901 12.7749 24.9014 12.3811 24.9014H8.85102C8.44547 24.9014 8.06604 25.1015 7.8369 25.4361L6.65707 27.1597H2.00432ZM15.9011 17.1708L16.9494 19.0637C16.8214 19.0537 16.6923 19.0487 16.5624 19.0487H4.62088C4.48965 19.0487 4.35927 19.0539 4.23003 19.0642L5.28232 17.1675C5.72815 16.3729 6.66438 15.8224 7.74369 15.8224H13.438C14.5181 15.8224 15.4547 16.3737 15.9002 17.1692L15.9011 17.1708ZM16.0602 25.393C16.739 25.393 17.2892 24.8428 17.2892 24.164C17.2892 23.4853 16.739 22.9351 16.0602 22.9351C15.3815 22.9351 14.8313 23.4853 14.8313 24.164C14.8313 24.8428 15.3815 25.393 16.0602 25.393ZM6.29032 24.164C6.29032 24.8428 5.74012 25.393 5.06138 25.393C4.38264 25.393 3.83244 24.8428 3.83244 24.164C3.83244 23.4853 4.38264 22.9351 5.06138 22.9351C5.74012 22.9351 6.29032 23.4853 6.29032 24.164ZM7.51948 11.5673C8.19823 11.5673 8.74843 11.0171 8.74843 10.3384C8.74843 9.65965 8.19823 9.10946 7.51948 9.10946C6.84074 9.10946 6.29054 9.65965 6.29054 10.3384C6.29054 11.0171 6.84074 11.5673 7.51948 11.5673ZM27.1207 15.7457C27.1207 16.4245 26.5705 16.9747 25.8917 16.9747C25.213 16.9747 24.6628 16.4245 24.6628 15.7457C24.6628 15.067 25.213 14.5168 25.8917 14.5168C26.5705 14.5168 27.1207 15.067 27.1207 15.7457ZM15.3139 8.67925L14.4392 10.277C14.0942 10.83 13.7869 11.1373 13.2173 11.1373C12.2847 11.1373 11.7368 10.1357 12.1893 9.3202L13.167 7.48251C14.028 5.94504 15.7162 4.99255 17.575 4.99255H23.2694C25.1298 4.99255 26.8186 5.94627 27.6767 7.48159L30.0024 11.681C30.0046 11.6849 30.0066 11.6889 30.0086 11.6928C30.0109 11.6975 30.0131 11.7023 30.0154 11.707L30.0154 11.707C30.0181 11.7128 30.0208 11.7186 30.0237 11.7243C30.8012 12.5351 31.23 13.5675 31.2378 14.6705C31.2397 14.9421 31.154 15.1969 31.0071 15.4053V18.9159C31.1468 19.0138 31.2381 19.176 31.2381 19.3596V21.8904C31.2381 22.5692 30.6878 23.1194 30.0091 23.1194H26.7597C26.0809 23.1194 25.5307 22.5692 25.5307 21.8904V21.276H24.1102C23.4315 21.276 22.8813 20.7258 22.8813 20.047C22.8813 19.3683 23.4315 18.8181 24.1102 18.8181H29.0102V15.4175C28.8653 15.2159 28.78 14.9685 28.78 14.7012C28.78 13.5831 27.7096 12.6734 26.3939 12.6734H17.6581C16.9783 12.6734 16.4275 12.1215 16.4291 11.4416C16.4307 10.764 16.9804 10.2155 17.658 10.2155H26.3812L25.5289 8.67655C25.1135 7.93334 24.2257 7.45043 23.2694 7.45043H17.575C16.6194 7.45043 15.732 7.93279 15.3139 8.67925Z" fill="#55625D"/>
</svg>
