<svg width="16" height="16" viewBox="0 0 16 16" fill="none" xmlns="http://www.w3.org/2000/svg">
<path fill-rule="evenodd" clip-rule="evenodd" d="M1.53206 2.85738C1.65233 2.61956 1.89966 2.45453 2.1818 2.45453H13.8181C14.1002 2.45453 14.3476 2.61959 14.4679 2.85745L8 7.38494L1.53206 2.85738ZM1.45453 4.5786V11.909C1.45453 12.3073 1.78347 12.6363 2.1818 12.6363H13.8181C14.2164 12.6363 14.5453 12.3073 14.5453 11.909V4.57869L8.41706 8.86849C8.16665 9.04377 7.83335 9.04377 7.58294 8.86849L1.45453 4.5786ZM15.9999 3.19469V11.909C15.9999 13.1107 15.0197 14.0908 13.8181 14.0908H2.1818C0.980149 14.0908 0 13.1107 0 11.909V3.1818C0 1.98015 0.980149 1 2.1818 1H13.8181C15.0139 1 15.9904 1.97069 15.9998 3.16437C16 3.17448 16.0001 3.18459 15.9999 3.19469Z" fill="#ADBC92"/>
</svg>
