<svg width="16" height="16" viewBox="0 0 16 16" fill="none" xmlns="http://www.w3.org/2000/svg">
<path fill-rule="evenodd" clip-rule="evenodd" d="M5.44862 4.70718C5.44862 3.47873 6.44448 2.48287 7.67293 2.48287C8.90138 2.48287 9.89724 3.47873 9.89724 4.70718C9.89724 5.93564 8.90138 6.93149 7.67293 6.93149C6.44448 6.93149 5.44862 5.93564 5.44862 4.70718ZM7.67293 1C5.62551 1 3.96575 2.65976 3.96575 4.70718C3.96575 6.75461 5.62551 8.41437 7.67293 8.41437C9.72035 8.41437 11.3801 6.75461 11.3801 4.70718C11.3801 2.65976 9.72035 1 7.67293 1ZM4.70718 9.89724C3.72398 9.89724 2.78104 10.2878 2.08581 10.9831C1.39058 11.6783 1 12.6212 1 13.6044V15.0873C1 15.4968 1.33195 15.8287 1.74144 15.8287C2.15092 15.8287 2.48287 15.4968 2.48287 15.0873V13.6044C2.48287 13.0145 2.71722 12.4487 3.13436 12.0316C3.5515 11.6145 4.11726 11.3801 4.70718 11.3801H10.6387C11.2286 11.3801 11.7944 11.6145 12.2115 12.0316C12.6286 12.4487 12.863 13.0145 12.863 13.6044V15.0873C12.863 15.4968 13.1949 15.8287 13.6044 15.8287C14.0139 15.8287 14.3459 15.4968 14.3459 15.0873V13.6044C14.3459 12.6212 13.9553 11.6783 13.2601 10.9831C12.5648 10.2878 11.6219 9.89724 10.6387 9.89724H4.70718Z" fill="#ADBC92"/>
</svg>
